SplineFontDB: 3.2
FontName: Pretension-Thin
FullName: Pretension Thin
FamilyName: Pretension Thin
Weight: Thin
Copyright: Copyright 2016 The Inter Project Authors
Version: 4.000;git-a52131595
ItalicAngle: 0
UnderlinePosition: -395
UnderlineWidth: 46
Ascent: 1638
Descent: 410
InvalidEm: 0
sfntRevision: 0x00040000
LayerCount: 2
Layer: 0 1 "Back" 1
Layer: 1 1 "Fore" 0
XUID: [1021 89 -1234937351 7458214]
StyleMap: 0x0040
FSType: 0
OS2Version: 4
OS2_WeightWidthSlopeOnly: 0
OS2_UseTypoMetrics: 1
CreationTime: 1700438797
ModificationTime: 1707789123
PfmFamily: 17
TTFWeight: 100
TTFWidth: 5
LineGap: 0
VLineGap: 0
Panose: 2 0 5 3 0 0 0 2 0 4
OS2TypoAscent: 1984
OS2TypoAOffset: 0
OS2TypoDescent: -494
OS2TypoDOffset: 0
OS2TypoLinegap: 0
OS2WinAscent: 1984
OS2WinAOffset: 0
OS2WinDescent: 494
OS2WinDOffset: 0
HheadAscent: 1984
HheadAOffset: 0
HheadDescent: -494
HheadDOffset: 0
OS2SubXSize: 1331
OS2SubYSize: 1229
OS2SubXOff: 0
OS2SubYOff: 154
OS2SupXSize: 1331
OS2SupYSize: 1229
OS2SupXOff: 0
OS2SupYOff: 717
OS2StrikeYSize: 46
OS2StrikeYPos: 653
OS2CapHeight: 1490
OS2XHeight: 1087
OS2Vendor: 'RSMS'
OS2CodePages: 0000019f.00000000
OS2UnicodeRanges: e0000aff.5200a1ff.00000021.00000000
Lookup: 1 0 0 "'aalt' Access All Alternates in Latin lookup 0" { "'aalt' Access All Alternates in Latin lookup 0 subtable"  } ['aalt' ('DFLT' <'dflt' > 'latn' <'CAT ' 'MOL ' 'ROM ' 'dflt' > ) ]
Lookup: 3 0 0 "'aalt' Access All Alternates in Latin lookup 1" { "'aalt' Access All Alternates in Latin lookup 1 subtable"  } ['aalt' ('DFLT' <'dflt' > 'latn' <'CAT ' 'MOL ' 'ROM ' 'dflt' > ) ]
Lookup: 1 0 0 "Single Substitution lookup 2" { "Single Substitution lookup 2 subtable"  } []
Lookup: 4 0 0 "'ccmp' Glyph Composition/Decomposition in Latin lookup 3" { "'ccmp' Glyph Composition/Decomposition in Latin lookup 3 subtable"  } ['ccmp' ('DFLT' <'dflt' > 'latn' <'CAT ' 'MOL ' 'ROM ' 'dflt' > ) ]

StartChar: .notdef
Encoding: 1114112 -1 0
Width: 1344
Flags: W
LayerCount: 2
Fore
SplineSet
1016 -416 m 1,0,-1
 328 -416 l 1,1,-1
 328 1856 l 1,2,-1
 1016 1856 l 1,3,-1
 1016 -416 l 1,0,-1
512 -192 m 1,4,-1
 512 -256 l 1,5,-1
 832 -256 l 1,6,-1
 832 -192 l 1,7,-1
 617 -192 l 1,8,-1
 832 -65 l 1,9,-1
 832 0 l 1,10,-1
 512 0 l 1,11,-1
 512 -64 l 1,12,-1
 728 -64 l 1,13,-1
 512 -192 l 1,4,-1
512 320 m 1,14,-1
 512 64 l 1,15,-1
 832 64 l 1,16,-1
 832 320 l 1,17,-1
 512 320 l 1,14,-1
768 128 m 1,18,-1
 576 128 l 1,19,-1
 576 256 l 1,20,-1
 768 256 l 1,21,-1
 768 128 l 1,18,-1
512 704 m 1,22,-1
 512 448 l 1,23,-1
 832 448 l 1,24,-1
 832 704 l 1,25,-1
 640 704 l 1,26,-1
 640 576 l 1,27,-1
 704 576 l 1,28,-1
 704 640 l 1,29,-1
 768 640 l 1,30,-1
 768 512 l 1,31,-1
 576 512 l 1,32,-1
 576 704 l 1,33,-1
 512 704 l 1,22,-1
512 832 m 1,34,-1
 512 768 l 1,35,-1
 832 768 l 1,36,-1
 832 992 l 1,37,-1
 768 992 l 1,38,-1
 768 832 l 1,39,-1
 512 832 l 1,34,-1
512 960 m 1,40,-1
 512 896 l 1,41,-1
 704 896 l 1,42,-1
 704 1056 l 1,43,-1
 832 1056 l 1,44,-1
 832 1120 l 1,45,-1
 512 1120 l 1,46,-1
 512 1056 l 1,47,-1
 640 1056 l 1,48,-1
 640 960 l 1,49,-1
 512 960 l 1,40,-1
640 1248 m 1,50,-1
 576 1248 l 1,51,-1
 576 1344 l 1,52,-1
 640 1344 l 1,53,-1
 640 1248 l 1,50,-1
512 1408 m 1,54,-1
 512 1184 l 1,55,-1
 832 1184 l 1,56,-1
 832 1248 l 1,57,-1
 704 1248 l 1,58,-1
 704 1408 l 1,59,-1
 512 1408 l 1,54,-1
512 1536 m 1,60,-1
 512 1472 l 1,61,-1
 832 1472 l 1,62,-1
 832 1536 l 1,63,-1
 688 1536 l 1,64,-1
 688 1632 l 1,65,-1
 832 1632 l 1,66,-1
 832 1696 l 1,67,-1
 512 1696 l 1,68,-1
 512 1632 l 1,69,-1
 624 1632 l 1,70,-1
 624 1536 l 1,71,-1
 512 1536 l 1,60,-1
EndSplineSet
EndChar

StartChar: A
Encoding: 65 65 2
Width: 1265
GlyphClass: 2
Flags: W
AnchorPoint: "Anchor-4" 1222 0 basechar 0
AnchorPoint: "Anchor-1" 632 1490 basechar 0
AnchorPoint: "Anchor-0" 632 0 basechar 0
LayerCount: 2
Fore
SplineSet
43 0 m 1,0,-1
 601 1490 l 1,1,-1
 664 1490 l 1,2,-1
 1222 0 l 1,3,-1
 1173 0 l 1,4,-1
 740 1154 l 2,5,6
 710 1235 710 1235 680.5 1315 c 128,-1,7
 651 1395 651 1395 622 1475 c 1,8,-1
 640 1475 l 1,9,10
 612 1395 612 1395 582.5 1315 c 128,-1,11
 553 1235 553 1235 523 1154 c 2,12,-1
 92 0 l 1,13,-1
 43 0 l 1,0,-1
263 494 m 1,14,-1
 263 540 l 1,15,-1
 1002 540 l 1,16,-1
 1002 494 l 1,17,-1
 263 494 l 1,14,-1
EndSplineSet
Substitution2: "'c2sc' Capitals to Small Capitals in Latin lookup 68 subtable" a.sc
Substitution2: "'ss06' Style Set 6 in Latin lookup 52 subtable" A.squared
Substitution2: "'ss05' Style Set 5 in Latin lookup 51 subtable" uni24B6
Substitution2: "Single Substitution lookup 44 subtable" ordfeminine
AlternateSubs2: "'aalt' Access All Alternates in Latin lookup 1 subtable" ordfeminine a.sc
Position2: "'cpsp' Capital Spacing in Latin lookup 0 subtable" dx=0 dy=0 dh=0 dv=0
EndChar

StartChar: uni023A
Encoding: 570 570 46
Width: 1265
GlyphClass: 2
Flags: W
AnchorPoint: "Anchor-4" 1222 0 basechar 0
AnchorPoint: "Anchor-1" 632 1490 basechar 0
AnchorPoint: "Anchor-0" 632 0 basechar 0
LayerCount: 2
Fore
SplineSet
958 1678 m 1,0,-1
 294 -190 l 1,1,-1
 244 -190 l 1,2,-1
 908 1678 l 1,3,-1
 958 1678 l 1,0,-1
43 0 m 1,4,-1
 601 1490 l 1,5,-1
 664 1490 l 1,6,-1
 1222 0 l 1,7,-1
 1173 0 l 1,8,-1
 740 1154 l 2,9,10
 710 1235 710 1235 680.5 1315 c 128,-1,11
 651 1395 651 1395 622 1475 c 1,12,-1
 640 1475 l 1,13,14
 612 1395 612 1395 582.5 1315 c 128,-1,15
 553 1235 553 1235 523 1154 c 2,16,-1
 92 0 l 1,17,-1
 43 0 l 1,4,-1
263 494 m 1,18,-1
 263 540 l 1,19,-1
 1002 540 l 1,20,-1
 1002 494 l 1,21,-1
 263 494 l 1,18,-1
EndSplineSet
Position2: "'cpsp' Capital Spacing in Latin lookup 0 subtable" dx=0 dy=0 dh=0 dv=0
EndChar

StartChar: Lambda
Encoding: 923 923 60
Width: 1265
GlyphClass: 2
Flags: W
AnchorPoint: "Anchor-1" 632 1490 basechar 0
AnchorPoint: "Anchor-0" 632 0 basechar 0
LayerCount: 2
Fore
SplineSet
43 0 m 1,0,-1
 601 1490 l 1,1,-1
 664 1490 l 1,2,-1
 1222 0 l 1,3,-1
 1173 0 l 1,4,-1
 740 1154 l 2,5,6
 710 1235 710 1235 680.5 1315 c 128,-1,7
 651 1395 651 1395 622 1475 c 1,8,-1
 640 1475 l 1,9,10
 612 1395 612 1395 582.5 1315 c 128,-1,11
 553 1235 553 1235 523 1154 c 2,12,-1
 92 0 l 1,13,-1
 43 0 l 1,0,-1
EndSplineSet
Position2: "'cpsp' Capital Spacing in Latin lookup 0 subtable" dx=0 dy=0 dh=0 dv=0
EndChar

StartChar: AE
Encoding: 198 198 61
Width: 1903
GlyphClass: 2
Flags: W
AnchorPoint: "Anchor-1" 1231 1490 basechar 0
LayerCount: 2
Fore
SplineSet
43 0 m 1,0,-1
 804 1490 l 1,1,-1
 1770 1490 l 1,2,-1
 1770 1444 l 1,3,-1
 1023 1444 l 1,4,-1
 1023 768 l 1,5,-1
 1728 768 l 1,6,-1
 1728 722 l 1,7,-1
 1023 722 l 1,8,-1
 1023 46 l 1,9,-1
 1791 46 l 1,10,-1
 1791 0 l 1,11,-1
 977 0 l 1,12,-1
 977 1445 l 1,13,-1
 832 1445 l 1,14,-1
 95 0 l 1,15,-1
 43 0 l 1,0,-1
334 504 m 1,16,-1
 334 550 l 1,17,-1
 1002 550 l 1,18,-1
 1002 504 l 1,19,-1
 334 504 l 1,16,-1
EndSplineSet
Position2: "'cpsp' Capital Spacing in Latin lookup 0 subtable" dx=0 dy=0 dh=0 dv=0
EndChar

StartChar: B
Encoding: 66 66 65
Width: 1274
GlyphClass: 2
Flags: W
AnchorPoint: "Anchor-1" 600 1485 basechar 0
AnchorPoint: "Anchor-0" 618 0 basechar 0
LayerCount: 2
Fore
SplineSet
200 0 m 1,0,-1
 200 1490 l 1,1,-1
 664 1490 l 2,2,3
 793 1490 793 1490 888 1444.5 c 128,-1,4
 983 1399 983 1399 1034.5 1314 c 128,-1,5
 1086 1229 1086 1229 1086 1113 c 0,6,7
 1086 1024 1086 1024 1054.5 951.5 c 128,-1,8
 1023 879 1023 879 968 829 c 128,-1,9
 913 779 913 779 841 760 c 1,10,-1
 841 756 l 1,11,12
 919 746 919 746 988.5 698.5 c 128,-1,13
 1058 651 1058 651 1101.5 572 c 128,-1,14
 1145 493 1145 493 1145 390 c 0,15,16
 1145 273 1145 273 1093 185.5 c 128,-1,17
 1041 98 1041 98 944.5 49 c 128,-1,18
 848 0 848 0 715 0 c 2,19,-1
 200 0 l 1,0,-1
246 46 m 1,20,-1
 714 46 l 2,21,22
 892 46 892 46 995.5 141.5 c 128,-1,23
 1099 237 1099 237 1099 389 c 0,24,25
 1099 494 1099 494 1046.5 572 c 128,-1,26
 994 650 994 650 907 692 c 128,-1,27
 820 734 820 734 714 734 c 2,28,-1
 246 734 l 1,29,-1
 246 46 l 1,20,-1
246 780 m 1,30,-1
 715 780 l 2,31,32
 816 780 816 780 889 826.5 c 128,-1,33
 962 873 962 873 1001 948.5 c 128,-1,34
 1040 1024 1040 1024 1040 1112 c 0,35,36
 1040 1271 1040 1271 937.5 1357.5 c 128,-1,37
 835 1444 835 1444 665 1444 c 2,38,-1
 246 1444 l 1,39,-1
 246 780 l 1,30,-1
EndSplineSet
Substitution2: "'ss06' Style Set 6 in Latin lookup 52 subtable" B.squared
Substitution2: "'ss05' Style Set 5 in Latin lookup 51 subtable" uni24B7
Position2: "'cpsp' Capital Spacing in Latin lookup 0 subtable" dx=0 dy=0 dh=0 dv=0
EndChar

StartChar: uni0181
Encoding: 385 385 70
Width: 1434
GlyphClass: 2
Flags: W
AnchorPoint: "Anchor-1" 760 1485 basechar 0
AnchorPoint: "Anchor-0" 778 0 basechar 0
LayerCount: 2
Fore
SplineSet
53 1118 m 1,0,-1
 53 1280 l 2,1,2
 53 1383 53 1383 104 1436.5 c 128,-1,3
 155 1490 155 1490 249 1490 c 2,4,-1
 359 1490 l 1,5,-1
 359 1445 l 1,6,-1
 254 1445 l 2,7,8
 174 1445 174 1445 136.5 1404.5 c 128,-1,9
 99 1364 99 1364 99 1280 c 2,10,-1
 99 1118 l 1,11,-1
 53 1118 l 1,0,-1
360 0 m 1,12,-1
 360 1490 l 1,13,-1
 824 1490 l 2,14,15
 953 1490 953 1490 1048 1444.5 c 128,-1,16
 1143 1399 1143 1399 1194.5 1314 c 128,-1,17
 1246 1229 1246 1229 1246 1113 c 0,18,19
 1246 1024 1246 1024 1214.5 951.5 c 128,-1,20
 1183 879 1183 879 1128 829 c 128,-1,21
 1073 779 1073 779 1001 760 c 1,22,-1
 1001 756 l 1,23,24
 1079 746 1079 746 1148.5 698.5 c 128,-1,25
 1218 651 1218 651 1261.5 572 c 128,-1,26
 1305 493 1305 493 1305 390 c 0,27,28
 1305 273 1305 273 1253 185.5 c 128,-1,29
 1201 98 1201 98 1104.5 49 c 128,-1,30
 1008 0 1008 0 875 0 c 2,31,-1
 360 0 l 1,12,-1
406 46 m 1,32,-1
 874 46 l 2,33,34
 1052 46 1052 46 1155.5 141.5 c 128,-1,35
 1259 237 1259 237 1259 389 c 0,36,37
 1259 494 1259 494 1206.5 572 c 128,-1,38
 1154 650 1154 650 1067 692 c 128,-1,39
 980 734 980 734 874 734 c 2,40,-1
 406 734 l 1,41,-1
 406 46 l 1,32,-1
406 780 m 1,42,-1
 875 780 l 2,43,44
 976 780 976 780 1049 826.5 c 128,-1,45
 1122 873 1122 873 1161 948.5 c 128,-1,46
 1200 1024 1200 1024 1200 1112 c 0,47,48
 1200 1271 1200 1271 1097.5 1357.5 c 128,-1,49
 995 1444 995 1444 825 1444 c 2,50,-1
 406 1444 l 1,51,-1
 406 780 l 1,42,-1
EndSplineSet
Position2: "'cpsp' Capital Spacing in Latin lookup 0 subtable" dx=0 dy=0 dh=0 dv=0
EndChar

StartChar: C
Encoding: 67 67 73
Width: 1417
GlyphClass: 2
Flags: W
AnchorPoint: "Anchor-3" 734 1 basechar 0
AnchorPoint: "Anchor-1" 735 1490 basechar 0
LayerCount: 2
Fore
SplineSet
734 -18 m 0,0,1
 552 -18 552 -18 412 77.5 c 128,-1,2
 272 173 272 173 194 344.5 c 128,-1,3
 116 516 116 516 116 744 c 0,4,5
 116 974 116 974 194.5 1145.5 c 128,-1,6
 273 1317 273 1317 412.5 1412.5 c 128,-1,7
 552 1508 552 1508 734 1508 c 0,8,9
 865 1508 865 1508 965.5 1463.5 c 128,-1,10
 1066 1419 1066 1419 1137 1346 c 128,-1,11
 1208 1273 1208 1273 1249 1189 c 128,-1,12
 1290 1105 1290 1105 1305 1025 c 1,13,-1
 1258 1025 l 1,14,15
 1243 1102 1243 1102 1202.5 1179 c 128,-1,16
 1162 1256 1162 1256 1097 1320 c 128,-1,17
 1032 1384 1032 1384 941 1423 c 128,-1,18
 850 1462 850 1462 734 1462 c 0,19,20
 582 1462 582 1462 452 1379.5 c 128,-1,21
 322 1297 322 1297 242.5 1137 c 128,-1,22
 163 977 163 977 163 744 c 256,23,24
 163 511 163 511 242 351 c 128,-1,25
 321 191 321 191 451 109.5 c 128,-1,26
 581 28 581 28 734 28 c 0,27,28
 850 28 850 28 940.5 67.5 c 128,-1,29
 1031 107 1031 107 1096.5 171.5 c 128,-1,30
 1162 236 1162 236 1202.5 313 c 128,-1,31
 1243 390 1243 390 1257 467 c 1,32,-1
 1305 467 l 1,33,34
 1290 388 1290 388 1248.5 303.5 c 128,-1,35
 1207 219 1207 219 1137 146 c 128,-1,36
 1067 73 1067 73 966.5 27.5 c 128,-1,37
 866 -18 866 -18 734 -18 c 0,0,1
EndSplineSet
Substitution2: "'ss06' Style Set 6 in Latin lookup 52 subtable" C.squared
Substitution2: "'ss05' Style Set 5 in Latin lookup 51 subtable" uni24B8
Position2: "'cpsp' Capital Spacing in Latin lookup 0 subtable" dx=0 dy=0 dh=0 dv=0
EndChar

StartChar: uni0187
Encoding: 391 391 74
Width: 1417
GlyphClass: 2
Flags: W
AnchorPoint: "Anchor-3" 734 1 basechar 0
AnchorPoint: "Anchor-1" 735 1490 basechar 0
LayerCount: 2
Fore
SplineSet
1259 1025 m 1,0,-1
 1259 1478 l 2,1,2
 1259 1580 1259 1580 1304.5 1628.5 c 128,-1,3
 1350 1677 1350 1677 1443 1677 c 0,4,5
 1456 1677 1456 1677 1476.5 1676.5 c 128,-1,6
 1497 1676 1497 1676 1514 1676 c 1,7,-1
 1514 1631 l 1,8,9
 1495 1631 1495 1631 1475.5 1631 c 128,-1,10
 1456 1631 1456 1631 1443 1631 c 0,11,12
 1371 1631 1371 1631 1338 1596 c 128,-1,13
 1305 1561 1305 1561 1305 1478 c 2,14,-1
 1305 1025 l 1,15,-1
 1259 1025 l 1,0,-1
734 -18 m 0,16,17
 552 -18 552 -18 412 77.5 c 128,-1,18
 272 173 272 173 194 344.5 c 128,-1,19
 116 516 116 516 116 744 c 0,20,21
 116 974 116 974 194.5 1145.5 c 128,-1,22
 273 1317 273 1317 412.5 1412.5 c 128,-1,23
 552 1508 552 1508 734 1508 c 0,24,25
 865 1508 865 1508 965.5 1463.5 c 128,-1,26
 1066 1419 1066 1419 1137 1346 c 128,-1,27
 1208 1273 1208 1273 1249 1189 c 128,-1,28
 1290 1105 1290 1105 1305 1025 c 1,29,-1
 1258 1025 l 1,30,31
 1243 1102 1243 1102 1202.5 1179 c 128,-1,32
 1162 1256 1162 1256 1097 1320 c 128,-1,33
 1032 1384 1032 1384 941 1423 c 128,-1,34
 850 1462 850 1462 734 1462 c 0,35,36
 582 1462 582 1462 452 1379.5 c 128,-1,37
 322 1297 322 1297 242.5 1137 c 128,-1,38
 163 977 163 977 163 744 c 256,39,40
 163 511 163 511 242 351 c 128,-1,41
 321 191 321 191 451 109.5 c 128,-1,42
 581 28 581 28 734 28 c 0,43,44
 850 28 850 28 940.5 67.5 c 128,-1,45
 1031 107 1031 107 1096.5 171.5 c 128,-1,46
 1162 236 1162 236 1202.5 313 c 128,-1,47
 1243 390 1243 390 1257 467 c 1,48,-1
 1305 467 l 1,49,50
 1290 388 1290 388 1248.5 303.5 c 128,-1,51
 1207 219 1207 219 1137 146 c 128,-1,52
 1067 73 1067 73 966.5 27.5 c 128,-1,53
 866 -18 866 -18 734 -18 c 0,16,17
EndSplineSet
Position2: "'cpsp' Capital Spacing in Latin lookup 0 subtable" dx=0 dy=0 dh=0 dv=0
EndChar

StartChar: uni023B
Encoding: 571 571 81
Width: 1417
GlyphClass: 2
Flags: W
AnchorPoint: "Anchor-3" 734 1 basechar 0
AnchorPoint: "Anchor-1" 735 1490 basechar 0
LayerCount: 2
Fore
SplineSet
334 -190 m 1,0,-1
 1058 1678 l 1,1,-1
 1108 1678 l 1,2,-1
 384 -190 l 1,3,-1
 334 -190 l 1,0,-1
734 -18 m 0,4,5
 552 -18 552 -18 412 77.5 c 128,-1,6
 272 173 272 173 194 344.5 c 128,-1,7
 116 516 116 516 116 744 c 0,8,9
 116 974 116 974 194.5 1145.5 c 128,-1,10
 273 1317 273 1317 412.5 1412.5 c 128,-1,11
 552 1508 552 1508 734 1508 c 0,12,13
 865 1508 865 1508 965.5 1463.5 c 128,-1,14
 1066 1419 1066 1419 1137 1346 c 128,-1,15
 1208 1273 1208 1273 1249 1189 c 128,-1,16
 1290 1105 1290 1105 1305 1025 c 1,17,-1
 1258 1025 l 1,18,19
 1243 1102 1243 1102 1202.5 1179 c 128,-1,20
 1162 1256 1162 1256 1097 1320 c 128,-1,21
 1032 1384 1032 1384 941 1423 c 128,-1,22
 850 1462 850 1462 734 1462 c 0,23,24
 582 1462 582 1462 452 1379.5 c 128,-1,25
 322 1297 322 1297 242.5 1137 c 128,-1,26
 163 977 163 977 163 744 c 256,27,28
 163 511 163 511 242 351 c 128,-1,29
 321 191 321 191 451 109.5 c 128,-1,30
 581 28 581 28 734 28 c 0,31,32
 850 28 850 28 940.5 67.5 c 128,-1,33
 1031 107 1031 107 1096.5 171.5 c 128,-1,34
 1162 236 1162 236 1202.5 313 c 128,-1,35
 1243 390 1243 390 1257 467 c 1,36,-1
 1305 467 l 1,37,38
 1290 388 1290 388 1248.5 303.5 c 128,-1,39
 1207 219 1207 219 1137 146 c 128,-1,40
 1067 73 1067 73 966.5 27.5 c 128,-1,41
 866 -18 866 -18 734 -18 c 0,4,5
EndSplineSet
Ligature2: "'ccmp' Glyph Composition/Decomposition in Latin lookup 6 subtable" C uni0338
Position2: "'cpsp' Capital Spacing in Latin lookup 0 subtable" dx=0 dy=0 dh=0 dv=0
EndChar

StartChar: uni0186
Encoding: 390 390 82
Width: 1417
GlyphClass: 2
Flags: W
AnchorPoint: "Anchor-3" 683 1491 basechar 0
AnchorPoint: "Anchor-1" 682 0 basechar 0
LayerCount: 2
Fore
SplineSet
683 1508 m 0,0,1
 866 1508 866 1508 1005.5 1412.5 c 128,-1,2
 1145 1317 1145 1317 1223 1145.5 c 128,-1,3
 1301 974 1301 974 1301 746 c 0,4,5
 1301 519 1301 519 1222.5 347 c 128,-1,6
 1144 175 1144 175 1005.5 78.5 c 128,-1,7
 867 -18 867 -18 683 -18 c 0,8,9
 552 -18 552 -18 451.5 27 c 128,-1,10
 351 72 351 72 280 145 c 128,-1,11
 209 218 209 218 168 303 c 128,-1,12
 127 388 127 388 112 467 c 1,13,-1
 159 467 l 1,14,15
 174 390 174 390 214.5 312.5 c 128,-1,16
 255 235 255 235 320 171 c 128,-1,17
 385 107 385 107 476 67.5 c 128,-1,18
 567 28 567 28 683 28 c 0,19,20
 835 28 835 28 965.5 111.5 c 128,-1,21
 1096 195 1096 195 1175 355.5 c 128,-1,22
 1254 516 1254 516 1254 746 c 0,23,24
 1254 980 1254 980 1175.5 1140 c 128,-1,25
 1097 1300 1097 1300 966 1381 c 128,-1,26
 835 1462 835 1462 683 1462 c 0,27,28
 568 1462 568 1462 477 1423 c 128,-1,29
 386 1384 386 1384 320.5 1319.5 c 128,-1,30
 255 1255 255 1255 214.5 1177.5 c 128,-1,31
 174 1100 174 1100 160 1025 c 1,32,-1
 112 1025 l 1,33,34
 126 1104 126 1104 168 1188.5 c 128,-1,35
 210 1273 210 1273 280 1345.5 c 128,-1,36
 350 1418 350 1418 450.5 1463 c 128,-1,37
 551 1508 551 1508 683 1508 c 0,0,1
EndSplineSet
Position2: "'cpsp' Capital Spacing in Latin lookup 0 subtable" dx=0 dy=0 dh=0 dv=0
EndChar

StartChar: D
Encoding: 68 68 84
Width: 1398
GlyphClass: 2
Flags: W
AnchorPoint: "Anchor-1" 601 1490 basechar 0
AnchorPoint: "Anchor-0" 558 0 basechar 0
LayerCount: 2
Fore
SplineSet
591 0 m 2,0,-1
 225 0 l 1,1,-1
 225 46 l 1,2,-1
 591 46 l 2,3,4
 797 46 797 46 942 130.5 c 128,-1,5
 1087 215 1087 215 1161.5 373 c 128,-1,6
 1236 531 1236 531 1236 750 c 256,7,8
 1236 969 1236 969 1164.5 1124 c 128,-1,9
 1093 1279 1093 1279 957.5 1361.5 c 128,-1,10
 822 1444 822 1444 629 1444 c 2,11,-1
 225 1444 l 1,12,-1
 225 1490 l 1,13,-1
 628 1490 l 2,14,15
 835 1490 835 1490 980.5 1401.5 c 128,-1,16
 1126 1313 1126 1313 1204 1147.5 c 128,-1,17
 1282 982 1282 982 1282 750 c 0,18,19
 1282 513 1282 513 1200.5 345 c 128,-1,20
 1119 177 1119 177 964 88.5 c 128,-1,21
 809 0 809 0 591 0 c 2,0,-1
246 1490 m 1,22,-1
 246 0 l 1,23,-1
 200 0 l 1,24,-1
 200 1490 l 1,25,-1
 246 1490 l 1,22,-1
EndSplineSet
Substitution2: "'ss06' Style Set 6 in Latin lookup 52 subtable" D.squared
Substitution2: "'ss05' Style Set 5 in Latin lookup 51 subtable" uni24B9
Position2: "'cpsp' Capital Spacing in Latin lookup 0 subtable" dx=0 dy=0 dh=0 dv=0
EndChar

StartChar: uni018A
Encoding: 394 394 85
Width: 1558
GlyphClass: 2
Flags: W
AnchorPoint: "Anchor-1" 761 1490 basechar 0
AnchorPoint: "Anchor-0" 718 0 basechar 0
LayerCount: 2
Fore
SplineSet
54 1118 m 1,0,-1
 54 1280 l 2,1,2
 54 1383 54 1383 105 1436.5 c 128,-1,3
 156 1490 156 1490 250 1490 c 2,4,-1
 360 1490 l 1,5,-1
 360 1445 l 1,6,-1
 255 1445 l 2,7,8
 175 1445 175 1445 137.5 1404.5 c 128,-1,9
 100 1364 100 1364 100 1280 c 2,10,-1
 100 1118 l 1,11,-1
 54 1118 l 1,0,-1
751 0 m 2,12,-1
 385 0 l 1,13,-1
 385 46 l 1,14,-1
 751 46 l 2,15,16
 957 46 957 46 1102 130.5 c 128,-1,17
 1247 215 1247 215 1321.5 373 c 128,-1,18
 1396 531 1396 531 1396 750 c 256,19,20
 1396 969 1396 969 1324.5 1124 c 128,-1,21
 1253 1279 1253 1279 1118 1361.5 c 128,-1,22
 983 1444 983 1444 789 1444 c 2,23,-1
 385 1444 l 1,24,-1
 385 1490 l 1,25,-1
 788 1490 l 2,26,27
 995 1490 995 1490 1141 1401.5 c 128,-1,28
 1287 1313 1287 1313 1364.5 1147.5 c 128,-1,29
 1442 982 1442 982 1442 750 c 0,30,31
 1442 513 1442 513 1360.5 345 c 128,-1,32
 1279 177 1279 177 1124.5 88.5 c 128,-1,33
 970 0 970 0 751 0 c 2,12,-1
406 1490 m 1,34,-1
 406 0 l 1,35,-1
 360 0 l 1,36,-1
 360 1490 l 1,37,-1
 406 1490 l 1,34,-1
EndSplineSet
Position2: "'cpsp' Capital Spacing in Latin lookup 0 subtable" dx=0 dy=0 dh=0 dv=0
EndChar

StartChar: E
Encoding: 69 69 95
Width: 1171
GlyphClass: 2
Flags: W
AnchorPoint: "Anchor-4" 1059 0 basechar 0
AnchorPoint: "Anchor-3" 628 0 basechar 0
AnchorPoint: "Anchor-1" 630 1490 basechar 0
AnchorPoint: "Anchor-0" 630 0 basechar 0
LayerCount: 2
Fore
SplineSet
200 0 m 1,0,-1
 200 1490 l 1,1,-1
 1049 1490 l 1,2,-1
 1049 1444 l 1,3,-1
 246 1444 l 1,4,-1
 246 777 l 1,5,-1
 989 777 l 1,6,-1
 989 731 l 1,7,-1
 246 731 l 1,8,-1
 246 46 l 1,9,-1
 1059 46 l 1,10,-1
 1059 0 l 1,11,-1
 200 0 l 1,0,-1
EndSplineSet
Substitution2: "'ss06' Style Set 6 in Latin lookup 52 subtable" E.squared
Substitution2: "'ss05' Style Set 5 in Latin lookup 51 subtable" uni24BA
Position2: "'cpsp' Capital Spacing in Latin lookup 0 subtable" dx=0 dy=0 dh=0 dv=0
EndChar

StartChar: uni0246
Encoding: 582 582 121
Width: 1171
GlyphClass: 2
Flags: W
AnchorPoint: "Anchor-4" 1059 0 basechar 0
AnchorPoint: "Anchor-3" 628 0 basechar 0
AnchorPoint: "Anchor-1" 630 1490 basechar 0
AnchorPoint: "Anchor-0" 630 0 basechar 0
LayerCount: 2
Fore
SplineSet
334 -190 m 1,0,-1
 872 1678 l 1,1,-1
 916 1678 l 1,2,-1
 376 -190 l 1,3,-1
 334 -190 l 1,0,-1
200 0 m 1,4,-1
 200 1490 l 1,5,-1
 1049 1490 l 1,6,-1
 1049 1444 l 1,7,-1
 246 1444 l 1,8,-1
 246 777 l 1,9,-1
 989 777 l 1,10,-1
 989 731 l 1,11,-1
 246 731 l 1,12,-1
 246 46 l 1,13,-1
 1059 46 l 1,14,-1
 1059 0 l 1,15,-1
 200 0 l 1,4,-1
EndSplineSet
Position2: "'cpsp' Capital Spacing in Latin lookup 0 subtable" dx=0 dy=0 dh=0 dv=0
EndChar

StartChar: Eturn
Encoding: 398 398 122
Width: 1171
GlyphClass: 2
Flags: W
AnchorPoint: "Anchor-4" 112 1490 basechar 0
AnchorPoint: "Anchor-3" 602 0 basechar 0
AnchorPoint: "Anchor-1" 634 1490 basechar 0
AnchorPoint: "Anchor-0" 600 0 basechar 0
LayerCount: 2
Fore
SplineSet
971 1490 m 1,0,-1
 971 0 l 1,1,-1
 123 0 l 1,2,-1
 123 46 l 1,3,-1
 925 46 l 1,4,-1
 925 715 l 1,5,-1
 182 715 l 1,6,-1
 182 761 l 1,7,-1
 925 761 l 1,8,-1
 925 1444 l 1,9,-1
 112 1444 l 1,10,-1
 112 1490 l 1,11,-1
 971 1490 l 1,0,-1
EndSplineSet
Position2: "'cpsp' Capital Spacing in Latin lookup 0 subtable" dx=0 dy=0 dh=0 dv=0
EndChar

StartChar: F
Encoding: 70 70 137
Width: 1143
GlyphClass: 2
Flags: W
AnchorPoint: "Anchor-1" 616 1490 basechar 0
AnchorPoint: "Anchor-0" 224 0 basechar 0
LayerCount: 2
Fore
SplineSet
200 0 m 1,0,-1
 200 1490 l 1,1,-1
 1030 1490 l 1,2,-1
 1030 1444 l 1,3,-1
 246 1444 l 1,4,-1
 246 777 l 1,5,-1
 948 777 l 1,6,-1
 948 731 l 1,7,-1
 246 731 l 1,8,-1
 246 0 l 1,9,-1
 200 0 l 1,0,-1
EndSplineSet
Substitution2: "'ss06' Style Set 6 in Latin lookup 52 subtable" F.squared
Substitution2: "'ss05' Style Set 5 in Latin lookup 51 subtable" uni24BB
Position2: "'cpsp' Capital Spacing in Latin lookup 0 subtable" dx=0 dy=0 dh=0 dv=0
EndChar

StartChar: uni0191
Encoding: 401 401 138
Width: 1143
GlyphClass: 2
Flags: W
AnchorPoint: "Anchor-1" 616 1490 basechar 0
AnchorPoint: "Anchor-0" 224 0 basechar 0
LayerCount: 2
Fore
SplineSet
-9 -418 m 1,0,-1
 -9 -371 l 1,1,2
 9 -372 9 -372 29 -372 c 128,-1,3
 49 -372 49 -372 62 -372 c 0,4,5
 135 -372 135 -372 167.5 -337 c 128,-1,6
 200 -302 200 -302 200 -219 c 2,7,-1
 200 128 l 1,8,-1
 246 128 l 1,9,-1
 246 -219 l 2,10,11
 246 -322 246 -322 200.5 -369.5 c 128,-1,12
 155 -417 155 -417 63 -417 c 0,13,14
 50 -417 50 -417 29 -417.5 c 128,-1,15
 8 -418 8 -418 -9 -418 c 1,0,-1
200 0 m 1,16,-1
 200 1490 l 1,17,-1
 1030 1490 l 1,18,-1
 1030 1444 l 1,19,-1
 246 1444 l 1,20,-1
 246 777 l 1,21,-1
 948 777 l 1,22,-1
 948 731 l 1,23,-1
 246 731 l 1,24,-1
 246 0 l 1,25,-1
 200 0 l 1,16,-1
EndSplineSet
Position2: "'cpsp' Capital Spacing in Latin lookup 0 subtable" dx=0 dy=0 dh=0 dv=0
EndChar

StartChar: Fturn
Encoding: 8498 8498 140
Width: 1143
GlyphClass: 2
Flags: W
AnchorPoint: "Anchor-1" 942 1490 basechar 0
AnchorPoint: "Anchor-0" 566 0 basechar 0
LayerCount: 2
Fore
SplineSet
943 1490 m 1,0,-1
 943 0 l 1,1,-1
 113 0 l 1,2,-1
 113 46 l 1,3,-1
 897 46 l 1,4,-1
 897 715 l 1,5,-1
 195 715 l 1,6,-1
 195 761 l 1,7,-1
 897 761 l 1,8,-1
 897 1490 l 1,9,-1
 943 1490 l 1,0,-1
EndSplineSet
Position2: "'cpsp' Capital Spacing in Latin lookup 0 subtable" dx=0 dy=0 dh=0 dv=0
EndChar

StartChar: G
Encoding: 1114113 -1 141
Width: 1448
GlyphClass: 2
Flags: W
AnchorPoint: "Anchor-1" 725 1490 basechar 0
AnchorPoint: "Anchor-0" 725 0 basechar 0
LayerCount: 2
Fore
SplineSet
738 -18 m 0,0,1
 551 -18 551 -18 410.5 78 c 128,-1,2
 270 174 270 174 193 346 c 128,-1,3
 116 518 116 518 116 744 c 0,4,5
 116 975 116 975 194 1146.5 c 128,-1,6
 272 1318 272 1318 411 1413 c 128,-1,7
 550 1508 550 1508 734 1508 c 0,8,9
 865 1508 865 1508 965 1463.5 c 128,-1,10
 1065 1419 1065 1419 1136 1346.5 c 128,-1,11
 1207 1274 1207 1274 1249.5 1189.5 c 128,-1,12
 1292 1105 1292 1105 1304 1025 c 1,13,-1
 1257 1025 l 1,14,15
 1244 1100 1244 1100 1204 1177.5 c 128,-1,16
 1164 1255 1164 1255 1097 1319.5 c 128,-1,17
 1030 1384 1030 1384 939 1423 c 128,-1,18
 848 1462 848 1462 735 1462 c 0,19,20
 564 1462 564 1462 435 1372.5 c 128,-1,21
 306 1283 306 1283 234.5 1121.5 c 128,-1,22
 163 960 163 960 163 744 c 0,23,24
 163 533 163 533 233.5 371.5 c 128,-1,25
 304 210 304 210 433.5 119 c 128,-1,26
 563 28 563 28 738 28 c 0,27,28
 902 28 902 28 1020.5 102.5 c 128,-1,29
 1139 177 1139 177 1203.5 313 c 128,-1,30
 1268 449 1268 449 1268 636 c 1,31,-1
 1289 626 l 1,32,-1
 752 626 l 1,33,-1
 752 672 l 1,34,-1
 1314 672 l 1,35,-1
 1314 628 l 2,36,37
 1314 433 1314 433 1243 287.5 c 128,-1,38
 1172 142 1172 142 1042 62 c 128,-1,39
 912 -18 912 -18 738 -18 c 0,0,1
EndSplineSet
Substitution2: "'c2sc' Capitals to Small Capitals in Latin lookup 68 subtable" g.sc
Substitution2: "'cv10' Character Variants 10 in Latin lookup 64 subtable" G.1
Substitution2: "'ss06' Style Set 6 in Latin lookup 52 subtable" G.squared
Substitution2: "'ss05' Style Set 5 in Latin lookup 51 subtable" uni24BC
Substitution2: "'salt' Stylistic Alternatives in Latin lookup 46 subtable" G.1
Substitution2: "'aalt' Access All Alternates in Latin lookup 0 subtable" g.sc
Position2: "'cpsp' Capital Spacing in Latin lookup 0 subtable" dx=0 dy=0 dh=0 dv=0
EndChar

StartChar: uni0193
Encoding: 1114115 -1 143
Width: 1448
GlyphClass: 2
Flags: W
AnchorPoint: "Anchor-1" 725 1490 basechar 0
AnchorPoint: "Anchor-0" 725 0 basechar 0
LayerCount: 2
Fore
SplineSet
1258 1025 m 1,0,-1
 1258 1479 l 2,1,2
 1258 1581 1258 1581 1304.5 1628.5 c 128,-1,3
 1351 1676 1351 1676 1442 1676 c 0,4,5
 1457 1676 1457 1676 1477.5 1676.5 c 128,-1,6
 1498 1677 1498 1677 1515 1677 c 1,7,-1
 1515 1630 l 1,8,9
 1496 1630 1496 1630 1475.5 1630 c 128,-1,10
 1455 1630 1455 1630 1442 1630 c 0,11,12
 1370 1630 1370 1630 1337 1595 c 128,-1,13
 1304 1560 1304 1560 1304 1479 c 2,14,-1
 1304 1025 l 1,15,-1
 1258 1025 l 1,0,-1
738 -18 m 0,16,17
 551 -18 551 -18 410.5 78 c 128,-1,18
 270 174 270 174 193 346 c 128,-1,19
 116 518 116 518 116 744 c 0,20,21
 116 975 116 975 194 1146.5 c 128,-1,22
 272 1318 272 1318 411 1413 c 128,-1,23
 550 1508 550 1508 734 1508 c 0,24,25
 865 1508 865 1508 965 1463.5 c 128,-1,26
 1065 1419 1065 1419 1136 1346.5 c 128,-1,27
 1207 1274 1207 1274 1249.5 1189.5 c 128,-1,28
 1292 1105 1292 1105 1304 1025 c 1,29,-1
 1257 1025 l 1,30,31
 1244 1100 1244 1100 1204 1177.5 c 128,-1,32
 1164 1255 1164 1255 1097 1319.5 c 128,-1,33
 1030 1384 1030 1384 939 1423 c 128,-1,34
 848 1462 848 1462 735 1462 c 0,35,36
 564 1462 564 1462 435 1372.5 c 128,-1,37
 306 1283 306 1283 234.5 1121.5 c 128,-1,38
 163 960 163 960 163 744 c 0,39,40
 163 533 163 533 233.5 371.5 c 128,-1,41
 304 210 304 210 433.5 119 c 128,-1,42
 563 28 563 28 738 28 c 0,43,44
 902 28 902 28 1020.5 102.5 c 128,-1,45
 1139 177 1139 177 1203.5 313 c 128,-1,46
 1268 449 1268 449 1268 636 c 1,47,-1
 1289 626 l 1,48,-1
 752 626 l 1,49,-1
 752 672 l 1,50,-1
 1314 672 l 1,51,-1
 1314 628 l 2,52,53
 1314 433 1314 433 1243 287.5 c 128,-1,54
 1172 142 1172 142 1042 62 c 128,-1,55
 912 -18 912 -18 738 -18 c 0,16,17
EndSplineSet
Substitution2: "'c2sc' Capitals to Small Capitals in Latin lookup 68 subtable" uni0260.sc
Substitution2: "'cv10' Character Variants 10 in Latin lookup 64 subtable" uni0193.1
Substitution2: "'salt' Stylistic Alternatives in Latin lookup 46 subtable" uni0193.1
Substitution2: "'aalt' Access All Alternates in Latin lookup 0 subtable" uni0260.sc
Position2: "'cpsp' Capital Spacing in Latin lookup 0 subtable" dx=0 dy=0 dh=0 dv=0
EndChar

StartChar: G.1
Encoding: 57346 57346 151
AltUni2: 000047.ffffffff.0
Width: 1480
GlyphClass: 2
Flags: W
AnchorPoint: "Anchor-1" 725 1490 basechar 0
AnchorPoint: "Anchor-0" 725 0 basechar 0
LayerCount: 2
Fore
SplineSet
739 -18 m 0,0,1
 550 -18 550 -18 410 78 c 128,-1,2
 270 174 270 174 193 346 c 128,-1,3
 116 518 116 518 116 744 c 0,4,5
 116 975 116 975 194 1146.5 c 128,-1,6
 272 1318 272 1318 411 1413 c 128,-1,7
 550 1508 550 1508 734 1508 c 0,8,9
 865 1508 865 1508 965 1463.5 c 128,-1,10
 1065 1419 1065 1419 1136 1346.5 c 128,-1,11
 1207 1274 1207 1274 1249.5 1189.5 c 128,-1,12
 1292 1105 1292 1105 1304 1025 c 1,13,-1
 1257 1025 l 1,14,15
 1244 1100 1244 1100 1204 1177.5 c 128,-1,16
 1164 1255 1164 1255 1097 1319.5 c 128,-1,17
 1030 1384 1030 1384 939 1423 c 128,-1,18
 848 1462 848 1462 735 1462 c 0,19,20
 564 1462 564 1462 435 1372.5 c 128,-1,21
 306 1283 306 1283 234.5 1121.5 c 128,-1,22
 163 960 163 960 163 744 c 0,23,24
 163 533 163 533 233.5 371.5 c 128,-1,25
 304 210 304 210 433.5 119 c 128,-1,26
 563 28 563 28 738 28 c 0,27,28
 902 28 902 28 1021 102.5 c 128,-1,29
 1140 177 1140 177 1206 313 c 128,-1,30
 1272 449 1272 449 1272 637 c 1,31,-1
 1306 637 l 1,32,-1
 1306 628 l 2,33,34
 1306 482 1306 482 1267 363 c 128,-1,35
 1228 244 1228 244 1153.5 159 c 128,-1,36
 1079 74 1079 74 974.5 28 c 128,-1,37
 870 -18 870 -18 739 -18 c 0,0,1
1276 0 m 1,38,-1
 1271 454 l 1,39,-1
 1281 626 l 1,40,-1
 753 626 l 1,41,-1
 753 672 l 1,42,-1
 1315 672 l 1,43,-1
 1315 0 l 1,44,-1
 1276 0 l 1,38,-1
EndSplineSet
Substitution2: "'ss06' Style Set 6 in Latin lookup 52 subtable" G.1.squared
EndChar

StartChar: uni0193.1
Encoding: 57348 57348 153
AltUni2: 000193.ffffffff.0
Width: 1480
GlyphClass: 2
Flags: W
AnchorPoint: "Anchor-1" 725 1490 basechar 0
AnchorPoint: "Anchor-0" 725 0 basechar 0
LayerCount: 2
Fore
SplineSet
1258 1025 m 1,0,-1
 1258 1479 l 2,1,2
 1258 1581 1258 1581 1304.5 1628.5 c 128,-1,3
 1351 1676 1351 1676 1442 1676 c 0,4,5
 1457 1676 1457 1676 1477.5 1676.5 c 128,-1,6
 1498 1677 1498 1677 1515 1677 c 1,7,-1
 1515 1630 l 1,8,9
 1496 1630 1496 1630 1475.5 1630 c 128,-1,10
 1455 1630 1455 1630 1442 1630 c 0,11,12
 1370 1630 1370 1630 1337 1595 c 128,-1,13
 1304 1560 1304 1560 1304 1479 c 2,14,-1
 1304 1025 l 1,15,-1
 1258 1025 l 1,0,-1
739 -18 m 0,16,17
 550 -18 550 -18 410 78 c 128,-1,18
 270 174 270 174 193 346 c 128,-1,19
 116 518 116 518 116 744 c 0,20,21
 116 975 116 975 194 1146.5 c 128,-1,22
 272 1318 272 1318 411 1413 c 128,-1,23
 550 1508 550 1508 734 1508 c 0,24,25
 865 1508 865 1508 965 1463.5 c 128,-1,26
 1065 1419 1065 1419 1136 1346.5 c 128,-1,27
 1207 1274 1207 1274 1249.5 1189.5 c 128,-1,28
 1292 1105 1292 1105 1304 1025 c 1,29,-1
 1257 1025 l 1,30,31
 1244 1100 1244 1100 1204 1177.5 c 128,-1,32
 1164 1255 1164 1255 1097 1319.5 c 128,-1,33
 1030 1384 1030 1384 939 1423 c 128,-1,34
 848 1462 848 1462 735 1462 c 0,35,36
 564 1462 564 1462 435 1372.5 c 128,-1,37
 306 1283 306 1283 234.5 1121.5 c 128,-1,38
 163 960 163 960 163 744 c 0,39,40
 163 533 163 533 233.5 371.5 c 128,-1,41
 304 210 304 210 433.5 119 c 128,-1,42
 563 28 563 28 738 28 c 0,43,44
 902 28 902 28 1021 102.5 c 128,-1,45
 1140 177 1140 177 1206 313 c 128,-1,46
 1272 449 1272 449 1272 637 c 1,47,-1
 1306 637 l 1,48,-1
 1306 628 l 2,49,50
 1306 482 1306 482 1267 363 c 128,-1,51
 1228 244 1228 244 1153.5 159 c 128,-1,52
 1079 74 1079 74 974.5 28 c 128,-1,53
 870 -18 870 -18 739 -18 c 0,16,17
1276 0 m 1,54,-1
 1271 454 l 1,55,-1
 1281 626 l 1,56,-1
 753 626 l 1,57,-1
 753 672 l 1,58,-1
 1315 672 l 1,59,-1
 1315 0 l 1,60,-1
 1276 0 l 1,54,-1
EndSplineSet
EndChar

StartChar: H
Encoding: 72 72 161
Width: 1440
GlyphClass: 2
Flags: W
AnchorPoint: "Anchor-3" 223 1 basechar 0
AnchorPoint: "Anchor-1" 721 1490 basechar 0
AnchorPoint: "Anchor-0" 721 0 basechar 0
LayerCount: 2
Fore
SplineSet
200 0 m 1,0,-1
 200 1490 l 1,1,-1
 246 1490 l 1,2,-1
 246 785 l 1,3,-1
 1194 785 l 1,4,-1
 1194 1490 l 1,5,-1
 1240 1490 l 1,6,-1
 1240 0 l 1,7,-1
 1194 0 l 1,8,-1
 1194 739 l 1,9,-1
 246 739 l 1,10,-1
 246 0 l 1,11,-1
 200 0 l 1,0,-1
EndSplineSet
Substitution2: "'c2sc' Capitals to Small Capitals in Latin lookup 68 subtable" h.sc
Substitution2: "'ss06' Style Set 6 in Latin lookup 52 subtable" H.squared
Substitution2: "'ss05' Style Set 5 in Latin lookup 51 subtable" uni24BD
Substitution2: "'aalt' Access All Alternates in Latin lookup 0 subtable" h.sc
Position2: "'cpsp' Capital Spacing in Latin lookup 0 subtable" dx=0 dy=0 dh=0 dv=0
EndChar

StartChar: Hbar
Encoding: 294 294 169
Width: 1462
GlyphClass: 2
Flags: W
AnchorPoint: "Anchor-3" 235 1 basechar 0
AnchorPoint: "Anchor-1" 733 1490 basechar 0
AnchorPoint: "Anchor-0" 733 0 basechar 0
LayerCount: 2
Fore
SplineSet
1368 1080 m 1,0,-1
 1368 1032 l 1,1,-1
 94 1032 l 1,2,-1
 94 1080 l 1,3,-1
 1368 1080 l 1,0,-1
212 0 m 1,4,-1
 212 1490 l 1,5,-1
 258 1490 l 1,6,-1
 258 785 l 1,7,-1
 1206 785 l 1,8,-1
 1206 1490 l 1,9,-1
 1252 1490 l 1,10,-1
 1252 0 l 1,11,-1
 1206 0 l 1,12,-1
 1206 739 l 1,13,-1
 258 739 l 1,14,-1
 258 0 l 1,15,-1
 212 0 l 1,4,-1
EndSplineSet
Position2: "'cpsp' Capital Spacing in Latin lookup 0 subtable" dx=0 dy=0 dh=0 dv=0
EndChar

StartChar: uni04C7
Encoding: 1223 1223 170
Width: 1440
GlyphClass: 2
Flags: W
AnchorPoint: "Anchor-3" 223 1 basechar 0
AnchorPoint: "Anchor-1" 721 1490 basechar 0
AnchorPoint: "Anchor-0" 721 0 basechar 0
LayerCount: 2
Fore
SplineSet
985 -418 m 1,0,-1
 985 -371 l 1,1,2
 1003 -372 1003 -372 1023 -372 c 128,-1,3
 1043 -372 1043 -372 1056 -372 c 0,4,5
 1129 -372 1129 -372 1161.5 -337 c 128,-1,6
 1194 -302 1194 -302 1194 -219 c 2,7,-1
 1194 128 l 1,8,-1
 1240 128 l 1,9,-1
 1240 -219 l 2,10,11
 1240 -322 1240 -322 1194.5 -369.5 c 128,-1,12
 1149 -417 1149 -417 1057 -417 c 0,13,14
 1044 -417 1044 -417 1023 -417.5 c 128,-1,15
 1002 -418 1002 -418 985 -418 c 1,0,-1
200 0 m 1,16,-1
 200 1490 l 1,17,-1
 246 1490 l 1,18,-1
 246 785 l 1,19,-1
 1194 785 l 1,20,-1
 1194 1490 l 1,21,-1
 1240 1490 l 1,22,-1
 1240 0 l 1,23,-1
 1194 0 l 1,24,-1
 1194 739 l 1,25,-1
 246 739 l 1,26,-1
 246 0 l 1,27,-1
 200 0 l 1,16,-1
EndSplineSet
Position2: "'cpsp' Capital Spacing in Latin lookup 0 subtable" dx=0 dy=0 dh=0 dv=0
EndChar

StartChar: uni04A4
Encoding: 1188 1188 173
Width: 1916
GlyphClass: 2
Flags: W
AnchorPoint: "Anchor-3" 223 1 basechar 0
AnchorPoint: "Anchor-1" 721 1490 basechar 0
AnchorPoint: "Anchor-0" 721 0 basechar 0
LayerCount: 2
Fore
SplineSet
1822 1490 m 1,0,-1
 1822 1442 l 1,1,-1
 1198 1442 l 1,2,-1
 1198 1490 l 1,3,-1
 1822 1490 l 1,0,-1
200 0 m 1,4,-1
 200 1490 l 1,5,-1
 246 1490 l 1,6,-1
 246 785 l 1,7,-1
 1194 785 l 1,8,-1
 1194 1490 l 1,9,-1
 1240 1490 l 1,10,-1
 1240 0 l 1,11,-1
 1194 0 l 1,12,-1
 1194 739 l 1,13,-1
 246 739 l 1,14,-1
 246 0 l 1,15,-1
 200 0 l 1,4,-1
EndSplineSet
Position2: "'cpsp' Capital Spacing in Latin lookup 0 subtable" dx=0 dy=0 dh=0 dv=0
EndChar

StartChar: uni01F6
Encoding: 502 502 174
Width: 2183
Flags: W
LayerCount: 2
Fore
SplineSet
1609 -20 m 0,0,1
 1489 -19 1489 -19 1395.5 29.5 c 128,-1,2
 1302 78 1302 78 1248.5 173 c 128,-1,3
 1195 268 1195 268 1195 405 c 2,4,-1
 1195 731 l 1,5,-1
 247 731 l 1,6,-1
 247 0 l 1,7,-1
 200 0 l 1,8,-1
 200 1490 l 1,9,-1
 247 1490 l 1,10,-1
 247 777 l 1,11,-1
 1195 777 l 1,12,-1
 1195 1490 l 1,13,-1
 1241 1490 l 1,14,-1
 1241 405 l 2,15,16
 1241 285 1241 285 1286.5 200 c 128,-1,17
 1332 115 1332 115 1415 71.5 c 128,-1,18
 1498 28 1498 28 1609 28 c 0,19,20
 1722 28 1722 28 1803 71.5 c 128,-1,21
 1884 115 1884 115 1927 200 c 128,-1,22
 1970 285 1970 285 1970 405 c 2,23,-1
 1970 1101 l 1,24,-1
 2017 1101 l 1,25,-1
 2017 405 l 2,26,27
 2017 264 2017 264 1964 169.5 c 128,-1,28
 1911 75 1911 75 1819.5 28 c 128,-1,29
 1728 -19 1728 -19 1609 -20 c 0,0,1
EndSplineSet
Position2: "'cpsp' Capital Spacing in Latin lookup 0 subtable" dx=0 dy=0 dh=0 dv=0
EndChar

StartChar: I
Encoding: 73 73 197
Width: 446
GlyphClass: 2
Flags: W
AnchorPoint: "Anchor-4" 246 0 basechar 0
AnchorPoint: "Anchor-1" 224 1490 basechar 0
AnchorPoint: "Anchor-0" 224 0 basechar 0
LayerCount: 2
Fore
SplineSet
246 1490 m 1,0,-1
 246 0 l 1,1,-1
 200 0 l 1,2,-1
 200 1490 l 1,3,-1
 246 1490 l 1,0,-1
EndSplineSet
Substitution2: "'c2sc' Capitals to Small Capitals in Latin lookup 68 subtable" i.sc
Substitution2: "'cv08' Character Variants 08 in Latin lookup 62 subtable" I.1
Substitution2: "'ss06' Style Set 6 in Latin lookup 52 subtable" I.squared
Substitution2: "'ss05' Style Set 5 in Latin lookup 51 subtable" uni24BE
Substitution2: "'ss04' Style Set 4 in Latin lookup 50 subtable" I.1
Substitution2: "'ss02' Style Set 2 in Latin lookup 48 subtable" I.1
Substitution2: "'salt' Stylistic Alternatives in Latin lookup 46 subtable" I.1
Substitution2: "'aalt' Access All Alternates in Latin lookup 0 subtable" i.sc
Position2: "'cpsp' Capital Spacing in Latin lookup 0 subtable" dx=0 dy=0 dh=0 dv=0
EndChar

StartChar: I.1
Encoding: 57356 57356 235
Width: 639
GlyphClass: 2
Flags: W
AnchorPoint: "Anchor-4" 544 0 basechar 0
AnchorPoint: "Anchor-1" 320 1490 basechar 0
AnchorPoint: "Anchor-0" 320 0 basechar 0
LayerCount: 2
Fore
SplineSet
95 0 m 1,0,-1
 95 46 l 1,1,-1
 295 46 l 1,2,-1
 295 1444 l 1,3,-1
 95 1444 l 1,4,-1
 95 1490 l 1,5,-1
 544 1490 l 1,6,-1
 544 1444 l 1,7,-1
 341 1444 l 1,8,-1
 341 46 l 1,9,-1
 544 46 l 1,10,-1
 544 0 l 1,11,-1
 95 0 l 1,0,-1
EndSplineSet
EndChar

StartChar: J
Encoding: 74 74 267
Width: 1089
GlyphClass: 2
Flags: W
AnchorPoint: "Anchor-1" 896 1490 basechar 0
LayerCount: 2
Fore
SplineSet
527 -20 m 0,0,1
 347 -20 347 -20 241.5 92 c 128,-1,2
 136 204 136 204 136 396 c 2,3,-1
 136 464 l 1,4,-1
 182 464 l 1,5,-1
 182 396 l 2,6,7
 182 225 182 225 273.5 126 c 128,-1,8
 365 27 365 27 527 27 c 256,9,10
 689 27 689 27 781 126 c 128,-1,11
 873 225 873 225 873 396 c 2,12,-1
 873 1490 l 1,13,-1
 919 1490 l 1,14,-1
 919 396 l 2,15,16
 919 204 919 204 814 92 c 128,-1,17
 709 -20 709 -20 527 -20 c 0,0,1
EndSplineSet
Substitution2: "'ss06' Style Set 6 in Latin lookup 52 subtable" J.squared
Substitution2: "'ss05' Style Set 5 in Latin lookup 51 subtable" uni24BF
Position2: "'cpsp' Capital Spacing in Latin lookup 0 subtable" dx=0 dy=0 dh=0 dv=0
EndChar

StartChar: K
Encoding: 75 75 272
Width: 1172
GlyphClass: 2
Flags: W
AnchorPoint: "Anchor-1" 630 1490 basechar 0
AnchorPoint: "Anchor-0" 630 0 basechar 0
LayerCount: 2
Fore
SplineSet
241 536 m 1,0,-1
 226 585 l 1,1,2
 287 650 287 650 341.5 709 c 128,-1,3
 396 768 396 768 451.5 828 c 128,-1,4
 507 888 507 888 566 953 c 2,5,-1
 1066 1490 l 1,6,-1
 1126 1490 l 1,7,-1
 513 828 l 1,8,-1
 502 818 l 1,9,-1
 241 536 l 1,0,-1
200 0 m 1,10,-1
 200 1490 l 1,11,-1
 246 1490 l 1,12,-1
 246 961 l 1,13,-1
 247 592 l 1,14,-1
 246 561 l 1,15,-1
 246 0 l 1,16,-1
 200 0 l 1,10,-1
1070 0 m 1,17,-1
 482 827 l 1,18,-1
 518 853 l 1,19,-1
 1125 0 l 1,20,-1
 1070 0 l 1,17,-1
EndSplineSet
Substitution2: "'ss06' Style Set 6 in Latin lookup 52 subtable" K.squared
Substitution2: "'ss05' Style Set 5 in Latin lookup 51 subtable" uni24C0
Position2: "'cpsp' Capital Spacing in Latin lookup 0 subtable" dx=0 dy=0 dh=0 dv=0
EndChar

StartChar: uni04A0
Encoding: 1184 1184 278
Width: 1585
GlyphClass: 2
Flags: W
AnchorPoint: "Anchor-1" 973 1490 basechar 0
LayerCount: 2
Fore
SplineSet
578 1490 m 1,0,-1
 578 1444 l 1,1,-1
 94 1444 l 1,2,-1
 94 1490 l 1,3,-1
 578 1490 l 1,0,-1
550 0 m 1,4,-1
 550 1490 l 1,5,-1
 596 1490 l 1,6,-1
 596 785 l 1,7,-1
 888 785 l 1,8,-1
 1459 1490 l 1,9,-1
 1517 1490 l 1,10,-1
 929 762 l 1,11,-1
 1540 0 l 1,12,-1
 1482 0 l 1,13,-1
 889 740 l 1,14,-1
 596 740 l 1,15,-1
 596 0 l 1,16,-1
 550 0 l 1,4,-1
EndSplineSet
Position2: "'cpsp' Capital Spacing in Latin lookup 0 subtable" dx=0 dy=0 dh=0 dv=0
EndChar

StartChar: uni0198
Encoding: 408 408 280
Width: 1279
Flags: W
LayerCount: 2
Fore
SplineSet
200 0 m 1,0,-1
 200 1490 l 1,1,-1
 248 1490 l 1,2,-1
 248 563 l 1,3,-1
 254 563 l 1,4,-1
 1033 1421 l 2,5,6
 1069 1463 1069 1463 1117 1481.5 c 128,-1,7
 1165 1500 1165 1500 1212.5 1493 c 128,-1,8
 1260 1486 1260 1486 1293 1451 c 1,9,-1
 1261 1421 l 1,10,11
 1209 1457 1209 1457 1161 1447.5 c 128,-1,12
 1113 1438 1113 1438 1069 1388 c 2,13,-1
 504 769 l 1,14,-1
 1224 0 l 1,15,-1
 1160 0 l 1,16,-1
 472 734 l 1,17,-1
 248 487 l 1,18,-1
 248 0 l 1,19,-1
 200 0 l 1,0,-1
EndSplineSet
Position2: "'cpsp' Capital Spacing in Latin lookup 0 subtable" dx=0 dy=0 dh=0 dv=0
EndChar

StartChar: L
Encoding: 76 76 282
Width: 1098
GlyphClass: 2
Flags: W
AnchorPoint: "Anchor-1" 225 1490 basechar 0
AnchorPoint: "Anchor-0" 597 0 basechar 0
LayerCount: 2
Fore
SplineSet
200 0 m 1,0,-1
 200 1490 l 1,1,-1
 248 1490 l 1,2,-1
 248 46 l 1,3,-1
 1004 46 l 1,4,-1
 1004 0 l 1,5,-1
 200 0 l 1,0,-1
EndSplineSet
Substitution2: "'c2sc' Capitals to Small Capitals in Latin lookup 68 subtable" l.sc
Substitution2: "'ss06' Style Set 6 in Latin lookup 52 subtable" L.squared
Substitution2: "'ss05' Style Set 5 in Latin lookup 51 subtable" uni24C1
Substitution2: "'aalt' Access All Alternates in Latin lookup 0 subtable" l.sc
Position2: "'cpsp' Capital Spacing in Latin lookup 0 subtable" dx=0 dy=0 dh=0 dv=0
EndChar

StartChar: M
Encoding: 77 77 293
Width: 1768
GlyphClass: 2
Flags: W
AnchorPoint: "Anchor-1" 885 1490 basechar 0
AnchorPoint: "Anchor-0" 885 0 basechar 0
LayerCount: 2
Fore
SplineSet
200 0 m 1,0,-1
 200 1490 l 1,1,-1
 265 1490 l 1,2,-1
 779 304 l 2,3,4
 794 271 794 271 809 236.5 c 128,-1,5
 824 202 824 202 838 167 c 128,-1,6
 852 132 852 132 866.5 97.5 c 128,-1,7
 881 63 881 63 897 28 c 1,8,-1
 872 28 l 1,9,10
 887 64 887 64 902 98.5 c 128,-1,11
 917 133 917 133 931.5 167.5 c 128,-1,12
 946 202 946 202 960.5 236 c 128,-1,13
 975 270 975 270 991 304 c 2,14,-1
 1505 1490 l 1,15,-1
 1568 1490 l 1,16,-1
 1568 0 l 1,17,-1
 1522 0 l 1,18,-1
 1522 1137 l 2,19,20
 1522 1177 1522 1177 1522 1217.5 c 128,-1,21
 1522 1258 1522 1258 1522.5 1299 c 128,-1,22
 1523 1340 1523 1340 1523 1380.5 c 128,-1,23
 1523 1421 1523 1421 1523 1460 c 1,24,-1
 1538 1460 l 1,25,26
 1521 1420 1521 1420 1503.5 1379 c 128,-1,27
 1486 1338 1486 1338 1469 1297.5 c 128,-1,28
 1452 1257 1452 1257 1434.5 1216.5 c 128,-1,29
 1417 1176 1417 1176 1400 1137 c 2,30,-1
 908 0 l 1,31,-1
 861 0 l 1,32,-1
 368 1137 l 2,33,34
 351 1177 351 1177 334 1217 c 128,-1,35
 317 1257 317 1257 299.5 1297.5 c 128,-1,36
 282 1338 282 1338 265 1379 c 128,-1,37
 248 1420 248 1420 231 1460 c 1,38,-1
 245 1460 l 1,39,40
 245 1420 245 1420 245.5 1379.5 c 128,-1,41
 246 1339 246 1339 246 1298.5 c 128,-1,42
 246 1258 246 1258 246.5 1217 c 128,-1,43
 247 1176 247 1176 247 1137 c 2,44,-1
 247 0 l 1,45,-1
 200 0 l 1,0,-1
EndSplineSet
Substitution2: "'c2sc' Capitals to Small Capitals in Latin lookup 68 subtable" m.sc
Substitution2: "'ss06' Style Set 6 in Latin lookup 52 subtable" M.squared
Substitution2: "'ss05' Style Set 5 in Latin lookup 51 subtable" uni24C2
Substitution2: "'aalt' Access All Alternates in Latin lookup 0 subtable" m.sc
Position2: "'cpsp' Capital Spacing in Latin lookup 0 subtable" dx=0 dy=0 dh=0 dv=0
EndChar

StartChar: N
Encoding: 78 78 301
Width: 1517
GlyphClass: 2
Flags: W
AnchorPoint: "Anchor-1" 759 1490 basechar 0
AnchorPoint: "Anchor-0" 759 0 basechar 0
LayerCount: 2
Fore
SplineSet
200 0 m 1,0,-1
 200 1490 l 1,1,-1
 245 1490 l 1,2,-1
 1068 360 l 2,3,4
 1106 308 1106 308 1142.5 256 c 128,-1,5
 1179 204 1179 204 1216 152 c 128,-1,6
 1253 100 1253 100 1290 49 c 1,7,-1
 1274 49 l 1,8,9
 1273 100 1273 100 1272.5 152 c 128,-1,10
 1272 204 1272 204 1271.5 256 c 128,-1,11
 1271 308 1271 308 1271 359 c 2,12,-1
 1271 1490 l 1,13,-1
 1317 1490 l 1,14,-1
 1317 0 l 1,15,-1
 1272 0 l 1,16,-1
 451 1129 l 2,17,18
 414 1181 414 1181 377 1233.5 c 128,-1,19
 340 1286 340 1286 303 1337.5 c 128,-1,20
 266 1389 266 1389 228 1442 c 1,21,-1
 244 1442 l 1,22,23
 244 1389 244 1389 244.5 1337.5 c 128,-1,24
 245 1286 245 1286 246 1233.5 c 128,-1,25
 247 1181 247 1181 247 1129 c 2,26,-1
 247 0 l 1,27,-1
 200 0 l 1,0,-1
EndSplineSet
Substitution2: "'c2sc' Capitals to Small Capitals in Latin lookup 68 subtable" n.sc
Substitution2: "'ss06' Style Set 6 in Latin lookup 52 subtable" N.squared
Substitution2: "'ss05' Style Set 5 in Latin lookup 51 subtable" uni24C3
Substitution2: "'aalt' Access All Alternates in Latin lookup 0 subtable" n.sc
Position2: "'cpsp' Capital Spacing in Latin lookup 0 subtable" dx=0 dy=0 dh=0 dv=0
EndChar

StartChar: Nhook
Encoding: 413 413 311
Width: 1517
GlyphClass: 2
Flags: W
AnchorPoint: "Anchor-1" 759 1490 basechar 0
AnchorPoint: "Anchor-0" 759 0 basechar 0
LayerCount: 2
Fore
SplineSet
-9 -418 m 1,0,-1
 -9 -371 l 1,1,2
 9 -372 9 -372 29 -372 c 128,-1,3
 49 -372 49 -372 62 -372 c 0,4,5
 135 -372 135 -372 167.5 -337 c 128,-1,6
 200 -302 200 -302 200 -219 c 2,7,-1
 200 128 l 1,8,-1
 246 128 l 1,9,-1
 246 -219 l 2,10,11
 246 -322 246 -322 200.5 -369.5 c 128,-1,12
 155 -417 155 -417 63 -417 c 0,13,14
 50 -417 50 -417 29 -417.5 c 128,-1,15
 8 -418 8 -418 -9 -418 c 1,0,-1
200 0 m 1,16,-1
 200 1490 l 1,17,-1
 245 1490 l 1,18,-1
 1068 360 l 2,19,20
 1106 308 1106 308 1142.5 256 c 128,-1,21
 1179 204 1179 204 1216 152 c 128,-1,22
 1253 100 1253 100 1290 49 c 1,23,-1
 1274 49 l 1,24,25
 1273 100 1273 100 1272.5 152 c 128,-1,26
 1272 204 1272 204 1271.5 256 c 128,-1,27
 1271 308 1271 308 1271 359 c 2,28,-1
 1271 1490 l 1,29,-1
 1317 1490 l 1,30,-1
 1317 0 l 1,31,-1
 1272 0 l 1,32,-1
 451 1129 l 2,33,34
 414 1181 414 1181 377 1233.5 c 128,-1,35
 340 1286 340 1286 303 1337.5 c 128,-1,36
 266 1389 266 1389 228 1442 c 1,37,-1
 244 1442 l 1,38,39
 244 1389 244 1389 244.5 1337.5 c 128,-1,40
 245 1286 245 1286 246 1233.5 c 128,-1,41
 247 1181 247 1181 247 1129 c 2,42,-1
 247 0 l 1,43,-1
 200 0 l 1,16,-1
EndSplineSet
Position2: "'cpsp' Capital Spacing in Latin lookup 0 subtable" dx=0 dy=0 dh=0 dv=0
EndChar

StartChar: Eng
Encoding: 330 330 312
Width: 1517
GlyphClass: 2
Flags: W
AnchorPoint: "Anchor-1" 759 1490 basechar 0
AnchorPoint: "Anchor-0" 759 0 basechar 0
LayerCount: 2
Fore
SplineSet
1061 -418 m 1,0,-1
 1061 -371 l 1,1,2
 1079 -372 1079 -372 1099 -372 c 128,-1,3
 1119 -372 1119 -372 1132 -372 c 0,4,5
 1205 -372 1205 -372 1237.5 -337 c 128,-1,6
 1270 -302 1270 -302 1270 -219 c 2,7,-1
 1270 128 l 1,8,-1
 1316 128 l 1,9,-1
 1316 -219 l 2,10,11
 1316 -322 1316 -322 1270.5 -369.5 c 128,-1,12
 1225 -417 1225 -417 1133 -417 c 0,13,14
 1120 -417 1120 -417 1099 -417.5 c 128,-1,15
 1078 -418 1078 -418 1061 -418 c 1,0,-1
200 0 m 1,16,-1
 200 1490 l 1,17,-1
 245 1490 l 1,18,-1
 1068 360 l 2,19,20
 1106 308 1106 308 1142.5 256 c 128,-1,21
 1179 204 1179 204 1216 152 c 128,-1,22
 1253 100 1253 100 1290 49 c 1,23,-1
 1274 49 l 1,24,25
 1273 100 1273 100 1272.5 152 c 128,-1,26
 1272 204 1272 204 1271.5 256 c 128,-1,27
 1271 308 1271 308 1271 359 c 2,28,-1
 1271 1490 l 1,29,-1
 1317 1490 l 1,30,-1
 1317 0 l 1,31,-1
 1272 0 l 1,32,-1
 451 1129 l 2,33,34
 414 1181 414 1181 377 1233.5 c 128,-1,35
 340 1286 340 1286 303 1337.5 c 128,-1,36
 266 1389 266 1389 228 1442 c 1,37,-1
 244 1442 l 1,38,39
 244 1389 244 1389 244.5 1337.5 c 128,-1,40
 245 1286 245 1286 246 1233.5 c 128,-1,41
 247 1181 247 1181 247 1129 c 2,42,-1
 247 0 l 1,43,-1
 200 0 l 1,16,-1
EndSplineSet
Position2: "'cpsp' Capital Spacing in Latin lookup 0 subtable" dx=0 dy=0 dh=0 dv=0
EndChar

StartChar: uni0418
Encoding: 1048 1048 313
Width: 1517
GlyphClass: 2
Flags: W
AnchorPoint: "Anchor-1" 758 1490 basechar 0
AnchorPoint: "Anchor-0" 758 0 basechar 0
LayerCount: 2
Fore
SplineSet
1317 0 m 1,0,-1
 1270 0 l 1,1,-1
 1270 1129 l 2,2,3
 1270 1181 1270 1181 1271 1233.5 c 128,-1,4
 1272 1286 1272 1286 1272.5 1337.5 c 128,-1,5
 1273 1389 1273 1389 1273 1442 c 1,6,-1
 1289 1442 l 1,7,8
 1251 1389 1251 1389 1214 1337.5 c 128,-1,9
 1177 1286 1177 1286 1140.5 1233.5 c 128,-1,10
 1104 1181 1104 1181 1066 1129 c 2,11,-1
 245 0 l 1,12,-1
 200 0 l 1,13,-1
 200 1490 l 1,14,-1
 246 1490 l 1,15,-1
 246 359 l 2,16,17
 246 308 246 308 245.5 256 c 128,-1,18
 245 204 245 204 244 152 c 128,-1,19
 243 100 243 100 243 49 c 1,20,-1
 227 49 l 1,21,22
 265 100 265 100 302 152 c 128,-1,23
 339 204 339 204 375.5 256 c 128,-1,24
 412 308 412 308 449 360 c 2,25,-1
 1272 1490 l 1,26,-1
 1317 1490 l 1,27,-1
 1317 0 l 1,0,-1
EndSplineSet
Position2: "'cpsp' Capital Spacing in Latin lookup 0 subtable" dx=0 dy=0 dh=0 dv=0
EndChar

StartChar: O
Encoding: 79 79 322
Width: 1466
GlyphClass: 2
Flags: W
AnchorPoint: "Anchor-4" 1350 744 basechar 0
AnchorPoint: "Anchor-1" 735 1490 basechar 0
AnchorPoint: "Anchor-0" 735 0 basechar 0
LayerCount: 2
Fore
SplineSet
735 -18 m 0,0,1
 551 -18 551 -18 411 78.5 c 128,-1,2
 271 175 271 175 193.5 347 c 128,-1,3
 116 519 116 519 116 744 c 0,4,5
 116 972 116 972 194 1144 c 128,-1,6
 272 1316 272 1316 411.5 1412 c 128,-1,7
 551 1508 551 1508 735 1508 c 0,8,9
 917 1508 917 1508 1056.5 1412 c 128,-1,10
 1196 1316 1196 1316 1273 1144 c 128,-1,11
 1350 972 1350 972 1350 744 c 0,12,13
 1350 518 1350 518 1273 346 c 128,-1,14
 1196 174 1196 174 1056.5 78 c 128,-1,15
 917 -18 917 -18 735 -18 c 0,0,1
735 28 m 0,16,17
 904 28 904 28 1032 118 c 128,-1,18
 1160 208 1160 208 1232.5 370 c 128,-1,19
 1305 532 1305 532 1305 744 c 0,20,21
 1305 958 1305 958 1232.5 1119.5 c 128,-1,22
 1160 1281 1160 1281 1032 1371.5 c 128,-1,23
 904 1462 904 1462 735 1462 c 0,24,25
 565 1462 565 1462 436 1373 c 128,-1,26
 307 1284 307 1284 235 1122.5 c 128,-1,27
 163 961 163 961 163 744 c 0,28,29
 163 533 163 533 234 371.5 c 128,-1,30
 305 210 305 210 434 119 c 128,-1,31
 563 28 563 28 735 28 c 0,16,17
EndSplineSet
Substitution2: "'ss06' Style Set 6 in Latin lookup 52 subtable" O.squared
Substitution2: "'ss05' Style Set 5 in Latin lookup 51 subtable" uni24C4
Substitution2: "Single Substitution lookup 44 subtable" ordmasculine
Substitution2: "'aalt' Access All Alternates in Latin lookup 0 subtable" ordmasculine
Position2: "'cpsp' Capital Spacing in Latin lookup 0 subtable" dx=0 dy=0 dh=0 dv=0
EndChar

StartChar: Ohorn
Encoding: 416 416 326
Width: 1466
GlyphClass: 2
Flags: W
AnchorPoint: "Anchor-4" 1350 744 basechar 0
AnchorPoint: "Anchor-1" 735 1490 basechar 0
AnchorPoint: "Anchor-0" 735 0 basechar 0
LayerCount: 2
Fore
SplineSet
734 1471 m 1,0,-1
 734 1510 l 1,1,2
 795 1510 795 1510 836.5 1507.5 c 128,-1,3
 878 1505 878 1505 923.5 1501 c 128,-1,4
 969 1497 969 1497 1039.5 1493.5 c 128,-1,5
 1110 1490 1110 1490 1227 1490 c 0,6,7
 1304 1490 1304 1490 1304 1567 c 2,8,-1
 1304 1714 l 1,9,-1
 1350 1714 l 1,10,-1
 1350 1567 l 2,11,12
 1350 1508 1350 1508 1318 1476 c 128,-1,13
 1286 1444 1286 1444 1227 1444 c 0,14,15
 1146 1444 1146 1444 1081.5 1448.5 c 128,-1,16
 1017 1453 1017 1453 960.5 1458 c 128,-1,17
 904 1463 904 1463 849.5 1466.5 c 128,-1,18
 795 1470 795 1470 734 1471 c 1,0,-1
735 -18 m 0,19,20
 551 -18 551 -18 411 78.5 c 128,-1,21
 271 175 271 175 193.5 347 c 128,-1,22
 116 519 116 519 116 744 c 0,23,24
 116 972 116 972 194 1144 c 128,-1,25
 272 1316 272 1316 411.5 1412 c 128,-1,26
 551 1508 551 1508 735 1508 c 0,27,28
 917 1508 917 1508 1056.5 1412 c 128,-1,29
 1196 1316 1196 1316 1273 1144 c 128,-1,30
 1350 972 1350 972 1350 744 c 0,31,32
 1350 518 1350 518 1273 346 c 128,-1,33
 1196 174 1196 174 1056.5 78 c 128,-1,34
 917 -18 917 -18 735 -18 c 0,19,20
735 28 m 0,35,36
 904 28 904 28 1032 118 c 128,-1,37
 1160 208 1160 208 1232.5 370 c 128,-1,38
 1305 532 1305 532 1305 744 c 0,39,40
 1305 958 1305 958 1232.5 1119.5 c 128,-1,41
 1160 1281 1160 1281 1032 1371.5 c 128,-1,42
 904 1462 904 1462 735 1462 c 0,43,44
 565 1462 565 1462 436 1373 c 128,-1,45
 307 1284 307 1284 235 1122.5 c 128,-1,46
 163 961 163 961 163 744 c 0,47,48
 163 533 163 533 234 371.5 c 128,-1,49
 305 210 305 210 434 119 c 128,-1,50
 563 28 563 28 735 28 c 0,35,36
EndSplineSet
Position2: "'cpsp' Capital Spacing in Latin lookup 0 subtable" dx=0 dy=0 dh=0 dv=0
EndChar

StartChar: uni03F4
Encoding: 1012 1012 368
Width: 1466
GlyphClass: 2
Flags: W
AnchorPoint: "Anchor-4" 1350 744 basechar 0
AnchorPoint: "Anchor-1" 735 1490 basechar 0
AnchorPoint: "Anchor-0" 735 0 basechar 0
LayerCount: 2
Fore
SplineSet
1320 768 m 1,0,-1
 1320 722 l 1,1,-1
 146 722 l 1,2,-1
 146 768 l 1,3,-1
 1320 768 l 1,0,-1
735 -18 m 0,4,5
 551 -18 551 -18 411 78.5 c 128,-1,6
 271 175 271 175 193.5 347 c 128,-1,7
 116 519 116 519 116 744 c 0,8,9
 116 972 116 972 194 1144 c 128,-1,10
 272 1316 272 1316 411.5 1412 c 128,-1,11
 551 1508 551 1508 735 1508 c 0,12,13
 917 1508 917 1508 1056.5 1412 c 128,-1,14
 1196 1316 1196 1316 1273 1144 c 128,-1,15
 1350 972 1350 972 1350 744 c 0,16,17
 1350 518 1350 518 1273 346 c 128,-1,18
 1196 174 1196 174 1056.5 78 c 128,-1,19
 917 -18 917 -18 735 -18 c 0,4,5
735 28 m 0,20,21
 904 28 904 28 1032 118 c 128,-1,22
 1160 208 1160 208 1232.5 370 c 128,-1,23
 1305 532 1305 532 1305 744 c 0,24,25
 1305 958 1305 958 1232.5 1119.5 c 128,-1,26
 1160 1281 1160 1281 1032 1371.5 c 128,-1,27
 904 1462 904 1462 735 1462 c 0,28,29
 565 1462 565 1462 436 1373 c 128,-1,30
 307 1284 307 1284 235 1122.5 c 128,-1,31
 163 961 163 961 163 744 c 0,32,33
 163 533 163 533 234 371.5 c 128,-1,34
 305 210 305 210 434 119 c 128,-1,35
 563 28 563 28 735 28 c 0,20,21
EndSplineSet
Position2: "'cpsp' Capital Spacing in Latin lookup 0 subtable" dx=0 dy=0 dh=0 dv=0
EndChar

StartChar: OE
Encoding: 338 338 375
Width: 1863
GlyphClass: 2
Flags: W
AnchorPoint: "Anchor-4" 1752 0 basechar 0
AnchorPoint: "Anchor-3" 1321 0 basechar 0
AnchorPoint: "Anchor-1" 1322 1490 basechar 0
AnchorPoint: "Anchor-0" 1322 0 basechar 0
LayerCount: 2
Fore
SplineSet
735 0 m 2,0,1
 550 0 550 0 411 94.5 c 128,-1,2
 272 189 272 189 194 357 c 128,-1,3
 116 525 116 525 116 744 c 0,4,5
 116 966 116 966 194.5 1134 c 128,-1,6
 273 1302 273 1302 411.5 1396 c 128,-1,7
 550 1490 550 1490 735 1490 c 2,8,-1
 917 1490 l 1,9,-1
 917 1442 l 1,10,-1
 735 1442 l 2,11,12
 565 1443 565 1443 436.5 1356.5 c 128,-1,13
 308 1270 308 1270 235.5 1112.5 c 128,-1,14
 163 955 163 955 163 744 c 0,15,16
 163 538 163 538 234.5 381 c 128,-1,17
 306 224 306 224 434.5 135 c 128,-1,18
 563 46 563 46 735 46 c 2,19,-1
 917 46 l 1,20,-1
 917 0 l 1,21,-1
 735 0 l 2,0,1
893 0 m 1,22,-1
 893 1490 l 1,23,-1
 1740 1490 l 1,24,-1
 1740 1444 l 1,25,-1
 939 1444 l 1,26,-1
 939 777 l 1,27,-1
 1681 777 l 1,28,-1
 1681 731 l 1,29,-1
 939 731 l 1,30,-1
 939 46 l 1,31,-1
 1752 46 l 1,32,-1
 1752 0 l 1,33,-1
 893 0 l 1,22,-1
EndSplineSet
Substitution2: "'c2sc' Capitals to Small Capitals in Latin lookup 68 subtable" oe.sc
Substitution2: "'aalt' Access All Alternates in Latin lookup 0 subtable" oe.sc
Position2: "'cpsp' Capital Spacing in Latin lookup 0 subtable" dx=0 dy=0 dh=0 dv=0
EndChar

StartChar: P
Encoding: 80 80 376
Width: 1184
GlyphClass: 2
Flags: W
AnchorPoint: "Anchor-1" 606 1490 basechar 0
LayerCount: 2
Fore
SplineSet
200 0 m 1,0,-1
 200 1490 l 1,1,-1
 662 1490 l 2,2,3
 787 1490 787 1490 883 1436 c 128,-1,4
 979 1382 979 1382 1033.5 1284.5 c 128,-1,5
 1088 1187 1088 1187 1088 1059 c 0,6,7
 1088 933 1088 933 1033.5 836.5 c 128,-1,8
 979 740 979 740 883.5 685.5 c 128,-1,9
 788 631 788 631 663 631 c 2,10,-1
 224 631 l 1,11,-1
 224 678 l 1,12,-1
 662 678 l 2,13,14
 774 678 774 678 859.5 726 c 128,-1,15
 945 774 945 774 994 860 c 128,-1,16
 1043 946 1043 946 1043 1059 c 0,17,18
 1043 1174 1043 1174 994 1260.5 c 128,-1,19
 945 1347 945 1347 859.5 1396 c 128,-1,20
 774 1445 774 1445 662 1445 c 2,21,-1
 246 1445 l 1,22,-1
 246 0 l 1,23,-1
 200 0 l 1,0,-1
EndSplineSet
Substitution2: "'ss06' Style Set 6 in Latin lookup 52 subtable" P.squared
Substitution2: "'ss05' Style Set 5 in Latin lookup 51 subtable" uni24C5
Position2: "'cpsp' Capital Spacing in Latin lookup 0 subtable" dx=0 dy=0 dh=0 dv=0
EndChar

StartChar: uni048E
Encoding: 1166 1166 379
Width: 1182
GlyphClass: 2
Flags: W
AnchorPoint: "Anchor-1" 598 1490 basechar 0
LayerCount: 2
Fore
SplineSet
798 920 m 1,0,-1
 1032 562 l 1,1,-1
 994 536 l 1,2,-1
 758 896 l 1,3,-1
 798 920 l 1,0,-1
192 0 m 1,4,-1
 192 1490 l 1,5,-1
 654 1490 l 2,6,7
 779 1490 779 1490 875 1436 c 128,-1,8
 971 1382 971 1382 1025.5 1284.5 c 128,-1,9
 1080 1187 1080 1187 1080 1059 c 0,10,11
 1080 933 1080 933 1025.5 836.5 c 128,-1,12
 971 740 971 740 875.5 685.5 c 128,-1,13
 780 631 780 631 655 631 c 2,14,-1
 216 631 l 1,15,-1
 216 678 l 1,16,-1
 654 678 l 2,17,18
 766 678 766 678 851.5 726 c 128,-1,19
 937 774 937 774 986 860 c 128,-1,20
 1035 946 1035 946 1035 1059 c 0,21,22
 1035 1174 1035 1174 986 1260.5 c 128,-1,23
 937 1347 937 1347 851.5 1396 c 128,-1,24
 766 1445 766 1445 654 1445 c 2,25,-1
 238 1445 l 1,26,-1
 238 0 l 1,27,-1
 192 0 l 1,4,-1
EndSplineSet
Position2: "'cpsp' Capital Spacing in Latin lookup 0 subtable" dx=0 dy=0 dh=0 dv=0
EndChar

StartChar: uni01A4
Encoding: 420 420 380
Width: 1344
GlyphClass: 2
Flags: W
AnchorPoint: "Anchor-1" 766 1490 basechar 0
LayerCount: 2
Fore
SplineSet
54 1118 m 1,0,-1
 54 1280 l 2,1,2
 54 1383 54 1383 105 1436.5 c 128,-1,3
 156 1490 156 1490 250 1490 c 2,4,-1
 360 1490 l 1,5,-1
 360 1445 l 1,6,-1
 255 1445 l 2,7,8
 175 1445 175 1445 137.5 1404.5 c 128,-1,9
 100 1364 100 1364 100 1280 c 2,10,-1
 100 1118 l 1,11,-1
 54 1118 l 1,0,-1
360 0 m 1,12,-1
 360 1490 l 1,13,-1
 822 1490 l 2,14,15
 947 1490 947 1490 1043 1436 c 128,-1,16
 1139 1382 1139 1382 1193.5 1284.5 c 128,-1,17
 1248 1187 1248 1187 1248 1059 c 0,18,19
 1248 933 1248 933 1193.5 836.5 c 128,-1,20
 1139 740 1139 740 1043.5 685.5 c 128,-1,21
 948 631 948 631 823 631 c 2,22,-1
 384 631 l 1,23,-1
 384 678 l 1,24,-1
 822 678 l 2,25,26
 934 678 934 678 1020 726 c 128,-1,27
 1106 774 1106 774 1154.5 860 c 128,-1,28
 1203 946 1203 946 1203 1059 c 0,29,30
 1203 1174 1203 1174 1154.5 1260.5 c 128,-1,31
 1106 1347 1106 1347 1020 1396 c 128,-1,32
 934 1445 934 1445 822 1445 c 2,33,-1
 406 1445 l 1,34,-1
 406 0 l 1,35,-1
 360 0 l 1,12,-1
EndSplineSet
Position2: "'cpsp' Capital Spacing in Latin lookup 0 subtable" dx=0 dy=0 dh=0 dv=0
EndChar

StartChar: Q
Encoding: 81 81 383
Width: 1466
GlyphClass: 2
Flags: W
AnchorPoint: "Anchor-4" 1350 744 basechar 0
AnchorPoint: "Anchor-1" 735 1490 basechar 0
AnchorPoint: "Anchor-0" 735 0 basechar 0
LayerCount: 2
Fore
SplineSet
792 466 m 1,0,-1
 850 466 l 1,1,-1
 1090 146 l 1,2,-1
 1100 134 l 1,3,-1
 1306 -140 l 1,4,-1
 1248 -140 l 1,5,-1
 1060 110 l 1,6,-1
 1050 122 l 1,7,-1
 792 466 l 1,0,-1
735 -18 m 0,8,9
 551 -18 551 -18 411 78.5 c 128,-1,10
 271 175 271 175 193.5 347 c 128,-1,11
 116 519 116 519 116 744 c 0,12,13
 116 972 116 972 194 1144 c 128,-1,14
 272 1316 272 1316 411.5 1412 c 128,-1,15
 551 1508 551 1508 735 1508 c 0,16,17
 917 1508 917 1508 1056.5 1412 c 128,-1,18
 1196 1316 1196 1316 1273 1144 c 128,-1,19
 1350 972 1350 972 1350 744 c 0,20,21
 1350 518 1350 518 1273 346 c 128,-1,22
 1196 174 1196 174 1056.5 78 c 128,-1,23
 917 -18 917 -18 735 -18 c 0,8,9
735 28 m 0,24,25
 904 28 904 28 1032 118 c 128,-1,26
 1160 208 1160 208 1232.5 370 c 128,-1,27
 1305 532 1305 532 1305 744 c 0,28,29
 1305 958 1305 958 1232.5 1119.5 c 128,-1,30
 1160 1281 1160 1281 1032 1371.5 c 128,-1,31
 904 1462 904 1462 735 1462 c 0,32,33
 565 1462 565 1462 436 1373 c 128,-1,34
 307 1284 307 1284 235 1122.5 c 128,-1,35
 163 961 163 961 163 744 c 0,36,37
 163 533 163 533 234 371.5 c 128,-1,38
 305 210 305 210 434 119 c 128,-1,39
 563 28 563 28 735 28 c 0,24,25
EndSplineSet
Substitution2: "'ss06' Style Set 6 in Latin lookup 52 subtable" Q.squared
Substitution2: "'ss05' Style Set 5 in Latin lookup 51 subtable" uni24C6
Position2: "'cpsp' Capital Spacing in Latin lookup 0 subtable" dx=0 dy=0 dh=0 dv=0
EndChar

StartChar: Q_rthook
Encoding: 586 586 384
Width: 1460
GlyphClass: 2
Flags: W
LayerCount: 2
Fore
SplineSet
1260 1490 m 1,0,-1
 1260 0 l 1,1,-1
 1214 0 l 1,2,-1
 1214 383 l 1,3,-1
 1208 383 l 1,4,5
 1145 185 1145 185 1022.5 82.5 c 128,-1,6
 900 -20 900 -20 727 -20 c 0,7,8
 591 -20 591 -20 479 35.5 c 128,-1,9
 367 91 367 91 285.5 192.5 c 128,-1,10
 204 294 204 294 160 435 c 128,-1,11
 116 576 116 576 116 745 c 0,12,13
 116 916 116 916 161 1056 c 128,-1,14
 206 1196 206 1196 288.5 1298.5 c 128,-1,15
 371 1401 371 1401 484 1455.5 c 128,-1,16
 597 1510 597 1510 735 1510 c 0,17,18
 906 1510 906 1510 1025.5 1408.5 c 128,-1,19
 1145 1307 1145 1307 1208 1107 c 1,20,-1
 1214 1107 l 1,21,-1
 1214 1490 l 1,22,-1
 1260 1490 l 1,0,-1
734 26 m 0,23,24
 886 26 886 26 994 112.5 c 128,-1,25
 1102 199 1102 199 1160 360 c 128,-1,26
 1218 521 1218 521 1218 745 c 0,27,28
 1218 967 1218 967 1159 1129 c 128,-1,29
 1100 1291 1100 1291 991.5 1377.5 c 128,-1,30
 883 1464 883 1464 734 1464 c 0,31,32
 565 1464 565 1464 435.5 1373 c 128,-1,33
 306 1282 306 1282 234.5 1120.5 c 128,-1,34
 163 959 163 959 163 745 c 256,35,36
 163 531 163 531 235 369 c 128,-1,37
 307 207 307 207 436 116.5 c 128,-1,38
 565 26 565 26 734 26 c 0,23,24
1398 -417 m 0,39,40
 1307 -417 1307 -417 1260.5 -369.5 c 128,-1,41
 1214 -322 1214 -322 1214 -219 c 2,42,-1
 1214 0 l 1,43,-1
 1260 0 l 1,44,-1
 1260 -219 l 2,45,46
 1260 -302 1260 -302 1293 -337 c 128,-1,47
 1326 -372 1326 -372 1398 -372 c 0,48,49
 1411 -372 1411 -372 1431.5 -372 c 128,-1,50
 1452 -372 1452 -372 1471 -372 c 1,51,-1
 1471 -418 l 1,52,53
 1454 -418 1454 -418 1433.5 -417.5 c 128,-1,54
 1413 -417 1413 -417 1398 -417 c 0,39,40
EndSplineSet
Position2: "'cpsp' Capital Spacing in Latin lookup 0 subtable" dx=0 dy=0 dh=0 dv=0
EndChar

StartChar: R
Encoding: 82 82 385
Width: 1223
GlyphClass: 2
Flags: W
AnchorPoint: "Anchor-1" 612 1490 basechar 0
AnchorPoint: "Anchor-0" 621 0 basechar 0
LayerCount: 2
Fore
SplineSet
200 0 m 1,0,-1
 200 1490 l 1,1,-1
 663 1490 l 2,2,3
 787 1490 787 1490 883 1437.5 c 128,-1,4
 979 1385 979 1385 1034 1288.5 c 128,-1,5
 1089 1192 1089 1192 1089 1064 c 0,6,7
 1089 938 1089 938 1034.5 843 c 128,-1,8
 980 748 980 748 884 695.5 c 128,-1,9
 788 643 788 643 662 643 c 2,10,-1
 224 643 l 1,11,-1
 224 688 l 1,12,-1
 663 688 l 2,13,14
 774 688 774 688 859.5 735 c 128,-1,15
 945 782 945 782 993.5 867 c 128,-1,16
 1042 952 1042 952 1042 1064 c 0,17,18
 1042 1179 1042 1179 993.5 1264.5 c 128,-1,19
 945 1350 945 1350 859.5 1397.5 c 128,-1,20
 774 1445 774 1445 663 1445 c 2,21,-1
 246 1445 l 1,22,-1
 246 0 l 1,23,-1
 200 0 l 1,0,-1
1079 0 m 1,24,-1
 717 679 l 1,25,-1
 769 679 l 1,26,-1
 1131 0 l 1,27,-1
 1079 0 l 1,24,-1
EndSplineSet
Substitution2: "'c2sc' Capitals to Small Capitals in Latin lookup 68 subtable" r.sc
Substitution2: "'ss06' Style Set 6 in Latin lookup 52 subtable" R.squared
Substitution2: "'ss05' Style Set 5 in Latin lookup 51 subtable" uni24C7
Substitution2: "'aalt' Access All Alternates in Latin lookup 0 subtable" r.sc
Position2: "'cpsp' Capital Spacing in Latin lookup 0 subtable" dx=0 dy=0 dh=0 dv=0
EndChar

StartChar: uni211F
Encoding: 8479 8479 395
Width: 1198
GlyphClass: 2
Flags: W
AnchorPoint: "Anchor-1" 606 1490 basechar 0
AnchorPoint: "Anchor-0" 615 0 basechar 0
LayerCount: 2
Fore
SplineSet
950 1654 m 1,0,-1
 252 -328 l 1,1,-1
 206 -318 l 1,2,-1
 890 1626 l 1,3,-1
 552 1754 l 1,4,-1
 570 1796 l 1,5,-1
 950 1654 l 1,0,-1
194 0 m 1,6,-1
 194 1490 l 1,7,-1
 657 1490 l 2,8,9
 781 1490 781 1490 877 1437.5 c 128,-1,10
 973 1385 973 1385 1028 1288.5 c 128,-1,11
 1083 1192 1083 1192 1083 1064 c 0,12,13
 1083 938 1083 938 1028.5 843 c 128,-1,14
 974 748 974 748 878 695.5 c 128,-1,15
 782 643 782 643 656 643 c 2,16,-1
 218 643 l 1,17,-1
 218 688 l 1,18,-1
 657 688 l 2,19,20
 768 688 768 688 853.5 735 c 128,-1,21
 939 782 939 782 987.5 867 c 128,-1,22
 1036 952 1036 952 1036 1064 c 0,23,24
 1036 1179 1036 1179 987.5 1264.5 c 128,-1,25
 939 1350 939 1350 853.5 1397.5 c 128,-1,26
 768 1445 768 1445 657 1445 c 2,27,-1
 240 1445 l 1,28,-1
 240 0 l 1,29,-1
 194 0 l 1,6,-1
1073 0 m 1,30,-1
 711 679 l 1,31,-1
 763 679 l 1,32,-1
 1125 0 l 1,33,-1
 1073 0 l 1,30,-1
EndSplineSet
EndChar

StartChar: Rx
Encoding: 8478 8478 396
Width: 1133
Flags: W
LayerCount: 2
Fore
SplineSet
200 1490 m 1,0,-1
 638 1490 l 2,1,2
 763 1490 763 1490 859 1437.5 c 128,-1,3
 955 1385 955 1385 1010 1289.5 c 128,-1,4
 1065 1194 1065 1194 1065 1064 c 0,5,6
 1065 939 1065 939 1010 844 c 128,-1,7
 955 749 955 749 859 695.5 c 128,-1,8
 763 642 763 642 638 643 c 1,9,-1
 625 642 l 1,10,-1
 225 642 l 1,11,-1
 225 691 l 1,12,-1
 639 691 l 2,13,14
 751 690 751 690 836.5 736 c 128,-1,15
 922 782 922 782 970.5 866.5 c 128,-1,16
 1019 951 1019 951 1019 1065 c 0,17,18
 1019 1180 1019 1180 970 1264 c 128,-1,19
 921 1348 921 1348 835.5 1395.5 c 128,-1,20
 750 1443 750 1443 638 1443 c 2,21,-1
 248 1443 l 1,22,-1
 248 0 l 1,23,-1
 200 0 l 1,24,-1
 200 1490 l 1,0,-1
1086 0 m 1,25,-1
 591 679 l 1,26,-1
 646 679 l 1,27,-1
 1145 0 l 1,28,-1
 1086 0 l 1,25,-1
649 0 m 1,29,-1
 591 0 l 1,30,-1
 1087 681 l 1,31,-1
 1144 681 l 1,32,-1
 649 0 l 1,29,-1
EndSplineSet
EndChar

StartChar: uni024C
Encoding: 588 588 397
Width: 1206
GlyphClass: 2
Flags: W
AnchorPoint: "Anchor-1" 614 1490 basechar 0
AnchorPoint: "Anchor-0" 623 0 basechar 0
LayerCount: 2
Fore
SplineSet
218 642 m 1,0,-1
 0 642 l 1,1,-1
 0 690 l 1,2,-1
 218 690 l 1,3,-1
 218 642 l 1,0,-1
202 0 m 1,4,-1
 202 1490 l 1,5,-1
 665 1490 l 2,6,7
 789 1490 789 1490 885 1437.5 c 128,-1,8
 981 1385 981 1385 1036 1288.5 c 128,-1,9
 1091 1192 1091 1192 1091 1064 c 0,10,11
 1091 938 1091 938 1036.5 843 c 128,-1,12
 982 748 982 748 886 695.5 c 128,-1,13
 790 643 790 643 664 643 c 2,14,-1
 226 643 l 1,15,-1
 226 688 l 1,16,-1
 665 688 l 2,17,18
 776 688 776 688 861.5 735 c 128,-1,19
 947 782 947 782 995.5 867 c 128,-1,20
 1044 952 1044 952 1044 1064 c 0,21,22
 1044 1179 1044 1179 995.5 1264.5 c 128,-1,23
 947 1350 947 1350 861.5 1397.5 c 128,-1,24
 776 1445 776 1445 665 1445 c 2,25,-1
 248 1445 l 1,26,-1
 248 0 l 1,27,-1
 202 0 l 1,4,-1
1081 0 m 1,28,-1
 719 679 l 1,29,-1
 771 679 l 1,30,-1
 1133 0 l 1,31,-1
 1081 0 l 1,28,-1
EndSplineSet
Position2: "'cpsp' Capital Spacing in Latin lookup 0 subtable" dx=0 dy=0 dh=0 dv=0
EndChar

StartChar: S
Encoding: 83 83 398
Width: 1190
GlyphClass: 2
Flags: W
AnchorPoint: "Anchor-3" 597 0 basechar 0
AnchorPoint: "Anchor-1" 596 1490 basechar 0
AnchorPoint: "Anchor-0" 597 0 basechar 0
LayerCount: 2
Fore
SplineSet
591 -23 m 0,0,1
 455 -23 455 -23 353.5 24.5 c 128,-1,2
 252 72 252 72 193 156 c 128,-1,3
 134 240 134 240 126 350 c 1,4,-1
 173 350 l 1,5,6
 180 253 180 253 232.5 179.5 c 128,-1,7
 285 106 285 106 377 65 c 128,-1,8
 469 24 469 24 591 24 c 0,9,10
 720 24 720 24 816 68.5 c 128,-1,11
 912 113 912 113 965.5 193 c 128,-1,12
 1019 273 1019 273 1019 379 c 0,13,14
 1019 459 1019 459 983.5 519.5 c 128,-1,15
 948 580 948 580 874 627 c 128,-1,16
 800 674 800 674 679 711 c 2,17,-1
 510 763 l 2,18,19
 334 818 334 818 247 909 c 128,-1,20
 160 1000 160 1000 160 1129 c 0,21,22
 160 1238 160 1238 218 1325 c 128,-1,23
 276 1412 276 1412 376 1462 c 128,-1,24
 476 1512 476 1512 602 1512 c 0,25,26
 730 1512 730 1512 827 1461.5 c 128,-1,27
 924 1411 924 1411 980.5 1322 c 128,-1,28
 1037 1233 1037 1233 1044 1118 c 1,29,-1
 998 1118 l 1,30,31
 988 1271 988 1271 882 1369 c 128,-1,32
 776 1467 776 1467 602 1467 c 0,33,34
 489 1467 489 1467 399 1423 c 128,-1,35
 309 1379 309 1379 258 1303 c 128,-1,36
 207 1227 207 1227 207 1129 c 0,37,38
 207 1054 207 1054 240.5 993 c 128,-1,39
 274 932 274 932 344 887 c 128,-1,40
 414 842 414 842 520 809 c 2,41,-1
 690 756 l 2,42,43
 787 727 787 727 857 690 c 128,-1,44
 927 653 927 653 973.5 606.5 c 128,-1,45
 1020 560 1020 560 1042 503.5 c 128,-1,46
 1064 447 1064 447 1064 378 c 0,47,48
 1064 263 1064 263 1004.5 172 c 128,-1,49
 945 81 945 81 839 29 c 128,-1,50
 733 -23 733 -23 591 -23 c 0,0,1
EndSplineSet
Substitution2: "'ss06' Style Set 6 in Latin lookup 52 subtable" S.squared
Substitution2: "'ss05' Style Set 5 in Latin lookup 51 subtable" uni24C8
Position2: "'cpsp' Capital Spacing in Latin lookup 0 subtable" dx=0 dy=0 dh=0 dv=0
EndChar

StartChar: uni01A7
Encoding: 423 423 410
Width: 1190
GlyphClass: 2
Flags: W
AnchorPoint: "Anchor-3" 595 0 basechar 0
AnchorPoint: "Anchor-1" 594 1490 basechar 0
AnchorPoint: "Anchor-0" 595 0 basechar 0
LayerCount: 2
Fore
SplineSet
601 -23 m 0,0,1
 459 -23 459 -23 352 29 c 128,-1,2
 245 81 245 81 185.5 172 c 128,-1,3
 126 263 126 263 126 378 c 0,4,5
 126 447 126 447 149 503.5 c 128,-1,6
 172 560 172 560 217.5 606.5 c 128,-1,7
 263 653 263 653 334 690 c 128,-1,8
 405 727 405 727 500 756 c 2,9,-1
 670 809 l 2,10,11
 778 842 778 842 847.5 887 c 128,-1,12
 917 932 917 932 951 993 c 128,-1,13
 985 1054 985 1054 985 1129 c 0,14,15
 985 1227 985 1227 933 1303 c 128,-1,16
 881 1379 881 1379 791.5 1423 c 128,-1,17
 702 1467 702 1467 588 1467 c 0,18,19
 415 1467 415 1467 309.5 1369 c 128,-1,20
 204 1271 204 1271 192 1118 c 1,21,-1
 146 1118 l 1,22,23
 154 1233 154 1233 211 1322 c 128,-1,24
 268 1411 268 1411 364.5 1461.5 c 128,-1,25
 461 1512 461 1512 588 1512 c 256,26,27
 715 1512 715 1512 815.5 1462 c 128,-1,28
 916 1412 916 1412 973 1325 c 128,-1,29
 1030 1238 1030 1238 1030 1129 c 0,30,31
 1030 1000 1030 1000 943 909 c 128,-1,32
 856 818 856 818 680 763 c 2,33,-1
 513 711 l 2,34,35
 393 674 393 674 317.5 627 c 128,-1,36
 242 580 242 580 207.5 519.5 c 128,-1,37
 173 459 173 459 173 379 c 0,38,39
 173 273 173 273 226.5 193 c 128,-1,40
 280 113 280 113 376.5 68.5 c 128,-1,41
 473 24 473 24 601 24 c 0,42,43
 724 24 724 24 814.5 65 c 128,-1,44
 905 106 905 106 958 179.5 c 128,-1,45
 1011 253 1011 253 1019 350 c 1,46,-1
 1064 350 l 1,47,48
 1057 240 1057 240 998.5 156 c 128,-1,49
 940 72 940 72 838.5 24.5 c 128,-1,50
 737 -23 737 -23 601 -23 c 0,0,1
EndSplineSet
Position2: "'cpsp' Capital Spacing in Latin lookup 0 subtable" dx=0 dy=0 dh=0 dv=0
EndChar

StartChar: uni1E9E
Encoding: 7838 7838 411
Width: 1186
Flags: W
LayerCount: 2
Fore
SplineSet
200 0 m 1,0,-1
 200 1121 l 2,1,2
 201 1239 201 1239 247.5 1327 c 128,-1,3
 294 1415 294 1415 378.5 1462.5 c 128,-1,4
 463 1510 463 1510 579 1510 c 0,5,6
 650 1510 650 1510 719 1489.5 c 128,-1,7
 788 1469 788 1469 849.5 1430 c 128,-1,8
 911 1391 911 1391 958 1336 c 1,9,-1
 586 803 l 1,10,11
 741 803 741 803 846 757.5 c 128,-1,12
 951 712 951 712 1005.5 626 c 128,-1,13
 1060 540 1060 540 1060 415 c 0,14,15
 1060 286 1060 286 1008 193.5 c 128,-1,16
 956 101 956 101 859 50.5 c 128,-1,17
 762 0 762 0 629 0 c 0,18,19
 579 0 579 0 531 9 c 128,-1,20
 483 18 483 18 438 33 c 1,21,-1
 454 76 l 1,22,23
 490 62 490 62 536.5 54.5 c 128,-1,24
 583 47 583 47 640 47 c 0,25,26
 812 47 812 47 914 145 c 128,-1,27
 1016 243 1016 243 1016 409 c 0,28,29
 1016 498 1016 498 987.5 564 c 128,-1,30
 959 630 959 630 902 674 c 128,-1,31
 845 718 845 718 758 739 c 128,-1,32
 671 760 671 760 554 760 c 2,33,-1
 533 760 l 1,34,-1
 533 807 l 1,35,-1
 901 1334 l 1,36,37
 829 1396 829 1396 742.5 1430.5 c 128,-1,38
 656 1465 656 1465 571 1465 c 0,39,40
 471 1465 471 1465 398 1422 c 128,-1,41
 325 1379 325 1379 286.5 1299 c 128,-1,42
 248 1219 248 1219 248 1109 c 2,43,-1
 248 0 l 1,44,-1
 200 0 l 1,0,-1
EndSplineSet
Position2: "'cpsp' Capital Spacing in Latin lookup 0 subtable" dx=0 dy=0 dh=0 dv=0
EndChar

StartChar: T
Encoding: 84 84 412
Width: 1234
GlyphClass: 2
Flags: W
AnchorPoint: "Anchor-3" 617 0 basechar 0
AnchorPoint: "Anchor-1" 616 1490 basechar 0
AnchorPoint: "Anchor-0" 617 0 basechar 0
LayerCount: 2
Fore
SplineSet
94 1444 m 1,0,-1
 94 1490 l 1,1,-1
 1140 1490 l 1,2,-1
 1140 1444 l 1,3,-1
 641 1444 l 1,4,-1
 641 0 l 1,5,-1
 595 0 l 1,6,-1
 595 1444 l 1,7,-1
 94 1444 l 1,0,-1
EndSplineSet
Substitution2: "'c2sc' Capitals to Small Capitals in Latin lookup 68 subtable" t.sc
Substitution2: "'ss06' Style Set 6 in Latin lookup 52 subtable" T.squared
Substitution2: "'ss05' Style Set 5 in Latin lookup 51 subtable" uni24C9
Substitution2: "'aalt' Access All Alternates in Latin lookup 0 subtable" t.sc
Position2: "'cpsp' Capital Spacing in Latin lookup 0 subtable" dx=0 dy=0 dh=0 dv=0
EndChar

StartChar: uni01AC
Encoding: 428 428 420
Width: 1210
GlyphClass: 2
Flags: W
AnchorPoint: "Anchor-1" 613 1490 basechar 0
LayerCount: 2
Fore
SplineSet
105 1118 m 1,0,-1
 105 1280 l 2,1,2
 105 1383 105 1383 156 1436.5 c 128,-1,3
 207 1490 207 1490 301 1490 c 2,4,-1
 411 1490 l 1,5,-1
 411 1445 l 1,6,-1
 306 1445 l 2,7,8
 226 1445 226 1445 188.5 1404.5 c 128,-1,9
 151 1364 151 1364 151 1280 c 2,10,-1
 151 1118 l 1,11,-1
 105 1118 l 1,0,-1
411 1445 m 1,12,-1
 411 1490 l 1,13,-1
 1116 1490 l 1,14,-1
 1116 1445 l 1,15,-1
 635 1445 l 1,16,-1
 635 0 l 1,17,-1
 589 0 l 1,18,-1
 589 1445 l 1,19,-1
 411 1445 l 1,12,-1
EndSplineSet
Position2: "'cpsp' Capital Spacing in Latin lookup 0 subtable" dx=0 dy=0 dh=0 dv=0
EndChar

StartChar: uni01AC.base
Encoding: 60940 60940 421
Width: 1195
GlyphClass: 2
Flags: W
AnchorPoint: "Anchor-1" 598 1490 basechar 0
LayerCount: 2
Fore
SplineSet
396 1445 m 1,0,-1
 396 1490 l 1,1,-1
 1101 1490 l 1,2,-1
 1101 1445 l 1,3,-1
 620 1445 l 1,4,-1
 620 0 l 1,5,-1
 574 0 l 1,6,-1
 574 1445 l 1,7,-1
 396 1445 l 1,0,-1
EndSplineSet
EndChar

StartChar: Trthook
Encoding: 430 430 422
Width: 1234
GlyphClass: 2
Flags: W
AnchorPoint: "Anchor-3" 617 0 basechar 0
AnchorPoint: "Anchor-1" 616 1490 basechar 0
AnchorPoint: "Anchor-0" 617 0 basechar 0
LayerCount: 2
Fore
SplineSet
779 -417 m 0,0,1
 686 -417 686 -417 640.5 -369.5 c 128,-1,2
 595 -322 595 -322 595 -219 c 2,3,-1
 595 157 l 1,4,-1
 641 157 l 1,5,-1
 641 -219 l 2,6,7
 641 -302 641 -302 673.5 -337 c 128,-1,8
 706 -372 706 -372 779 -372 c 0,9,10
 792 -372 792 -372 811.5 -372 c 128,-1,11
 831 -372 831 -372 851 -372 c 1,12,-1
 851 -418 l 1,13,14
 834 -418 834 -418 813.5 -417.5 c 128,-1,15
 793 -417 793 -417 779 -417 c 0,0,1
94 1444 m 1,16,-1
 94 1490 l 1,17,-1
 1140 1490 l 1,18,-1
 1140 1444 l 1,19,-1
 641 1444 l 1,20,-1
 641 0 l 1,21,-1
 595 0 l 1,22,-1
 595 1444 l 1,23,-1
 94 1444 l 1,16,-1
EndSplineSet
Position2: "'cpsp' Capital Spacing in Latin lookup 0 subtable" dx=0 dy=0 dh=0 dv=0
EndChar

StartChar: uni023E
Encoding: 574 574 423
Width: 1234
GlyphClass: 2
Flags: W
AnchorPoint: "Anchor-3" 617 0 basechar 0
AnchorPoint: "Anchor-1" 616 1490 basechar 0
AnchorPoint: "Anchor-0" 617 0 basechar 0
LayerCount: 2
Fore
SplineSet
234 -190 m 1,0,-1
 954 1678 l 1,1,-1
 1002 1678 l 1,2,-1
 282 -190 l 1,3,-1
 234 -190 l 1,0,-1
94 1444 m 1,4,-1
 94 1490 l 1,5,-1
 1140 1490 l 1,6,-1
 1140 1444 l 1,7,-1
 641 1444 l 1,8,-1
 641 0 l 1,9,-1
 595 0 l 1,10,-1
 595 1444 l 1,11,-1
 94 1444 l 1,4,-1
EndSplineSet
Position2: "'cpsp' Capital Spacing in Latin lookup 0 subtable" dx=0 dy=0 dh=0 dv=0
EndChar

StartChar: U
Encoding: 85 85 425
Width: 1412
GlyphClass: 2
Flags: W
AnchorPoint: "Anchor-4" 1242 508 basechar 0
AnchorPoint: "Anchor-1" 707 1490 basechar 0
AnchorPoint: "Anchor-0" 707 0 basechar 0
LayerCount: 2
Fore
SplineSet
707 -19 m 0,0,1
 554 -19 554 -19 432.5 49.5 c 128,-1,2
 311 118 311 118 240.5 237 c 128,-1,3
 170 356 170 356 170 508 c 2,4,-1
 170 1490 l 1,5,-1
 216 1490 l 1,6,-1
 216 507 l 2,7,8
 216 369 216 369 280.5 261 c 128,-1,9
 345 153 345 153 455.5 90 c 128,-1,10
 566 27 566 27 706 27 c 0,11,12
 847 27 847 27 957.5 89.5 c 128,-1,13
 1068 152 1068 152 1132 260.5 c 128,-1,14
 1196 369 1196 369 1196 507 c 2,15,-1
 1196 1490 l 1,16,-1
 1242 1490 l 1,17,-1
 1242 508 l 2,18,19
 1242 356 1242 356 1172 237 c 128,-1,20
 1102 118 1102 118 980.5 49.5 c 128,-1,21
 859 -19 859 -19 707 -19 c 0,0,1
EndSplineSet
Substitution2: "'ss06' Style Set 6 in Latin lookup 52 subtable" U.squared
Substitution2: "'ss05' Style Set 5 in Latin lookup 51 subtable" uni24CA
Position2: "'cpsp' Capital Spacing in Latin lookup 0 subtable" dx=0 dy=0 dh=0 dv=0
EndChar

StartChar: Uhorn
Encoding: 431 431 426
Width: 1444
GlyphClass: 2
Flags: W
AnchorPoint: "Anchor-4" 1242 508 basechar 0
AnchorPoint: "Anchor-1" 707 1490 basechar 0
AnchorPoint: "Anchor-0" 707 0 basechar 0
LayerCount: 2
Fore
SplineSet
1212 1444 m 1,0,-1
 1212 1490 l 1,1,-1
 1325 1490 l 2,2,3
 1402 1490 1402 1490 1402 1567 c 2,4,-1
 1402 1714 l 1,5,-1
 1448 1714 l 1,6,-1
 1448 1567 l 2,7,8
 1448 1508 1448 1508 1416 1476 c 128,-1,9
 1384 1444 1384 1444 1325 1444 c 2,10,-1
 1212 1444 l 1,0,-1
707 -19 m 0,11,12
 554 -19 554 -19 432.5 49.5 c 128,-1,13
 311 118 311 118 240.5 237 c 128,-1,14
 170 356 170 356 170 508 c 2,15,-1
 170 1490 l 1,16,-1
 216 1490 l 1,17,-1
 216 507 l 2,18,19
 216 369 216 369 280.5 261 c 128,-1,20
 345 153 345 153 455.5 90 c 128,-1,21
 566 27 566 27 706 27 c 0,22,23
 847 27 847 27 957.5 89.5 c 128,-1,24
 1068 152 1068 152 1132 260.5 c 128,-1,25
 1196 369 1196 369 1196 507 c 2,26,-1
 1196 1490 l 1,27,-1
 1242 1490 l 1,28,-1
 1242 508 l 2,29,30
 1242 356 1242 356 1172 237 c 128,-1,31
 1102 118 1102 118 980.5 49.5 c 128,-1,32
 859 -19 859 -19 707 -19 c 0,11,12
EndSplineSet
Position2: "'cpsp' Capital Spacing in Latin lookup 0 subtable" dx=0 dy=0 dh=0 dv=0
EndChar

StartChar: uni0244
Encoding: 580 580 456
Width: 1416
GlyphClass: 2
Flags: W
AnchorPoint: "Anchor-4" 1204 508 basechar 0
AnchorPoint: "Anchor-1" 669 1490 basechar 0
AnchorPoint: "Anchor-0" 669 0 basechar 0
LayerCount: 2
Fore
SplineSet
1452 876 m 1,0,-1
 1452 830 l 1,1,-1
 -34 830 l 1,2,-1
 -34 876 l 1,3,-1
 1452 876 l 1,0,-1
669 -19 m 0,4,5
 516 -19 516 -19 394.5 49.5 c 128,-1,6
 273 118 273 118 202.5 237 c 128,-1,7
 132 356 132 356 132 508 c 2,8,-1
 132 1490 l 1,9,-1
 178 1490 l 1,10,-1
 178 507 l 2,11,12
 178 369 178 369 242.5 261 c 128,-1,13
 307 153 307 153 417.5 90 c 128,-1,14
 528 27 528 27 668 27 c 0,15,16
 809 27 809 27 919.5 89.5 c 128,-1,17
 1030 152 1030 152 1094 260.5 c 128,-1,18
 1158 369 1158 369 1158 507 c 2,19,-1
 1158 1490 l 1,20,-1
 1204 1490 l 1,21,-1
 1204 508 l 2,22,23
 1204 356 1204 356 1134 237 c 128,-1,24
 1064 118 1064 118 942.5 49.5 c 128,-1,25
 821 -19 821 -19 669 -19 c 0,4,5
EndSplineSet
Position2: "'cpsp' Capital Spacing in Latin lookup 0 subtable" dx=0 dy=0 dh=0 dv=0
EndChar

StartChar: V
Encoding: 86 86 457
Width: 1265
GlyphClass: 2
Flags: W
AnchorPoint: "Anchor-1" 633 1490 basechar 0
AnchorPoint: "Anchor-0" 633 0 basechar 0
LayerCount: 2
Fore
SplineSet
601 0 m 1,0,-1
 43 1490 l 1,1,-1
 92 1490 l 1,2,-1
 525 336 l 2,3,4
 554 257 554 257 583.5 176.5 c 128,-1,5
 613 96 613 96 643 16 c 1,6,-1
 624 16 l 1,7,8
 654 97 654 97 683.5 177 c 128,-1,9
 713 257 713 257 742 336 c 2,10,-1
 1173 1490 l 1,11,-1
 1222 1490 l 1,12,-1
 665 0 l 1,13,-1
 601 0 l 1,0,-1
EndSplineSet
Substitution2: "'ss06' Style Set 6 in Latin lookup 52 subtable" V.squared
Substitution2: "'ss05' Style Set 5 in Latin lookup 51 subtable" uni24CB
Position2: "'cpsp' Capital Spacing in Latin lookup 0 subtable" dx=0 dy=0 dh=0 dv=0
EndChar

StartChar: W
Encoding: 87 87 460
Width: 1856
GlyphClass: 2
Flags: W
AnchorPoint: "Anchor-1" 929 1490 basechar 0
AnchorPoint: "Anchor-0" 929 0 basechar 0
LayerCount: 2
Fore
SplineSet
465 0 m 1,0,-1
 43 1490 l 1,1,-1
 91 1490 l 1,2,-1
 414 352 l 2,3,4
 430 297 430 297 445.5 240.5 c 128,-1,5
 461 184 461 184 476 128.5 c 128,-1,6
 491 73 491 73 507 17 c 1,7,-1
 495 17 l 1,8,9
 509 73 509 73 524 128.5 c 128,-1,10
 539 184 539 184 553.5 240.5 c 128,-1,11
 568 297 568 297 583 352 c 2,12,-1
 894 1490 l 1,13,-1
 964 1490 l 1,14,-1
 1273 352 l 2,15,16
 1289 297 1289 297 1303.5 240.5 c 128,-1,17
 1318 184 1318 184 1333 128.5 c 128,-1,18
 1348 73 1348 73 1363 17 c 1,19,-1
 1351 17 l 1,20,21
 1366 73 1366 73 1381.5 128.5 c 128,-1,22
 1397 184 1397 184 1412.5 240.5 c 128,-1,23
 1428 297 1428 297 1444 352 c 2,24,-1
 1765 1490 l 1,25,-1
 1813 1490 l 1,26,-1
 1391 0 l 1,27,-1
 1322 0 l 1,28,-1
 1020 1104 l 2,29,30
 995 1196 995 1196 971 1288.5 c 128,-1,31
 947 1381 947 1381 922 1473 c 1,32,-1
 934 1473 l 1,33,34
 911 1381 911 1381 886.5 1288.5 c 128,-1,35
 862 1196 862 1196 837 1104 c 2,36,-1
 535 0 l 1,37,-1
 465 0 l 1,0,-1
EndSplineSet
Substitution2: "'ss06' Style Set 6 in Latin lookup 52 subtable" W.squared
Substitution2: "'ss05' Style Set 5 in Latin lookup 51 subtable" uni24CC
Position2: "'cpsp' Capital Spacing in Latin lookup 0 subtable" dx=0 dy=0 dh=0 dv=0
EndChar

StartChar: X
Encoding: 88 88 467
Width: 1230
GlyphClass: 2
Flags: W
AnchorPoint: "Anchor-1" 615 1490 basechar 0
AnchorPoint: "Anchor-0" 615 0 basechar 0
LayerCount: 2
Fore
SplineSet
46 0 m 1,0,-1
 599 774 l 1,1,-1
 599 740 l 1,2,-1
 62 1490 l 1,3,-1
 118 1490 l 1,4,-1
 452 1024 l 2,5,6
 482 983 482 983 510.5 942.5 c 128,-1,7
 539 902 539 902 568.5 861 c 128,-1,8
 598 820 598 820 625 777 c 1,9,-1
 605 777 l 1,10,11
 634 820 634 820 662.5 861.5 c 128,-1,12
 691 903 691 903 720 943 c 128,-1,13
 749 983 749 983 778 1024 c 2,14,-1
 1112 1490 l 1,15,-1
 1168 1490 l 1,16,-1
 631 740 l 1,17,-1
 631 774 l 1,18,-1
 1184 0 l 1,19,-1
 1128 0 l 1,20,-1
 774 496 l 2,21,22
 745 536 745 536 717 576 c 128,-1,23
 689 616 689 616 661 656 c 128,-1,24
 633 696 633 696 606 736 c 1,25,-1
 624 736 l 1,26,27
 596 696 596 696 568.5 655.5 c 128,-1,28
 541 615 541 615 513.5 576 c 128,-1,29
 486 537 486 537 457 496 c 2,30,-1
 102 0 l 1,31,-1
 46 0 l 1,0,-1
EndSplineSet
Substitution2: "'ss06' Style Set 6 in Latin lookup 52 subtable" X.squared
Substitution2: "'ss05' Style Set 5 in Latin lookup 51 subtable" uni24CD
Position2: "'cpsp' Capital Spacing in Latin lookup 0 subtable" dx=0 dy=0 dh=0 dv=0
EndChar

StartChar: Y
Encoding: 89 89 473
Width: 1266
GlyphClass: 2
Flags: W
AnchorPoint: "Anchor-4" 657 0 basechar 0
AnchorPoint: "Anchor-1" 634 1490 basechar 0
AnchorPoint: "Anchor-0" 634 0 basechar 0
LayerCount: 2
Fore
SplineSet
611 0 m 1,0,-1
 611 706 l 1,1,-1
 43 1490 l 1,2,-1
 99 1490 l 1,3,-1
 460 993 l 2,4,5
 508 928 508 928 552.5 864.5 c 128,-1,6
 597 801 597 801 644 737 c 1,7,-1
 625 737 l 1,8,9
 671 801 671 801 717 864.5 c 128,-1,10
 763 928 763 928 808 993 c 2,11,-1
 1167 1490 l 1,12,-1
 1223 1490 l 1,13,-1
 657 706 l 1,14,-1
 657 0 l 1,15,-1
 611 0 l 1,0,-1
EndSplineSet
Substitution2: "'c2sc' Capitals to Small Capitals in Latin lookup 68 subtable" y.sc
Substitution2: "'ss06' Style Set 6 in Latin lookup 52 subtable" Y.squared
Substitution2: "'ss05' Style Set 5 in Latin lookup 51 subtable" uni24CE
Substitution2: "'aalt' Access All Alternates in Latin lookup 0 subtable" y.sc
Position2: "'cpsp' Capital Spacing in Latin lookup 0 subtable" dx=0 dy=0 dh=0 dv=0
EndChar

StartChar: uni01B3
Encoding: 435 435 474
Width: 1210
Flags: W
LayerCount: 2
Fore
SplineSet
536 724 m 1,0,-1
 536 760 l 1,1,-1
 570 760 l 1,2,-1
 570 724 l 1,3,-1
 536 724 l 1,0,-1
-6 1490 m 1,4,-1
 52 1490 l 1,5,-1
 552 756 l 1,6,-1
 1016 1435 l 2,7,8
 1049 1479 1049 1479 1096.5 1497 c 128,-1,9
 1144 1515 1144 1515 1190.5 1509 c 128,-1,10
 1237 1503 1237 1503 1260 1476 c 1,11,-1
 1228 1447 l 1,12,13
 1191 1469 1191 1469 1139 1459.5 c 128,-1,14
 1087 1450 1087 1450 1049 1394 c 2,15,-1
 577 707 l 1,16,-1
 577 0 l 1,17,-1
 531 0 l 1,18,-1
 531 707 l 1,19,-1
 -6 1490 l 1,4,-1
EndSplineSet
Position2: "'cpsp' Capital Spacing in Latin lookup 0 subtable" dx=0 dy=0 dh=0 dv=0
EndChar

StartChar: uni024E
Encoding: 590 590 484
Width: 1184
GlyphClass: 2
Flags: W
AnchorPoint: "Anchor-4" 657 0 basechar 0
AnchorPoint: "Anchor-1" 634 1490 basechar 0
AnchorPoint: "Anchor-0" 634 0 basechar 0
LayerCount: 2
Fore
SplineSet
1224 1174 m 1,0,-1
 1224 1128 l 1,1,-1
 -38 1128 l 1,2,-1
 -38 1174 l 1,3,-1
 1224 1174 l 1,0,-1
611 0 m 1,4,-1
 611 706 l 1,5,-1
 43 1490 l 1,6,-1
 99 1490 l 1,7,-1
 460 993 l 2,8,9
 508 928 508 928 552.5 864.5 c 128,-1,10
 597 801 597 801 644 737 c 1,11,-1
 625 737 l 1,12,13
 671 801 671 801 717 864.5 c 128,-1,14
 763 928 763 928 808 993 c 2,15,-1
 1167 1490 l 1,16,-1
 1223 1490 l 1,17,-1
 657 706 l 1,18,-1
 657 0 l 1,19,-1
 611 0 l 1,4,-1
EndSplineSet
Position2: "'cpsp' Capital Spacing in Latin lookup 0 subtable" dx=0 dy=0 dh=0 dv=0
EndChar

StartChar: Z
Encoding: 90 90 497
Width: 1231
GlyphClass: 2
Flags: W
AnchorPoint: "Anchor-1" 615 1490 basechar 0
AnchorPoint: "Anchor-0" 615 0 basechar 0
LayerCount: 2
Fore
SplineSet
115 0 m 1,0,-1
 115 50 l 1,1,-1
 903 1215 l 2,2,3
 945 1277 945 1277 987 1339.5 c 128,-1,4
 1029 1402 1029 1402 1071 1464 c 1,5,-1
 1076 1444 l 1,6,7
 995 1444 995 1444 916 1443.5 c 128,-1,8
 837 1443 837 1443 756 1443 c 2,9,-1
 138 1443 l 1,10,-1
 138 1490 l 1,11,-1
 1111 1490 l 1,12,-1
 1111 1439 l 1,13,-1
 319 268 l 2,14,15
 278 208 278 208 237.5 147.5 c 128,-1,16
 197 87 197 87 155 27 c 1,17,-1
 150 47 l 1,18,19
 228 47 228 47 307 46.5 c 128,-1,20
 386 46 386 46 464 46 c 2,21,-1
 1117 46 l 1,22,-1
 1117 0 l 1,23,-1
 115 0 l 1,0,-1
EndSplineSet
Substitution2: "'ss06' Style Set 6 in Latin lookup 52 subtable" Z.squared
Substitution2: "'ss05' Style Set 5 in Latin lookup 51 subtable" uni24CF
Position2: "'cpsp' Capital Spacing in Latin lookup 0 subtable" dx=0 dy=0 dh=0 dv=0
EndChar

StartChar: uni0224
Encoding: 548 548 504
Width: 1231
GlyphClass: 2
Flags: W
AnchorPoint: "Anchor-1" 615 1490 basechar 0
AnchorPoint: "Anchor-0" 615 0 basechar 0
LayerCount: 2
Fore
SplineSet
861 -418 m 1,0,-1
 861 -371 l 1,1,2
 880 -372 880 -372 900 -372 c 128,-1,3
 920 -372 920 -372 933 -372 c 0,4,5
 1005 -372 1005 -372 1038 -337 c 128,-1,6
 1071 -302 1071 -302 1071 -219 c 2,7,-1
 1071 0 l 1,8,-1
 1117 0 l 1,9,-1
 1117 -219 l 2,10,11
 1117 -322 1117 -322 1071 -369.5 c 128,-1,12
 1025 -417 1025 -417 933 -417 c 0,13,14
 920 -417 920 -417 899 -417.5 c 128,-1,15
 878 -418 878 -418 861 -418 c 1,0,-1
115 0 m 1,16,-1
 115 50 l 1,17,-1
 903 1215 l 2,18,19
 945 1277 945 1277 987 1339.5 c 128,-1,20
 1029 1402 1029 1402 1071 1464 c 1,21,-1
 1076 1444 l 1,22,23
 995 1444 995 1444 916 1443.5 c 128,-1,24
 837 1443 837 1443 756 1443 c 2,25,-1
 138 1443 l 1,26,-1
 138 1490 l 1,27,-1
 1111 1490 l 1,28,-1
 1111 1439 l 1,29,-1
 319 268 l 2,30,31
 278 208 278 208 237.5 147.5 c 128,-1,32
 197 87 197 87 155 27 c 1,33,-1
 150 47 l 1,34,35
 228 47 228 47 307 46.5 c 128,-1,36
 386 46 386 46 464 46 c 2,37,-1
 1117 46 l 1,38,-1
 1117 0 l 1,39,-1
 115 0 l 1,16,-1
EndSplineSet
Position2: "'cpsp' Capital Spacing in Latin lookup 0 subtable" dx=0 dy=0 dh=0 dv=0
EndChar

StartChar: uni2C7F
Encoding: 11391 11391 507
Width: 1190
Flags: W
LayerCount: 2
Fore
SplineSet
963 -427 m 0,0,1
 897 -427 897 -427 838.5 -396 c 128,-1,2
 780 -365 780 -365 723 -316.5 c 128,-1,3
 666 -268 666 -268 606.5 -213.5 c 128,-1,4
 547 -159 547 -159 481 -110 c 128,-1,5
 415 -61 415 -61 338 -30.5 c 128,-1,6
 261 0 261 0 168 0 c 2,7,-1
 115 0 l 1,8,-1
 115 47 l 1,9,-1
 991 1443 l 1,10,-1
 121 1443 l 1,11,-1
 121 1490 l 1,12,-1
 1045 1490 l 1,13,-1
 1045 1443 l 1,14,-1
 170 47 l 1,15,16
 270 46 270 46 350.5 15.5 c 128,-1,17
 431 -15 431 -15 498.5 -64 c 128,-1,18
 566 -113 566 -113 626 -167.5 c 128,-1,19
 686 -222 686 -222 741.5 -270.5 c 128,-1,20
 797 -319 797 -319 852.5 -349.5 c 128,-1,21
 908 -380 908 -380 971 -380 c 0,22,23
 988 -380 988 -380 1005.5 -379.5 c 128,-1,24
 1023 -379 1023 -379 1040.5 -377 c 128,-1,25
 1058 -375 1058 -375 1075 -373 c 1,26,-1
 1075 -417 l 1,27,28
 1053 -420 1053 -420 1023 -423.5 c 128,-1,29
 993 -427 993 -427 963 -427 c 0,0,1
EndSplineSet
Position2: "'cpsp' Capital Spacing in Latin lookup 0 subtable" dx=0 dy=0 dh=0 dv=0
EndChar

StartChar: a
Encoding: 97 97 508
Width: 1040
GlyphClass: 2
Flags: W
AnchorPoint: "Anchor-4" 874 0 basechar 0
AnchorPoint: "Anchor-1" 506 1087 basechar 0
AnchorPoint: "Anchor-0" 511 0 basechar 0
LayerCount: 2
Fore
SplineSet
441 -20 m 0,0,1
 348 -20 348 -20 268.5 15 c 128,-1,2
 189 50 189 50 139.5 119.5 c 128,-1,3
 90 189 90 189 90 290 c 0,4,5
 90 352 90 352 111.5 401 c 128,-1,6
 133 450 133 450 181.5 488 c 128,-1,7
 230 526 230 526 313 552.5 c 128,-1,8
 396 579 396 579 521 595 c 0,9,10
 607 605 607 605 676.5 618.5 c 128,-1,11
 746 632 746 632 787 656.5 c 128,-1,12
 828 681 828 681 828 725 c 2,13,-1
 828 772 l 2,14,15
 828 856 828 856 786.5 920.5 c 128,-1,16
 745 985 745 985 671 1021 c 128,-1,17
 597 1057 597 1057 501 1057 c 0,18,19
 415 1057 415 1057 342.5 1027 c 128,-1,20
 270 997 270 997 223.5 942 c 128,-1,21
 177 887 177 887 165 815 c 1,22,-1
 120 825 l 1,23,24
 134 906 134 906 187 969 c 128,-1,25
 240 1032 240 1032 322 1067.5 c 128,-1,26
 404 1103 404 1103 502 1103 c 0,27,28
 585 1103 585 1103 653 1078.5 c 128,-1,29
 721 1054 721 1054 771 1009 c 128,-1,30
 821 964 821 964 847.5 903 c 128,-1,31
 874 842 874 842 874 772 c 2,32,-1
 874 0 l 1,33,-1
 829 0 l 1,34,-1
 829 222 l 1,35,-1
 825 222 l 1,36,37
 793 150 793 150 736 95.5 c 128,-1,38
 679 41 679 41 603.5 10.5 c 128,-1,39
 528 -20 528 -20 441 -20 c 0,0,1
440 27 m 0,40,41
 547 27 547 27 635 78 c 128,-1,42
 723 129 723 129 775.5 226.5 c 128,-1,43
 828 324 828 324 828 458 c 2,44,-1
 828 633 l 1,45,46
 807 616 807 616 778.5 603 c 128,-1,47
 750 590 750 590 714 581 c 128,-1,48
 678 572 678 572 632 564.5 c 128,-1,49
 586 557 586 557 530 550 c 0,50,51
 383 531 383 531 297 497.5 c 128,-1,52
 211 464 211 464 174 413.5 c 128,-1,53
 137 363 137 363 137 291 c 0,54,55
 137 208 137 208 177.5 149 c 128,-1,56
 218 90 218 90 287 58.5 c 128,-1,57
 356 27 356 27 440 27 c 0,40,41
EndSplineSet
Substitution2: "'smcp' Lowercase to Small Capitals in Latin lookup 69 subtable" a.sc
Substitution2: "'c2sc' Capitals to Small Capitals in Latin lookup 68 subtable" a.sc
Substitution2: "'cv11' Character Variants 11 in Latin lookup 65 subtable" a.1
Substitution2: "'salt' Stylistic Alternatives in Latin lookup 46 subtable" a.1
Substitution2: "Single Substitution lookup 44 subtable" ordfeminine
Substitution2: "'sups' Superscript in Latin lookup 39 subtable" a.sups
Substitution2: "'subs' Subscript in Latin lookup 38 subtable" a.subs
Substitution2: "'sinf' Scientific Inferiors in Latin lookup 18 subtable" a.subs
AlternateSubs2: "'aalt' Access All Alternates in Latin lookup 1 subtable" ordfeminine a.sups a.subs a.sc
EndChar

StartChar: aturn
Encoding: 592 592 540
Width: 1040
GlyphClass: 2
Flags: W
AnchorPoint: "Anchor-4" 166 1087 basechar 0
AnchorPoint: "Anchor-1" 552 1087 basechar 0
AnchorPoint: "Anchor-0" 556 0 basechar 0
LayerCount: 2
Fore
SplineSet
601 1107 m 0,0,1
 692 1107 692 1107 772.5 1072.5 c 128,-1,2
 853 1038 853 1038 901.5 969 c 128,-1,3
 950 900 950 900 950 797 c 0,4,5
 950 737 950 737 929.5 687.5 c 128,-1,6
 909 638 909 638 860 600.5 c 128,-1,7
 811 563 811 563 728 536 c 128,-1,8
 645 509 645 509 521 494 c 0,9,10
 435 483 435 483 364.5 469.5 c 128,-1,11
 294 456 294 456 253 431.5 c 128,-1,12
 212 407 212 407 212 364 c 2,13,-1
 212 317 l 2,14,15
 212 233 212 233 254.5 168.5 c 128,-1,16
 297 104 297 104 371 67 c 128,-1,17
 445 30 445 30 539 30 c 0,18,19
 627 30 627 30 698.5 61 c 128,-1,20
 770 92 770 92 817 146.5 c 128,-1,21
 864 201 864 201 875 272 c 1,22,-1
 920 264 l 1,23,24
 908 182 908 182 854 119 c 128,-1,25
 800 56 800 56 719 20 c 128,-1,26
 638 -16 638 -16 540 -16 c 0,27,28
 457 -16 457 -16 388.5 9.5 c 128,-1,29
 320 35 320 35 270.5 80 c 128,-1,30
 221 125 221 125 193.5 185 c 128,-1,31
 166 245 166 245 166 317 c 2,32,-1
 166 1087 l 1,33,-1
 213 1087 l 1,34,-1
 213 865 l 1,35,-1
 217 865 l 1,36,37
 249 938 249 938 305.5 993 c 128,-1,38
 362 1048 362 1048 437.5 1077.5 c 128,-1,39
 513 1107 513 1107 601 1107 c 0,0,1
600 1062 m 0,40,41
 495 1062 495 1062 406 1010 c 128,-1,42
 317 958 317 958 264.5 861.5 c 128,-1,43
 212 765 212 765 212 629 c 2,44,-1
 212 456 l 1,45,46
 234 473 234 473 262 485.5 c 128,-1,47
 290 498 290 498 326.5 507.5 c 128,-1,48
 363 517 363 517 409 524 c 128,-1,49
 455 531 455 531 512 539 c 0,50,51
 658 558 658 558 744.5 591 c 128,-1,52
 831 624 831 624 868 675 c 128,-1,53
 905 726 905 726 905 798 c 0,54,55
 905 881 905 881 864 940 c 128,-1,56
 823 999 823 999 754 1030.5 c 128,-1,57
 685 1062 685 1062 600 1062 c 0,40,41
EndSplineSet
EndChar

StartChar: ae
Encoding: 230 230 544
Width: 1824
GlyphClass: 2
Flags: W
AnchorPoint: "Anchor-1" 885 1087 basechar 0
LayerCount: 2
Fore
SplineSet
432 -20 m 0,0,1
 340 -20 340 -20 262.5 14.5 c 128,-1,2
 185 49 185 49 137.5 118.5 c 128,-1,3
 90 188 90 188 90 290 c 0,4,5
 90 372 90 372 125 428.5 c 128,-1,6
 160 485 160 485 222.5 520.5 c 128,-1,7
 285 556 285 556 370.5 573 c 128,-1,8
 456 590 456 590 559 590 c 2,9,-1
 1705 590 l 1,10,-1
 1687 576 l 1,11,12
 1687 712 1687 712 1633 821.5 c 128,-1,13
 1579 931 1579 931 1486.5 994 c 128,-1,14
 1394 1057 1394 1057 1276 1057 c 256,15,16
 1158 1057 1158 1057 1063 991 c 128,-1,17
 968 925 968 925 913.5 810.5 c 128,-1,18
 859 696 859 696 859 550 c 2,19,-1
 859 545 l 2,20,21
 859 399 859 399 911 281.5 c 128,-1,22
 963 164 963 164 1059.5 95 c 128,-1,23
 1156 26 1156 26 1287 26 c 0,24,25
 1384 26 1384 26 1459 62 c 128,-1,26
 1534 98 1534 98 1585 154 c 128,-1,27
 1636 210 1636 210 1658 270 c 1,28,-1
 1700 258 l 1,29,30
 1676 187 1676 187 1618.5 123.5 c 128,-1,31
 1561 60 1561 60 1477.5 20 c 128,-1,32
 1394 -20 1394 -20 1287 -20 c 0,33,34
 1155 -20 1155 -20 1052.5 45 c 128,-1,35
 950 110 950 110 888.5 223.5 c 128,-1,36
 827 337 827 337 815 483 c 1,37,-1
 815 601 l 1,38,39
 826 747 826 747 888 860 c 128,-1,40
 950 973 950 973 1050.5 1038 c 128,-1,41
 1151 1103 1151 1103 1276 1103 c 0,42,43
 1377 1103 1377 1103 1460 1063 c 128,-1,44
 1543 1023 1543 1023 1604 950 c 128,-1,45
 1665 877 1665 877 1698.5 780 c 128,-1,46
 1732 683 1732 683 1732 569 c 2,47,-1
 1732 544 l 1,48,-1
 559 544 l 2,49,50
 421 544 421 544 327 515.5 c 128,-1,51
 233 487 233 487 185 431 c 128,-1,52
 137 375 137 375 137 291 c 0,53,54
 137 168 137 168 221 97.5 c 128,-1,55
 305 27 305 27 432 27 c 0,56,57
 544 27 544 27 630 77.5 c 128,-1,58
 716 128 716 128 764 225 c 128,-1,59
 812 322 812 322 812 458 c 2,60,-1
 812 772 l 2,61,62
 812 856 812 856 772 920.5 c 128,-1,63
 732 985 732 985 660.5 1021 c 128,-1,64
 589 1057 589 1057 493 1057 c 0,65,66
 407 1057 407 1057 336.5 1027 c 128,-1,67
 266 997 266 997 221.5 942 c 128,-1,68
 177 887 177 887 165 815 c 1,69,-1
 120 825 l 1,70,71
 134 906 134 906 185 969 c 128,-1,72
 236 1032 236 1032 316 1067.5 c 128,-1,73
 396 1103 396 1103 494 1103 c 0,74,75
 604 1103 604 1103 685.5 1059.5 c 128,-1,76
 767 1016 767 1016 812 941.5 c 128,-1,77
 857 867 857 867 857 772 c 2,78,-1
 858 453 l 1,79,-1
 855 449 l 1,80,81
 855 329 855 329 820 241 c 128,-1,82
 785 153 785 153 726 95 c 128,-1,83
 667 37 667 37 591 8.5 c 128,-1,84
 515 -20 515 -20 432 -20 c 0,0,1
EndSplineSet
EndChar

StartChar: a.1
Encoding: 57388 57388 548
Width: 1154
GlyphClass: 2
Flags: W
AnchorPoint: "Anchor-4" 988 0 basechar 0
AnchorPoint: "Anchor-1" 557 1087 basechar 0
AnchorPoint: "Anchor-0" 565 0 basechar 0
LayerCount: 2
Fore
SplineSet
546 -20 m 0,0,1
 415 -20 415 -20 314 52 c 128,-1,2
 213 124 213 124 155.5 250.5 c 128,-1,3
 98 377 98 377 98 542 c 0,4,5
 98 706 98 706 155.5 833 c 128,-1,6
 213 960 213 960 314 1031.5 c 128,-1,7
 415 1103 415 1103 546 1103 c 0,8,9
 642 1103 642 1103 721.5 1064.5 c 128,-1,10
 801 1026 801 1026 858 958 c 128,-1,11
 915 890 915 890 939 802 c 1,12,-1
 943 802 l 1,13,-1
 943 1087 l 1,14,-1
 988 1087 l 1,15,-1
 988 0 l 1,16,-1
 942 0 l 1,17,-1
 942 281 l 1,18,-1
 939 281 l 1,19,20
 913 193 913 193 856.5 125 c 128,-1,21
 800 57 800 57 720.5 18.5 c 128,-1,22
 641 -20 641 -20 546 -20 c 0,0,1
546 26 m 0,23,24
 667 26 667 26 756 92 c 128,-1,25
 845 158 845 158 893.5 274.5 c 128,-1,26
 942 391 942 391 942 542 c 0,27,28
 942 694 942 694 893.5 810.5 c 128,-1,29
 845 927 845 927 756 992.5 c 128,-1,30
 667 1058 667 1058 546 1058 c 0,31,32
 429 1058 429 1058 338 992.5 c 128,-1,33
 247 927 247 927 196 811 c 128,-1,34
 145 695 145 695 145 542 c 0,35,36
 145 390 145 390 196 274 c 128,-1,37
 247 158 247 158 337.5 92 c 128,-1,38
 428 26 428 26 546 26 c 0,23,24
EndSplineSet
EndChar

StartChar: b
Encoding: 98 98 579
Width: 1154
GlyphClass: 2
Flags: W
AnchorPoint: "Anchor-1" 609 1283 basechar 0
AnchorPoint: "Anchor-0" 606 0 basechar 0
LayerCount: 2
Fore
SplineSet
610 -20 m 0,0,1
 515 -20 515 -20 435 18 c 128,-1,2
 355 56 355 56 298.5 124.5 c 128,-1,3
 242 193 242 193 216 281 c 1,4,-1
 212 281 l 1,5,-1
 212 0 l 1,6,-1
 166 0 l 1,7,-1
 166 1490 l 1,8,-1
 212 1490 l 1,9,-1
 212 802 l 1,10,-1
 216 802 l 1,11,12
 241 890 241 890 297.5 958.5 c 128,-1,13
 354 1027 354 1027 434.5 1065 c 128,-1,14
 515 1103 515 1103 609 1103 c 0,15,16
 740 1103 740 1103 841 1031.5 c 128,-1,17
 942 960 942 960 999 833 c 128,-1,18
 1056 706 1056 706 1056 542 c 0,19,20
 1056 377 1056 377 999.5 250.5 c 128,-1,21
 943 124 943 124 842.5 52 c 128,-1,22
 742 -20 742 -20 610 -20 c 0,0,1
609 26 m 0,23,24
 728 26 728 26 818 92 c 128,-1,25
 908 158 908 158 959.5 274 c 128,-1,26
 1011 390 1011 390 1011 542 c 256,27,28
 1011 694 1011 694 960 810.5 c 128,-1,29
 909 927 909 927 818.5 992.5 c 128,-1,30
 728 1058 728 1058 609 1058 c 256,31,32
 490 1058 490 1058 400.5 992.5 c 128,-1,33
 311 927 311 927 261.5 810.5 c 128,-1,34
 212 694 212 694 212 542 c 0,35,36
 212 391 212 391 261 274.5 c 128,-1,37
 310 158 310 158 399.5 92 c 128,-1,38
 489 26 489 26 609 26 c 0,23,24
EndSplineSet
Substitution2: "'sups' Superscript in Latin lookup 39 subtable" b.sups
Substitution2: "'subs' Subscript in Latin lookup 38 subtable" b.subs
Substitution2: "'sinf' Scientific Inferiors in Latin lookup 18 subtable" b.subs
AlternateSubs2: "'aalt' Access All Alternates in Latin lookup 1 subtable" b.sups b.subs
EndChar

StartChar: uni0183
Encoding: 387 387 581
Width: 1154
GlyphClass: 2
Flags: W
AnchorPoint: "Anchor-1" 609 1283 basechar 0
AnchorPoint: "Anchor-0" 606 0 basechar 0
LayerCount: 2
Fore
SplineSet
191 1445 m 1,0,-1
 166 1490 l 1,1,-1
 853 1490 l 1,2,-1
 853 1445 l 1,3,-1
 191 1445 l 1,0,-1
610 -20 m 0,4,5
 515 -20 515 -20 435 18 c 128,-1,6
 355 56 355 56 298.5 124.5 c 128,-1,7
 242 193 242 193 216 281 c 1,8,-1
 212 281 l 1,9,-1
 212 0 l 1,10,-1
 166 0 l 1,11,-1
 166 1490 l 1,12,-1
 212 1490 l 1,13,-1
 212 802 l 1,14,-1
 216 802 l 1,15,16
 241 890 241 890 297.5 958.5 c 128,-1,17
 354 1027 354 1027 434.5 1065 c 128,-1,18
 515 1103 515 1103 609 1103 c 0,19,20
 740 1103 740 1103 841 1031.5 c 128,-1,21
 942 960 942 960 999 833 c 128,-1,22
 1056 706 1056 706 1056 542 c 0,23,24
 1056 377 1056 377 999.5 250.5 c 128,-1,25
 943 124 943 124 842.5 52 c 128,-1,26
 742 -20 742 -20 610 -20 c 0,4,5
609 26 m 0,27,28
 728 26 728 26 818 92 c 128,-1,29
 908 158 908 158 959.5 274 c 128,-1,30
 1011 390 1011 390 1011 542 c 256,31,32
 1011 694 1011 694 960 810.5 c 128,-1,33
 909 927 909 927 818.5 992.5 c 128,-1,34
 728 1058 728 1058 609 1058 c 256,35,36
 490 1058 490 1058 400.5 992.5 c 128,-1,37
 311 927 311 927 261.5 810.5 c 128,-1,38
 212 694 212 694 212 542 c 0,39,40
 212 391 212 391 261 274.5 c 128,-1,41
 310 158 310 158 399.5 92 c 128,-1,42
 489 26 489 26 609 26 c 0,27,28
EndSplineSet
EndChar

StartChar: uni0253
Encoding: 595 595 582
Width: 1154
GlyphClass: 2
Flags: W
AnchorPoint: "Anchor-1" 304 1490 basechar 0
AnchorPoint: "Anchor-0" 449 114 basechar 0
LayerCount: 2
Fore
SplineSet
609 -20 m 0,0,1
 515 -20 515 -20 435 18 c 128,-1,2
 355 56 355 56 298.5 124.5 c 128,-1,3
 242 193 242 193 216 280 c 1,4,-1
 212 280 l 1,5,-1
 212 0 l 1,6,-1
 166 0 l 1,7,-1
 166 1087 l 1,8,-1
 212 1087 l 1,9,-1
 212 801 l 1,10,-1
 216 801 l 1,11,12
 241 890 241 890 297.5 958.5 c 128,-1,13
 354 1027 354 1027 434.5 1065 c 128,-1,14
 515 1103 515 1103 609 1103 c 0,15,16
 741 1103 741 1103 841.5 1031.5 c 128,-1,17
 942 960 942 960 999 833.5 c 128,-1,18
 1056 707 1056 707 1056 542 c 0,19,20
 1056 378 1056 378 999.5 251 c 128,-1,21
 943 124 943 124 842.5 52 c 128,-1,22
 742 -20 742 -20 609 -20 c 0,0,1
609 27 m 0,23,24
 728 27 728 27 818.5 92.5 c 128,-1,25
 909 158 909 158 959.5 274 c 128,-1,26
 1010 390 1010 390 1010 542 c 256,27,28
 1010 694 1010 694 959 810.5 c 128,-1,29
 908 927 908 927 818 992 c 128,-1,30
 728 1057 728 1057 609 1057 c 256,31,32
 490 1057 490 1057 400.5 992 c 128,-1,33
 311 927 311 927 261.5 810.5 c 128,-1,34
 212 694 212 694 212 542 c 0,35,36
 212 391 212 391 261 274.5 c 128,-1,37
 310 158 310 158 399.5 92.5 c 128,-1,38
 489 27 489 27 609 27 c 0,23,24
166 888 m 1,39,-1
 166 1293 l 2,40,41
 166 1395 166 1395 212.5 1442.5 c 128,-1,42
 259 1490 259 1490 350 1490 c 0,43,44
 365 1490 365 1490 385 1490.5 c 128,-1,45
 405 1491 405 1491 422 1491 c 1,46,-1
 422 1444 l 1,47,48
 404 1444 404 1444 384 1444 c 128,-1,49
 364 1444 364 1444 350 1444 c 0,50,51
 278 1444 278 1444 245 1409 c 128,-1,52
 212 1374 212 1374 212 1293 c 2,53,-1
 212 888 l 1,54,-1
 166 888 l 1,39,-1
EndSplineSet
EndChar

StartChar: thorn
Encoding: 254 254 586
Width: 1154
Flags: W
LayerCount: 2
Fore
SplineSet
610 -20 m 0,0,1
 515 -20 515 -20 435 18 c 128,-1,2
 355 56 355 56 298.5 124.5 c 128,-1,3
 242 193 242 193 216 281 c 1,4,-1
 212 281 l 1,5,-1
 212 -418 l 1,6,-1
 166 -418 l 1,7,-1
 166 1490 l 1,8,-1
 212 1490 l 1,9,-1
 212 802 l 1,10,-1
 216 802 l 1,11,12
 241 890 241 890 297.5 958.5 c 128,-1,13
 354 1027 354 1027 434.5 1065 c 128,-1,14
 515 1103 515 1103 609 1103 c 0,15,16
 740 1103 740 1103 841 1031.5 c 128,-1,17
 942 960 942 960 999 833 c 128,-1,18
 1056 706 1056 706 1056 542 c 0,19,20
 1056 377 1056 377 999.5 250.5 c 128,-1,21
 943 124 943 124 842.5 52 c 128,-1,22
 742 -20 742 -20 610 -20 c 0,0,1
609 26 m 0,23,24
 728 26 728 26 818 92 c 128,-1,25
 908 158 908 158 959.5 274 c 128,-1,26
 1011 390 1011 390 1011 542 c 256,27,28
 1011 694 1011 694 960 810.5 c 128,-1,29
 909 927 909 927 818.5 992.5 c 128,-1,30
 728 1058 728 1058 609 1058 c 256,31,32
 490 1058 490 1058 400.5 992.5 c 128,-1,33
 311 927 311 927 261.5 810.5 c 128,-1,34
 212 694 212 694 212 542 c 0,35,36
 212 391 212 391 261 274.5 c 128,-1,37
 310 158 310 158 399.5 92 c 128,-1,38
 489 26 489 26 609 26 c 0,23,24
EndSplineSet
EndChar

StartChar: c
Encoding: 99 99 587
Width: 1057
GlyphClass: 2
Flags: W
AnchorPoint: "Anchor-3" 563 0 basechar 0
AnchorPoint: "Anchor-1" 563 1087 basechar 0
AnchorPoint: "Anchor-0" 563 0 basechar 0
LayerCount: 2
Fore
SplineSet
563 -16 m 0,0,1
 429 -16 429 -16 324 57 c 128,-1,2
 219 130 219 130 158.5 256.5 c 128,-1,3
 98 383 98 383 98 544 c 0,4,5
 98 706 98 706 158.5 832 c 128,-1,6
 219 958 219 958 324 1030.5 c 128,-1,7
 429 1103 429 1103 563 1103 c 0,8,9
 649 1103 649 1103 718.5 1074 c 128,-1,10
 788 1045 788 1045 839 999 c 128,-1,11
 890 953 890 953 921 901.5 c 128,-1,12
 952 850 952 850 962 806 c 1,13,-1
 918 794 l 1,14,15
 909 834 909 834 881 879.5 c 128,-1,16
 853 925 853 925 807.5 965.5 c 128,-1,17
 762 1006 762 1006 701 1032 c 128,-1,18
 640 1058 640 1058 563 1058 c 0,19,20
 442 1058 442 1058 348 992 c 128,-1,21
 254 926 254 926 199.5 810 c 128,-1,22
 145 694 145 694 145 544 c 256,23,24
 145 394 145 394 199.5 278 c 128,-1,25
 254 162 254 162 348.5 96.5 c 128,-1,26
 443 31 443 31 563 31 c 0,27,28
 639 31 639 31 701 56.5 c 128,-1,29
 763 82 763 82 808.5 123 c 128,-1,30
 854 164 854 164 882.5 209 c 128,-1,31
 911 254 911 254 920 294 c 1,32,-1
 964 282 l 1,33,34
 954 239 954 239 923 187.5 c 128,-1,35
 892 136 892 136 840.5 90 c 128,-1,36
 789 44 789 44 719 14 c 128,-1,37
 649 -16 649 -16 563 -16 c 0,0,1
EndSplineSet
Substitution2: "'sups' Superscript in Latin lookup 39 subtable" c.sups
Substitution2: "'subs' Subscript in Latin lookup 38 subtable" c.subs
Substitution2: "'sinf' Scientific Inferiors in Latin lookup 18 subtable" c.subs
AlternateSubs2: "'aalt' Access All Alternates in Latin lookup 1 subtable" c.sups c.subs
EndChar

StartChar: uni023C
Encoding: 572 572 588
Width: 1057
GlyphClass: 2
Flags: W
AnchorPoint: "Anchor-3" 563 0 basechar 0
AnchorPoint: "Anchor-1" 563 1087 basechar 0
AnchorPoint: "Anchor-0" 563 0 basechar 0
LayerCount: 2
Fore
SplineSet
178 -418 m 1,0,-1
 867 1513 l 1,1,-1
 915 1513 l 1,2,-1
 226 -418 l 1,3,-1
 178 -418 l 1,0,-1
563 -16 m 0,4,5
 429 -16 429 -16 324 57 c 128,-1,6
 219 130 219 130 158.5 256.5 c 128,-1,7
 98 383 98 383 98 544 c 0,8,9
 98 706 98 706 158.5 832 c 128,-1,10
 219 958 219 958 324 1030.5 c 128,-1,11
 429 1103 429 1103 563 1103 c 0,12,13
 649 1103 649 1103 718.5 1074 c 128,-1,14
 788 1045 788 1045 839 999 c 128,-1,15
 890 953 890 953 921 901.5 c 128,-1,16
 952 850 952 850 962 806 c 1,17,-1
 918 794 l 1,18,19
 909 834 909 834 881 879.5 c 128,-1,20
 853 925 853 925 807.5 965.5 c 128,-1,21
 762 1006 762 1006 701 1032 c 128,-1,22
 640 1058 640 1058 563 1058 c 0,23,24
 442 1058 442 1058 348 992 c 128,-1,25
 254 926 254 926 199.5 810 c 128,-1,26
 145 694 145 694 145 544 c 256,27,28
 145 394 145 394 199.5 278 c 128,-1,29
 254 162 254 162 348.5 96.5 c 128,-1,30
 443 31 443 31 563 31 c 0,31,32
 639 31 639 31 701 56.5 c 128,-1,33
 763 82 763 82 808.5 123 c 128,-1,34
 854 164 854 164 882.5 209 c 128,-1,35
 911 254 911 254 920 294 c 1,36,-1
 964 282 l 1,37,38
 954 239 954 239 923 187.5 c 128,-1,39
 892 136 892 136 840.5 90 c 128,-1,40
 789 44 789 44 719 14 c 128,-1,41
 649 -16 649 -16 563 -16 c 0,4,5
EndSplineSet
Ligature2: "'ccmp' Glyph Composition/Decomposition in Latin lookup 6 subtable" c uni0338
EndChar

StartChar: uni0188
Encoding: 392 392 589
Width: 1110
GlyphClass: 2
Flags: W
AnchorPoint: "Anchor-3" 563 0 basechar 0
AnchorPoint: "Anchor-1" 563 1087 basechar 0
AnchorPoint: "Anchor-0" 563 0 basechar 0
LayerCount: 2
Fore
SplineSet
920 799 m 1,0,-1
 856 1034 l 2,1,2
 826 1132 826 1132 867.5 1187.5 c 128,-1,3
 909 1243 909 1243 1004 1243 c 0,4,5
 1017 1243 1017 1243 1037.5 1243.5 c 128,-1,6
 1058 1244 1058 1244 1076 1243 c 1,7,-1
 1076 1197 l 1,8,9
 1056 1198 1056 1198 1036 1197.5 c 128,-1,10
 1016 1197 1016 1197 1003 1197 c 0,11,12
 932 1197 932 1197 904 1159.5 c 128,-1,13
 876 1122 876 1122 898 1045 c 2,14,-1
 962 806 l 1,15,-1
 920 799 l 1,0,-1
563 -16 m 0,16,17
 429 -16 429 -16 324 57 c 128,-1,18
 219 130 219 130 158.5 256.5 c 128,-1,19
 98 383 98 383 98 544 c 0,20,21
 98 706 98 706 158.5 832 c 128,-1,22
 219 958 219 958 324 1030.5 c 128,-1,23
 429 1103 429 1103 563 1103 c 0,24,25
 649 1103 649 1103 718.5 1074 c 128,-1,26
 788 1045 788 1045 839 999 c 128,-1,27
 890 953 890 953 921 901.5 c 128,-1,28
 952 850 952 850 962 806 c 1,29,-1
 918 794 l 1,30,31
 909 834 909 834 881 879.5 c 128,-1,32
 853 925 853 925 807.5 965.5 c 128,-1,33
 762 1006 762 1006 701 1032 c 128,-1,34
 640 1058 640 1058 563 1058 c 0,35,36
 442 1058 442 1058 348 992 c 128,-1,37
 254 926 254 926 199.5 810 c 128,-1,38
 145 694 145 694 145 544 c 256,39,40
 145 394 145 394 199.5 278 c 128,-1,41
 254 162 254 162 348.5 96.5 c 128,-1,42
 443 31 443 31 563 31 c 0,43,44
 639 31 639 31 701 56.5 c 128,-1,45
 763 82 763 82 808.5 123 c 128,-1,46
 854 164 854 164 882.5 209 c 128,-1,47
 911 254 911 254 920 294 c 1,48,-1
 964 282 l 1,49,50
 954 239 954 239 923 187.5 c 128,-1,51
 892 136 892 136 840.5 90 c 128,-1,52
 789 44 789 44 719 14 c 128,-1,53
 649 -16 649 -16 563 -16 c 0,16,17
EndSplineSet
EndChar

StartChar: d
Encoding: 100 100 598
Width: 1154
GlyphClass: 2
Flags: W
AnchorPoint: "Anchor-1" 545 1283 basechar 0
LayerCount: 2
Fore
SplineSet
546 -20 m 0,0,1
 414 -20 414 -20 313 52 c 128,-1,2
 212 124 212 124 155 250.5 c 128,-1,3
 98 377 98 377 98 542 c 0,4,5
 98 706 98 706 155.5 833 c 128,-1,6
 213 960 213 960 314 1031.5 c 128,-1,7
 415 1103 415 1103 545 1103 c 0,8,9
 640 1103 640 1103 720.5 1065 c 128,-1,10
 801 1027 801 1027 858 958.5 c 128,-1,11
 915 890 915 890 939 802 c 1,12,-1
 942 802 l 1,13,-1
 942 1490 l 1,14,-1
 988 1490 l 1,15,-1
 988 0 l 1,16,-1
 942 0 l 1,17,-1
 942 281 l 1,18,-1
 939 281 l 1,19,20
 913 193 913 193 856.5 124.5 c 128,-1,21
 800 56 800 56 720.5 18 c 128,-1,22
 641 -20 641 -20 546 -20 c 0,0,1
545 26 m 0,23,24
 666 26 666 26 755 92 c 128,-1,25
 844 158 844 158 893 274.5 c 128,-1,26
 942 391 942 391 942 542 c 0,27,28
 942 694 942 694 893 810.5 c 128,-1,29
 844 927 844 927 755 992.5 c 128,-1,30
 666 1058 666 1058 545 1058 c 0,31,32
 428 1058 428 1058 337.5 992.5 c 128,-1,33
 247 927 247 927 196 810.5 c 128,-1,34
 145 694 145 694 145 542 c 256,35,36
 145 390 145 390 195.5 274 c 128,-1,37
 246 158 246 158 337 92 c 128,-1,38
 428 26 428 26 545 26 c 0,23,24
EndSplineSet
Substitution2: "'sups' Superscript in Latin lookup 39 subtable" d.sups
Substitution2: "'subs' Subscript in Latin lookup 38 subtable" d.subs
Substitution2: "'sinf' Scientific Inferiors in Latin lookup 18 subtable" d.subs
AlternateSubs2: "'aalt' Access All Alternates in Latin lookup 1 subtable" d.sups d.subs
EndChar

StartChar: drthook
Encoding: 598 598 600
Width: 1154
GlyphClass: 2
Flags: W
AnchorPoint: "Anchor-1" 545 1283 basechar 0
LayerCount: 2
Fore
SplineSet
1126 -417 m 0,0,1
 1035 -417 1035 -417 988.5 -369.5 c 128,-1,2
 942 -322 942 -322 942 -219 c 2,3,-1
 942 290 l 1,4,-1
 988 290 l 1,5,-1
 988 -219 l 2,6,7
 988 -302 988 -302 1021 -337 c 128,-1,8
 1054 -372 1054 -372 1126 -372 c 0,9,10
 1140 -372 1140 -372 1160 -372 c 128,-1,11
 1180 -372 1180 -372 1198 -372 c 1,12,-1
 1198 -418 l 1,13,14
 1181 -418 1181 -418 1161 -417.5 c 128,-1,15
 1141 -417 1141 -417 1126 -417 c 0,0,1
546 -20 m 0,16,17
 414 -20 414 -20 313 52 c 128,-1,18
 212 124 212 124 155 250.5 c 128,-1,19
 98 377 98 377 98 542 c 0,20,21
 98 706 98 706 155.5 833 c 128,-1,22
 213 960 213 960 314 1031.5 c 128,-1,23
 415 1103 415 1103 545 1103 c 0,24,25
 640 1103 640 1103 720.5 1065 c 128,-1,26
 801 1027 801 1027 858 958.5 c 128,-1,27
 915 890 915 890 939 802 c 1,28,-1
 942 802 l 1,29,-1
 942 1490 l 1,30,-1
 988 1490 l 1,31,-1
 988 0 l 1,32,-1
 942 0 l 1,33,-1
 942 281 l 1,34,-1
 939 281 l 1,35,36
 913 193 913 193 856.5 124.5 c 128,-1,37
 800 56 800 56 720.5 18 c 128,-1,38
 641 -20 641 -20 546 -20 c 0,16,17
545 26 m 0,39,40
 666 26 666 26 755 92 c 128,-1,41
 844 158 844 158 893 274.5 c 128,-1,42
 942 391 942 391 942 542 c 0,43,44
 942 694 942 694 893 810.5 c 128,-1,45
 844 927 844 927 755 992.5 c 128,-1,46
 666 1058 666 1058 545 1058 c 0,47,48
 428 1058 428 1058 337.5 992.5 c 128,-1,49
 247 927 247 927 196 810.5 c 128,-1,50
 145 694 145 694 145 542 c 256,51,52
 145 390 145 390 195.5 274 c 128,-1,53
 246 158 246 158 337 92 c 128,-1,54
 428 26 428 26 545 26 c 0,39,40
EndSplineSet
EndChar

StartChar: uni0257
Encoding: 599 599 601
Width: 1154
GlyphClass: 2
Flags: W
AnchorPoint: "Anchor-4" 988 0 basechar 0
AnchorPoint: "Anchor-1" 557 1087 basechar 0
AnchorPoint: "Anchor-0" 565 0 basechar 0
LayerCount: 2
Fore
SplineSet
942 857 m 1,0,-1
 942 1262 l 2,1,2
 942 1364 942 1364 988.5 1411.5 c 128,-1,3
 1035 1459 1035 1459 1126 1459 c 0,4,5
 1141 1459 1141 1459 1161 1459.5 c 128,-1,6
 1181 1460 1181 1460 1198 1460 c 1,7,-1
 1198 1413 l 1,8,9
 1180 1413 1180 1413 1160 1413 c 128,-1,10
 1140 1413 1140 1413 1126 1413 c 0,11,12
 1054 1413 1054 1413 1021 1378 c 128,-1,13
 988 1343 988 1343 988 1262 c 2,14,-1
 988 857 l 1,15,-1
 942 857 l 1,0,-1
546 -20 m 0,16,17
 415 -20 415 -20 314 52 c 128,-1,18
 213 124 213 124 155.5 250.5 c 128,-1,19
 98 377 98 377 98 542 c 0,20,21
 98 706 98 706 155.5 833 c 128,-1,22
 213 960 213 960 314 1031.5 c 128,-1,23
 415 1103 415 1103 546 1103 c 0,24,25
 642 1103 642 1103 721.5 1064.5 c 128,-1,26
 801 1026 801 1026 858 958 c 128,-1,27
 915 890 915 890 939 802 c 1,28,-1
 943 802 l 1,29,-1
 943 1087 l 1,30,-1
 988 1087 l 1,31,-1
 988 0 l 1,32,-1
 942 0 l 1,33,-1
 942 281 l 1,34,-1
 939 281 l 1,35,36
 913 193 913 193 856.5 125 c 128,-1,37
 800 57 800 57 720.5 18.5 c 128,-1,38
 641 -20 641 -20 546 -20 c 0,16,17
546 26 m 0,39,40
 667 26 667 26 756 92 c 128,-1,41
 845 158 845 158 893.5 274.5 c 128,-1,42
 942 391 942 391 942 542 c 0,43,44
 942 694 942 694 893.5 810.5 c 128,-1,45
 845 927 845 927 756 992.5 c 128,-1,46
 667 1058 667 1058 546 1058 c 0,47,48
 429 1058 429 1058 338 992.5 c 128,-1,49
 247 927 247 927 196 811 c 128,-1,50
 145 695 145 695 145 542 c 0,51,52
 145 390 145 390 196 274 c 128,-1,53
 247 158 247 158 337.5 92 c 128,-1,54
 428 26 428 26 546 26 c 0,39,40
EndSplineSet
EndChar

StartChar: uni018C
Encoding: 396 396 602
Width: 1154
GlyphClass: 2
Flags: W
AnchorPoint: "Anchor-1" 545 1283 basechar 0
LayerCount: 2
Fore
SplineSet
965 1445 m 1,0,-1
 302 1445 l 1,1,-1
 302 1490 l 1,2,-1
 988 1490 l 1,3,-1
 965 1445 l 1,0,-1
546 -20 m 0,4,5
 414 -20 414 -20 313 52 c 128,-1,6
 212 124 212 124 155 250.5 c 128,-1,7
 98 377 98 377 98 542 c 0,8,9
 98 706 98 706 155.5 833 c 128,-1,10
 213 960 213 960 314 1031.5 c 128,-1,11
 415 1103 415 1103 545 1103 c 0,12,13
 640 1103 640 1103 720.5 1065 c 128,-1,14
 801 1027 801 1027 858 958.5 c 128,-1,15
 915 890 915 890 939 802 c 1,16,-1
 942 802 l 1,17,-1
 942 1490 l 1,18,-1
 988 1490 l 1,19,-1
 988 0 l 1,20,-1
 942 0 l 1,21,-1
 942 281 l 1,22,-1
 939 281 l 1,23,24
 913 193 913 193 856.5 124.5 c 128,-1,25
 800 56 800 56 720.5 18 c 128,-1,26
 641 -20 641 -20 546 -20 c 0,4,5
545 26 m 0,27,28
 666 26 666 26 755 92 c 128,-1,29
 844 158 844 158 893 274.5 c 128,-1,30
 942 391 942 391 942 542 c 0,31,32
 942 694 942 694 893 810.5 c 128,-1,33
 844 927 844 927 755 992.5 c 128,-1,34
 666 1058 666 1058 545 1058 c 0,35,36
 428 1058 428 1058 337.5 992.5 c 128,-1,37
 247 927 247 927 196 810.5 c 128,-1,38
 145 694 145 694 145 542 c 256,39,40
 145 390 145 390 195.5 274 c 128,-1,41
 246 158 246 158 337 92 c 128,-1,42
 428 26 428 26 545 26 c 0,27,28
EndSplineSet
EndChar

StartChar: uni0221
Encoding: 545 545 603
Width: 1474
GlyphClass: 2
Flags: W
AnchorPoint: "Anchor-1" 545 1283 basechar 0
LayerCount: 2
Fore
SplineSet
1200 -410 m 0,0,1
 1126 -410 1126 -410 1067.5 -378.5 c 128,-1,2
 1009 -347 1009 -347 975.5 -291 c 128,-1,3
 942 -235 942 -235 942 -160 c 2,4,-1
 942 60 l 1,5,-1
 988 60 l 1,6,-1
 988 -160 l 2,7,8
 988 -253 988 -253 1048.5 -308 c 128,-1,9
 1109 -363 1109 -363 1200 -363 c 0,10,11
 1289 -363 1289 -363 1347.5 -314 c 128,-1,12
 1406 -265 1406 -265 1406 -184 c 0,13,14
 1406 -102 1406 -102 1345 -52 c 128,-1,15
 1284 -2 1284 -2 1197 -2 c 0,16,17
 1139 -2 1139 -2 1087 -30 c 128,-1,18
 1035 -58 1035 -58 980 -122 c 128,-1,19
 925 -186 925 -186 858 -293 c 2,20,-1
 795 -396 l 1,21,-1
 755 -371 l 1,22,-1
 820 -267 l 2,23,24
 930 -97 930 -97 1014.5 -26.5 c 128,-1,25
 1099 44 1099 44 1196 44 c 0,26,27
 1303 44 1303 44 1378 -19 c 128,-1,28
 1453 -82 1453 -82 1453 -184 c 256,29,30
 1453 -286 1453 -286 1380 -348 c 128,-1,31
 1307 -410 1307 -410 1200 -410 c 0,0,1
546 -20 m 0,32,33
 414 -20 414 -20 313 52 c 128,-1,34
 212 124 212 124 155 250.5 c 128,-1,35
 98 377 98 377 98 542 c 0,36,37
 98 706 98 706 155.5 833 c 128,-1,38
 213 960 213 960 314 1031.5 c 128,-1,39
 415 1103 415 1103 545 1103 c 0,40,41
 640 1103 640 1103 720.5 1065 c 128,-1,42
 801 1027 801 1027 858 958.5 c 128,-1,43
 915 890 915 890 939 802 c 1,44,-1
 942 802 l 1,45,-1
 942 1490 l 1,46,-1
 988 1490 l 1,47,-1
 988 0 l 1,48,-1
 942 0 l 1,49,-1
 942 281 l 1,50,-1
 939 281 l 1,51,52
 913 193 913 193 856.5 124.5 c 128,-1,53
 800 56 800 56 720.5 18 c 128,-1,54
 641 -20 641 -20 546 -20 c 0,32,33
545 26 m 0,55,56
 666 26 666 26 755 92 c 128,-1,57
 844 158 844 158 893 274.5 c 128,-1,58
 942 391 942 391 942 542 c 0,59,60
 942 694 942 694 893 810.5 c 128,-1,61
 844 927 844 927 755 992.5 c 128,-1,62
 666 1058 666 1058 545 1058 c 0,63,64
 428 1058 428 1058 337.5 992.5 c 128,-1,65
 247 927 247 927 196 810.5 c 128,-1,66
 145 694 145 694 145 542 c 256,67,68
 145 390 145 390 195.5 274 c 128,-1,69
 246 158 246 158 337 92 c 128,-1,70
 428 26 428 26 545 26 c 0,55,56
EndSplineSet
EndChar

StartChar: uni02A3
Encoding: 675 675 611
Width: 2037
GlyphClass: 2
Flags: W
AnchorPoint: "Anchor-1" 545 1283 basechar 0
LayerCount: 2
Fore
SplineSet
1162 0 m 1,0,-1
 1162 46 l 1,1,-1
 1844 1038 l 1,2,-1
 1844 1041 l 1,3,-1
 967 1041 l 1,4,-1
 967 1087 l 1,5,-1
 1900 1087 l 1,6,-1
 1900 1039 l 1,7,-1
 1220 50 l 1,8,-1
 1220 46 l 1,9,-1
 1918 46 l 1,10,-1
 1918 0 l 1,11,-1
 1162 0 l 1,0,-1
546 -20 m 0,12,13
 414 -20 414 -20 313 52 c 128,-1,14
 212 124 212 124 155 250.5 c 128,-1,15
 98 377 98 377 98 542 c 0,16,17
 98 706 98 706 155.5 833 c 128,-1,18
 213 960 213 960 314 1031.5 c 128,-1,19
 415 1103 415 1103 545 1103 c 0,20,21
 640 1103 640 1103 720.5 1065 c 128,-1,22
 801 1027 801 1027 858 958.5 c 128,-1,23
 915 890 915 890 939 802 c 1,24,-1
 942 802 l 1,25,-1
 942 1490 l 1,26,-1
 988 1490 l 1,27,-1
 988 0 l 1,28,-1
 942 0 l 1,29,-1
 942 281 l 1,30,-1
 939 281 l 1,31,32
 913 193 913 193 856.5 124.5 c 128,-1,33
 800 56 800 56 720.5 18 c 128,-1,34
 641 -20 641 -20 546 -20 c 0,12,13
545 26 m 0,35,36
 666 26 666 26 755 92 c 128,-1,37
 844 158 844 158 893 274.5 c 128,-1,38
 942 391 942 391 942 542 c 0,39,40
 942 694 942 694 893 810.5 c 128,-1,41
 844 927 844 927 755 992.5 c 128,-1,42
 666 1058 666 1058 545 1058 c 0,43,44
 428 1058 428 1058 337.5 992.5 c 128,-1,45
 247 927 247 927 196 810.5 c 128,-1,46
 145 694 145 694 145 542 c 256,47,48
 145 390 145 390 195.5 274 c 128,-1,49
 246 158 246 158 337 92 c 128,-1,50
 428 26 428 26 545 26 c 0,35,36
EndSplineSet
EndChar

StartChar: dyogh
Encoding: 676 676 613
Width: 1934
GlyphClass: 2
Flags: W
AnchorPoint: "Anchor-1" 545 1283 basechar 0
LayerCount: 2
Fore
SplineSet
991 -88 m 1,0,1
 1004 -176 1004 -176 1058 -243.5 c 128,-1,2
 1112 -311 1112 -311 1197.5 -349.5 c 128,-1,3
 1283 -388 1283 -388 1386 -388 c 0,4,5
 1513 -388 1513 -388 1601.5 -333.5 c 128,-1,6
 1690 -279 1690 -279 1736 -191 c 128,-1,7
 1782 -103 1782 -103 1782 0 c 0,8,9
 1782 123 1782 123 1720 211 c 128,-1,10
 1658 299 1658 299 1551.5 345 c 128,-1,11
 1445 391 1445 391 1308 391 c 2,12,-1
 1252 391 l 1,13,-1
 1252 436 l 1,14,-1
 1725 1041 l 1,15,-1
 1725 1042 l 1,16,-1
 964 1042 l 1,17,-1
 964 1088 l 1,18,-1
 1790 1088 l 1,19,-1
 1790 1050 l 1,20,-1
 1308 433 l 1,21,-1
 1308 432 l 1,22,23
 1461 433 1461 433 1578.5 380 c 128,-1,24
 1696 327 1696 327 1762 230 c 128,-1,25
 1828 133 1828 133 1828 0 c 0,26,27
 1828 -118 1828 -118 1775 -217 c 128,-1,28
 1722 -316 1722 -316 1622.5 -375 c 128,-1,29
 1523 -434 1523 -434 1386 -434 c 0,30,31
 1269 -434 1269 -434 1173.5 -389.5 c 128,-1,32
 1078 -345 1078 -345 1017.5 -266.5 c 128,-1,33
 957 -188 957 -188 945 -88 c 1,34,-1
 991 -88 l 1,0,1
546 -20 m 0,35,36
 414 -20 414 -20 313 52 c 128,-1,37
 212 124 212 124 155 250.5 c 128,-1,38
 98 377 98 377 98 542 c 0,39,40
 98 706 98 706 155.5 833 c 128,-1,41
 213 960 213 960 314 1031.5 c 128,-1,42
 415 1103 415 1103 545 1103 c 0,43,44
 640 1103 640 1103 720.5 1065 c 128,-1,45
 801 1027 801 1027 858 958.5 c 128,-1,46
 915 890 915 890 939 802 c 1,47,-1
 942 802 l 1,48,-1
 942 1490 l 1,49,-1
 988 1490 l 1,50,-1
 988 0 l 1,51,-1
 942 0 l 1,52,-1
 942 281 l 1,53,-1
 939 281 l 1,54,55
 913 193 913 193 856.5 124.5 c 128,-1,56
 800 56 800 56 720.5 18 c 128,-1,57
 641 -20 641 -20 546 -20 c 0,35,36
545 26 m 0,58,59
 666 26 666 26 755 92 c 128,-1,60
 844 158 844 158 893 274.5 c 128,-1,61
 942 391 942 391 942 542 c 0,62,63
 942 694 942 694 893 810.5 c 128,-1,64
 844 927 844 927 755 992.5 c 128,-1,65
 666 1058 666 1058 545 1058 c 0,66,67
 428 1058 428 1058 337.5 992.5 c 128,-1,68
 247 927 247 927 196 810.5 c 128,-1,69
 145 694 145 694 145 542 c 256,70,71
 145 390 145 390 195.5 274 c 128,-1,72
 246 158 246 158 337 92 c 128,-1,73
 428 26 428 26 545 26 c 0,58,59
EndSplineSet
EndChar

StartChar: e
Encoding: 101 101 615
Width: 1110
GlyphClass: 2
Flags: W
AnchorPoint: "Anchor-4" 986 257 basechar 0
AnchorPoint: "Anchor-3" 563 0 basechar 0
AnchorPoint: "Anchor-1" 559 1087 basechar 0
AnchorPoint: "Anchor-0" 559 0 basechar 0
LayerCount: 2
Fore
SplineSet
573 -20 m 0,0,1
 433 -20 433 -20 325.5 53.5 c 128,-1,2
 218 127 218 127 158 254.5 c 128,-1,3
 98 382 98 382 98 542 c 0,4,5
 98 704 98 704 158 830.5 c 128,-1,6
 218 957 218 957 323.5 1030 c 128,-1,7
 429 1103 429 1103 563 1103 c 0,8,9
 662 1103 662 1103 745.5 1063 c 128,-1,10
 829 1023 829 1023 890.5 950 c 128,-1,11
 952 877 952 877 985 780 c 128,-1,12
 1018 683 1018 683 1018 569 c 2,13,-1
 1018 544 l 1,14,-1
 122 544 l 1,15,-1
 122 590 l 1,16,-1
 991 590 l 1,17,-1
 973 575 l 1,18,19
 973 712 973 712 919.5 821.5 c 128,-1,20
 866 931 866 931 773.5 994 c 128,-1,21
 681 1057 681 1057 563 1057 c 0,22,23
 444 1057 444 1057 349.5 991 c 128,-1,24
 255 925 255 925 199.5 810.5 c 128,-1,25
 144 696 144 696 144 550 c 2,26,-1
 144 545 l 2,27,28
 144 399 144 399 197 281.5 c 128,-1,29
 250 164 250 164 346 95 c 128,-1,30
 442 26 442 26 574 26 c 0,31,32
 670 26 670 26 745 62 c 128,-1,33
 820 98 820 98 871 154 c 128,-1,34
 922 210 922 210 943 270 c 1,35,-1
 986 257 l 1,36,37
 962 187 962 187 904.5 123 c 128,-1,38
 847 59 847 59 763 19.5 c 128,-1,39
 679 -20 679 -20 573 -20 c 0,0,1
EndSplineSet
Substitution2: "'sups' Superscript in Latin lookup 39 subtable" e.sups
Substitution2: "'subs' Subscript in Latin lookup 38 subtable" e.subs
Substitution2: "'sinf' Scientific Inferiors in Latin lookup 18 subtable" e.subs
AlternateSubs2: "'aalt' Access All Alternates in Latin lookup 1 subtable" e.sups e.subs
EndChar

StartChar: uni0247
Encoding: 583 583 617
Width: 1142
GlyphClass: 2
Flags: W
AnchorPoint: "Anchor-4" 1018 257 basechar 0
AnchorPoint: "Anchor-3" 595 0 basechar 0
AnchorPoint: "Anchor-1" 591 1087 basechar 0
AnchorPoint: "Anchor-0" 591 0 basechar 0
LayerCount: 2
Fore
SplineSet
98 -418 m 1,0,-1
 974 1490 l 1,1,-1
 1022 1490 l 1,2,-1
 152 -418 l 1,3,-1
 98 -418 l 1,0,-1
605 -20 m 0,4,5
 465 -20 465 -20 357.5 53.5 c 128,-1,6
 250 127 250 127 190 254.5 c 128,-1,7
 130 382 130 382 130 542 c 0,8,9
 130 704 130 704 190 830.5 c 128,-1,10
 250 957 250 957 355.5 1030 c 128,-1,11
 461 1103 461 1103 595 1103 c 0,12,13
 694 1103 694 1103 777.5 1063 c 128,-1,14
 861 1023 861 1023 922.5 950 c 128,-1,15
 984 877 984 877 1017 780 c 128,-1,16
 1050 683 1050 683 1050 569 c 2,17,-1
 1050 544 l 1,18,-1
 154 544 l 1,19,-1
 154 590 l 1,20,-1
 1023 590 l 1,21,-1
 1005 575 l 1,22,23
 1005 712 1005 712 951.5 821.5 c 128,-1,24
 898 931 898 931 805.5 994 c 128,-1,25
 713 1057 713 1057 595 1057 c 0,26,27
 476 1057 476 1057 381.5 991 c 128,-1,28
 287 925 287 925 231.5 810.5 c 128,-1,29
 176 696 176 696 176 550 c 2,30,-1
 176 545 l 2,31,32
 176 399 176 399 229 281.5 c 128,-1,33
 282 164 282 164 378 95 c 128,-1,34
 474 26 474 26 606 26 c 0,35,36
 702 26 702 26 777 62 c 128,-1,37
 852 98 852 98 903 154 c 128,-1,38
 954 210 954 210 975 270 c 1,39,-1
 1018 257 l 1,40,41
 994 187 994 187 936.5 123 c 128,-1,42
 879 59 879 59 795 19.5 c 128,-1,43
 711 -20 711 -20 605 -20 c 0,4,5
EndSplineSet
EndChar

StartChar: eturn
Encoding: 477 477 646
Width: 1110
GlyphClass: 2
Flags: W
AnchorPoint: "Anchor-4" 652 -30 basechar 0
AnchorPoint: "Anchor-3" 584 0 basechar 0
AnchorPoint: "Anchor-1" 590 1087 basechar 0
AnchorPoint: "Anchor-0" 582 0 basechar 0
LayerCount: 2
Fore
SplineSet
537 1107 m 0,0,1
 679 1107 679 1107 786 1033.5 c 128,-1,2
 893 960 893 960 952.5 833.5 c 128,-1,3
 1012 707 1012 707 1012 545 c 0,4,5
 1012 385 1012 385 952 258 c 128,-1,6
 892 131 892 131 787.5 57.5 c 128,-1,7
 683 -16 683 -16 549 -16 c 0,8,9
 448 -16 448 -16 365 25 c 128,-1,10
 282 66 282 66 221 138 c 128,-1,11
 160 210 160 210 126 307.5 c 128,-1,12
 92 405 92 405 92 520 c 2,13,-1
 92 545 l 1,14,-1
 988 545 l 1,15,-1
 988 499 l 1,16,-1
 120 499 l 1,17,-1
 139 512 l 1,18,19
 139 376 139 376 192.5 266.5 c 128,-1,20
 246 157 246 157 338.5 93.5 c 128,-1,21
 431 30 431 30 549 30 c 256,22,23
 667 30 667 30 762 96 c 128,-1,24
 857 162 857 162 911.5 277 c 128,-1,25
 966 392 966 392 966 539 c 2,26,-1
 966 542 l 2,27,28
 966 689 966 689 914 806.5 c 128,-1,29
 862 924 862 924 765.5 992.5 c 128,-1,30
 669 1061 669 1061 538 1061 c 0,31,32
 441 1061 441 1061 365.5 1025.5 c 128,-1,33
 290 990 290 990 240 934 c 128,-1,34
 190 878 190 878 167 817 c 1,35,-1
 124 830 l 1,36,37
 149 902 149 902 206 965 c 128,-1,38
 263 1028 263 1028 347.5 1067.5 c 128,-1,39
 432 1107 432 1107 537 1107 c 0,0,1
EndSplineSet
EndChar

StartChar: _part.f_base
Encoding: 1114123 -1 647
Width: 614
GlyphClass: 2
Flags: W
AnchorPoint: "Anchor-1" 373 1521 basechar 0
AnchorPoint: "Anchor-0" 286 0 basechar 0
LayerCount: 2
Fore
SplineSet
262 0 m 1,0,-1
 262 1296 l 2,1,2
 262 1367 262 1367 289.5 1418 c 128,-1,3
 317 1469 317 1469 366 1496 c 128,-1,4
 415 1523 415 1523 482 1523 c 0,5,6
 509 1523 509 1523 531.5 1521.5 c 128,-1,7
 554 1520 554 1520 573 1515 c 1,8,-1
 566 1470 l 1,9,10
 548 1474 548 1474 527 1476 c 128,-1,11
 506 1478 506 1478 483 1478 c 0,12,13
 402 1478 402 1478 355 1431 c 128,-1,14
 308 1384 308 1384 308 1296 c 2,15,-1
 308 0 l 1,16,-1
 262 0 l 1,0,-1
EndSplineSet
EndChar

StartChar: f
Encoding: 102 102 648
Width: 545
GlyphClass: 2
Flags: W
AnchorPoint: "Anchor-1" 320 1521 basechar 0
AnchorPoint: "Anchor-0" 231 0 basechar 0
LayerCount: 2
Fore
SplineSet
508 1087 m 1,0,-1
 508 1041 l 1,1,-1
 6 1041 l 1,2,-1
 6 1087 l 1,3,-1
 508 1087 l 1,0,-1
209 0 m 1,4,-1
 209 1296 l 2,5,6
 209 1367 209 1367 236 1418 c 128,-1,7
 263 1469 263 1469 312.5 1496 c 128,-1,8
 362 1523 362 1523 429 1523 c 0,9,10
 454 1523 454 1523 477 1521.5 c 128,-1,11
 500 1520 500 1520 520 1515 c 1,12,-1
 513 1470 l 1,13,14
 494 1474 494 1474 473 1476 c 128,-1,15
 452 1478 452 1478 428 1478 c 0,16,17
 347 1478 347 1478 301 1431 c 128,-1,18
 255 1384 255 1384 255 1296 c 2,19,-1
 255 0 l 1,20,-1
 209 0 l 1,4,-1
EndSplineSet
Substitution2: "'cv12' Character Variants 12 in Latin lookup 66 subtable" f.1
Substitution2: "'salt' Stylistic Alternatives in Latin lookup 46 subtable" f.1
Substitution2: "'sups' Superscript in Latin lookup 39 subtable" f.sups
Substitution2: "'subs' Subscript in Latin lookup 38 subtable" f.subs
Substitution2: "Single Substitution lookup 36 subtable" f.1
Substitution2: "Single Substitution lookup 35 subtable" f.i.1
Substitution2: "Single Substitution lookup 34 subtable" f.i
Substitution2: "'sinf' Scientific Inferiors in Latin lookup 18 subtable" f.subs
AlternateSubs2: "'aalt' Access All Alternates in Latin lookup 1 subtable" f.sups f.subs
EndChar

StartChar: f.1
Encoding: 60941 60941 649
Width: 502
GlyphClass: 2
Flags: W
AnchorPoint: "Anchor-1" 277 1521 basechar 0
AnchorPoint: "Anchor-0" 190 0 basechar 0
LayerCount: 2
Fore
SplineSet
465 1087 m 1,0,-1
 465 1041 l 1,1,-1
 189 1041 l 1,2,-1
 189 1087 l 1,3,-1
 465 1087 l 1,0,-1
166 0 m 1,4,-1
 166 1296 l 2,5,6
 166 1367 166 1367 193.5 1418 c 128,-1,7
 221 1469 221 1469 270 1496 c 128,-1,8
 319 1523 319 1523 386 1523 c 0,9,10
 413 1523 413 1523 435.5 1521.5 c 128,-1,11
 458 1520 458 1520 477 1515 c 1,12,-1
 470 1470 l 1,13,14
 452 1474 452 1474 431 1476 c 128,-1,15
 410 1478 410 1478 387 1478 c 0,16,17
 306 1478 306 1478 259 1431 c 128,-1,18
 212 1384 212 1384 212 1296 c 2,19,-1
 212 0 l 1,20,-1
 166 0 l 1,4,-1
EndSplineSet
EndChar

StartChar: f.i
Encoding: 60942 60942 650
Width: 500
GlyphClass: 2
Flags: W
AnchorPoint: "Anchor-1" 320 1521 basechar 0
AnchorPoint: "Anchor-0" 231 0 basechar 0
LayerCount: 2
Fore
SplineSet
209 0 m 1,0,-1
 209 1296 l 2,1,2
 209 1364 209 1364 236.5 1415 c 128,-1,3
 264 1466 264 1466 310.5 1494.5 c 128,-1,4
 357 1523 357 1523 414 1523 c 0,5,6
 436 1523 436 1523 456.5 1519 c 128,-1,7
 477 1515 477 1515 497 1507 c 1,8,-1
 481 1464 l 1,9,10
 464 1471 464 1471 448 1474.5 c 128,-1,11
 432 1478 432 1478 414 1478 c 0,12,13
 347 1478 347 1478 301 1430 c 128,-1,14
 255 1382 255 1382 255 1296 c 2,15,-1
 255 0 l 1,16,-1
 209 0 l 1,0,-1
6 1041 m 1,17,-1
 6 1087 l 1,18,-1
 508 1087 l 1,19,-1
 508 1041 l 1,20,-1
 6 1041 l 1,17,-1
EndSplineSet
Substitution2: "Single Substitution lookup 35 subtable" f.i.1
EndChar

StartChar: f.i.1
Encoding: 60943 60943 651
Width: 457
GlyphClass: 2
Flags: W
AnchorPoint: "Anchor-1" 277 1521 basechar 0
AnchorPoint: "Anchor-0" 190 0 basechar 0
LayerCount: 2
Fore
SplineSet
166 0 m 1,0,-1
 166 1296 l 2,1,2
 166 1364 166 1364 194 1415 c 128,-1,3
 222 1466 222 1466 268.5 1494.5 c 128,-1,4
 315 1523 315 1523 372 1523 c 0,5,6
 395 1523 395 1523 415 1519 c 128,-1,7
 435 1515 435 1515 455 1507 c 1,8,-1
 440 1464 l 1,9,10
 421 1471 421 1471 405.5 1474.5 c 128,-1,11
 390 1478 390 1478 372 1478 c 0,12,13
 305 1478 305 1478 258.5 1430 c 128,-1,14
 212 1382 212 1382 212 1296 c 2,15,-1
 212 0 l 1,16,-1
 166 0 l 1,0,-1
191 1041 m 1,17,-1
 191 1087 l 1,18,-1
 465 1087 l 1,19,-1
 465 1041 l 1,20,-1
 191 1041 l 1,17,-1
EndSplineSet
EndChar

StartChar: g
Encoding: 103 103 659
Width: 1154
GlyphClass: 2
Flags: W
AnchorPoint: "Anchor-1" 564 1087 basechar 0
AnchorPoint: "Anchor-0" 558 -435 basechar 0
LayerCount: 2
Fore
SplineSet
558 -434 m 0,0,1
 448 -434 448 -434 365 -402 c 128,-1,2
 282 -370 282 -370 228 -309 c 128,-1,3
 174 -248 174 -248 150 -165 c 1,4,-1
 196 -156 l 1,5,6
 216 -229 216 -229 265 -281 c 128,-1,7
 314 -333 314 -333 387.5 -360.5 c 128,-1,8
 461 -388 461 -388 558 -388 c 0,9,10
 742 -388 742 -388 842 -290 c 128,-1,11
 942 -192 942 -192 942 -11 c 2,12,-1
 942 281 l 1,13,-1
 939 281 l 1,14,15
 913 192 913 192 855.5 127 c 128,-1,16
 798 62 798 62 718 27 c 128,-1,17
 638 -8 638 -8 546 -8 c 0,18,19
 415 -8 415 -8 314 61 c 128,-1,20
 213 130 213 130 155.5 254 c 128,-1,21
 98 378 98 378 98 542 c 0,22,23
 98 707 98 707 155.5 833.5 c 128,-1,24
 213 960 213 960 314 1031.5 c 128,-1,25
 415 1103 415 1103 546 1103 c 0,26,27
 642 1103 642 1103 722 1065 c 128,-1,28
 802 1027 802 1027 858 959 c 128,-1,29
 914 891 914 891 939 801 c 1,30,-1
 943 801 l 1,31,-1
 943 1087 l 1,32,-1
 988 1087 l 1,33,-1
 988 -11 l 2,34,35
 988 -144 988 -144 937.5 -239 c 128,-1,36
 887 -334 887 -334 790 -384 c 128,-1,37
 693 -434 693 -434 558 -434 c 0,0,1
546 39 m 0,38,39
 665 39 665 39 754.5 100 c 128,-1,40
 844 161 844 161 893 274.5 c 128,-1,41
 942 388 942 388 942 542 c 0,42,43
 942 695 942 695 893.5 811 c 128,-1,44
 845 927 845 927 756 992.5 c 128,-1,45
 667 1058 667 1058 546 1058 c 0,46,47
 428 1058 428 1058 337 992.5 c 128,-1,48
 246 927 246 927 195.5 810.5 c 128,-1,49
 145 694 145 694 145 542 c 256,50,51
 145 390 145 390 196 277 c 128,-1,52
 247 164 247 164 337.5 101.5 c 128,-1,53
 428 39 428 39 546 39 c 0,38,39
EndSplineSet
Substitution2: "'smcp' Lowercase to Small Capitals in Latin lookup 69 subtable" g.sc
Substitution2: "'sups' Superscript in Latin lookup 39 subtable" g.sups
Substitution2: "'subs' Subscript in Latin lookup 38 subtable" g.subs
Substitution2: "'sinf' Scientific Inferiors in Latin lookup 18 subtable" g.subs
AlternateSubs2: "'aalt' Access All Alternates in Latin lookup 1 subtable" g.sc g.sups g.subs
EndChar

StartChar: uni0260
Encoding: 608 608 660
Width: 1154
GlyphClass: 2
Flags: W
AnchorPoint: "Anchor-1" 564 1087 basechar 0
AnchorPoint: "Anchor-0" 558 -435 basechar 0
LayerCount: 2
Fore
SplineSet
942 857 m 1,0,-1
 942 1262 l 2,1,2
 942 1364 942 1364 988.5 1411.5 c 128,-1,3
 1035 1459 1035 1459 1126 1459 c 0,4,5
 1141 1459 1141 1459 1161 1459.5 c 128,-1,6
 1181 1460 1181 1460 1198 1460 c 1,7,-1
 1198 1413 l 1,8,9
 1180 1413 1180 1413 1160 1413 c 128,-1,10
 1140 1413 1140 1413 1126 1413 c 0,11,12
 1054 1413 1054 1413 1021 1378 c 128,-1,13
 988 1343 988 1343 988 1262 c 2,14,-1
 988 857 l 1,15,-1
 942 857 l 1,0,-1
558 -434 m 0,16,17
 448 -434 448 -434 365 -402 c 128,-1,18
 282 -370 282 -370 228 -309 c 128,-1,19
 174 -248 174 -248 150 -165 c 1,20,-1
 196 -156 l 1,21,22
 216 -229 216 -229 265 -281 c 128,-1,23
 314 -333 314 -333 387.5 -360.5 c 128,-1,24
 461 -388 461 -388 558 -388 c 0,25,26
 742 -388 742 -388 842 -290 c 128,-1,27
 942 -192 942 -192 942 -11 c 2,28,-1
 942 281 l 1,29,-1
 939 281 l 1,30,31
 913 192 913 192 855.5 127 c 128,-1,32
 798 62 798 62 718 27 c 128,-1,33
 638 -8 638 -8 546 -8 c 0,34,35
 415 -8 415 -8 314 61 c 128,-1,36
 213 130 213 130 155.5 254 c 128,-1,37
 98 378 98 378 98 542 c 0,38,39
 98 707 98 707 155.5 833.5 c 128,-1,40
 213 960 213 960 314 1031.5 c 128,-1,41
 415 1103 415 1103 546 1103 c 0,42,43
 642 1103 642 1103 722 1065 c 128,-1,44
 802 1027 802 1027 858 959 c 128,-1,45
 914 891 914 891 939 801 c 1,46,-1
 943 801 l 1,47,-1
 943 1087 l 1,48,-1
 988 1087 l 1,49,-1
 988 -11 l 2,50,51
 988 -144 988 -144 937.5 -239 c 128,-1,52
 887 -334 887 -334 790 -384 c 128,-1,53
 693 -434 693 -434 558 -434 c 0,16,17
546 39 m 0,54,55
 665 39 665 39 754.5 100 c 128,-1,56
 844 161 844 161 893 274.5 c 128,-1,57
 942 388 942 388 942 542 c 0,58,59
 942 695 942 695 893.5 811 c 128,-1,60
 845 927 845 927 756 992.5 c 128,-1,61
 667 1058 667 1058 546 1058 c 0,62,63
 428 1058 428 1058 337 992.5 c 128,-1,64
 246 927 246 927 195.5 810.5 c 128,-1,65
 145 694 145 694 145 542 c 256,66,67
 145 390 145 390 196 277 c 128,-1,68
 247 164 247 164 337.5 101.5 c 128,-1,69
 428 39 428 39 546 39 c 0,54,55
EndSplineSet
Substitution2: "'smcp' Lowercase to Small Capitals in Latin lookup 69 subtable" uni0260.sc
Substitution2: "'c2sc' Capitals to Small Capitals in Latin lookup 68 subtable" uni0260.sc
Substitution2: "'aalt' Access All Alternates in Latin lookup 0 subtable" uni0260.sc
EndChar

StartChar: g.sc
Encoding: 610 610 669
Width: 1094
GlyphClass: 2
Flags: W
AnchorPoint: "Anchor-1" 548 1087 basechar 0
AnchorPoint: "Anchor-0" 548 0 basechar 0
LayerCount: 2
Fore
SplineSet
558 -13 m 0,0,1
 417 -13 417 -13 310.5 57 c 128,-1,2
 204 127 204 127 145.5 252.5 c 128,-1,3
 87 378 87 378 87 543 c 0,4,5
 87 711 87 711 146 836 c 128,-1,6
 205 961 205 961 310.5 1031 c 128,-1,7
 416 1101 416 1101 556 1101 c 0,8,9
 685 1101 685 1101 776 1046 c 128,-1,10
 867 991 867 991 920 909 c 128,-1,11
 973 827 973 827 987 746 c 1,12,-1
 940 746 l 1,13,14
 926 820 926 820 877.5 891 c 128,-1,15
 829 962 829 962 748 1009 c 128,-1,16
 667 1056 667 1056 555 1056 c 0,17,18
 430 1056 430 1056 334.5 992 c 128,-1,19
 239 928 239 928 186.5 812.5 c 128,-1,20
 134 697 134 697 134 543 c 0,21,22
 134 392 134 392 186.5 276.5 c 128,-1,23
 239 161 239 161 334.5 96.5 c 128,-1,24
 430 32 430 32 559 32 c 0,25,26
 737 32 737 32 843 148 c 128,-1,27
 949 264 949 264 949 461 c 1,28,-1
 967 453 l 1,29,-1
 572 453 l 1,30,-1
 572 497 l 1,31,-1
 995 497 l 1,32,-1
 995 455 l 2,33,34
 995 313 995 313 940 207.5 c 128,-1,35
 885 102 885 102 787 44.5 c 128,-1,36
 689 -13 689 -13 558 -13 c 0,0,1
EndSplineSet
EndChar

StartChar: uni0260.sc
Encoding: 60947 60947 670
Width: 1154
GlyphClass: 2
Flags: W
AnchorPoint: "Anchor-1" 548 1087 basechar 0
AnchorPoint: "Anchor-0" 548 0 basechar 0
LayerCount: 2
Fore
SplineSet
942 746 m 1,0,-1
 918 994 l 2,1,2
 911 1061 911 1061 926.5 1105 c 128,-1,3
 942 1149 942 1149 980.5 1171 c 128,-1,4
 1019 1193 1019 1193 1077 1193 c 0,5,6
 1091 1193 1091 1193 1107.5 1192.5 c 128,-1,7
 1124 1192 1124 1192 1141 1192 c 1,8,-1
 1141 1147 l 1,9,10
 1122 1147 1122 1147 1106 1147 c 128,-1,11
 1090 1147 1090 1147 1077 1147 c 0,12,13
 1003 1147 1003 1147 979.5 1108.5 c 128,-1,14
 956 1070 956 1070 962 1000 c 2,15,-1
 987 746 l 1,16,-1
 942 746 l 1,0,-1
558 -13 m 0,17,18
 417 -13 417 -13 310.5 57 c 128,-1,19
 204 127 204 127 145.5 252.5 c 128,-1,20
 87 378 87 378 87 543 c 0,21,22
 87 711 87 711 146 836 c 128,-1,23
 205 961 205 961 310.5 1031 c 128,-1,24
 416 1101 416 1101 556 1101 c 0,25,26
 685 1101 685 1101 776 1046 c 128,-1,27
 867 991 867 991 920 909 c 128,-1,28
 973 827 973 827 987 746 c 1,29,-1
 940 746 l 1,30,31
 926 820 926 820 877.5 891 c 128,-1,32
 829 962 829 962 748 1009 c 128,-1,33
 667 1056 667 1056 555 1056 c 0,34,35
 430 1056 430 1056 334.5 992 c 128,-1,36
 239 928 239 928 186.5 812.5 c 128,-1,37
 134 697 134 697 134 543 c 0,38,39
 134 392 134 392 186.5 276.5 c 128,-1,40
 239 161 239 161 334.5 96.5 c 128,-1,41
 430 32 430 32 559 32 c 0,42,43
 737 32 737 32 843 148 c 128,-1,44
 949 264 949 264 949 461 c 1,45,-1
 967 453 l 1,46,-1
 572 453 l 1,47,-1
 572 497 l 1,48,-1
 995 497 l 1,49,-1
 995 455 l 2,50,51
 995 313 995 313 940 207.5 c 128,-1,52
 885 102 885 102 787 44.5 c 128,-1,53
 689 -13 689 -13 558 -13 c 0,17,18
EndSplineSet
EndChar

StartChar: h
Encoding: 104 104 671
Width: 1133
GlyphClass: 2
Flags: W
AnchorPoint: "Anchor-3" 189 0 basechar 0
AnchorPoint: "Anchor-1" 190 1490 basechar 0
AnchorPoint: "Anchor-0" 567 0 basechar 0
LayerCount: 2
Fore
SplineSet
212 719 m 2,0,-1
 212 0 l 1,1,-1
 166 0 l 1,2,-1
 166 1490 l 1,3,-1
 212 1490 l 1,4,-1
 212 848 l 1,5,-1
 201 848 l 1,6,7
 236 976 236 976 342.5 1039.5 c 128,-1,8
 449 1103 449 1103 576 1103 c 0,9,10
 691 1103 691 1103 779 1054.5 c 128,-1,11
 867 1006 867 1006 917 920.5 c 128,-1,12
 967 835 967 835 967 719 c 2,13,-1
 967 0 l 1,14,-1
 920 0 l 1,15,-1
 920 720 l 2,16,17
 920 872 920 872 824 964.5 c 128,-1,18
 728 1057 728 1057 576 1057 c 0,19,20
 473 1057 473 1057 390.5 1013.5 c 128,-1,21
 308 970 308 970 260 894 c 128,-1,22
 212 818 212 818 212 719 c 2,0,-1
EndSplineSet
Substitution2: "'smcp' Lowercase to Small Capitals in Latin lookup 69 subtable" h.sc
Substitution2: "'sups' Superscript in Latin lookup 39 subtable" h.sups
Substitution2: "'subs' Subscript in Latin lookup 38 subtable" h.subs
Substitution2: "'sinf' Scientific Inferiors in Latin lookup 18 subtable" h.subs
AlternateSubs2: "'aalt' Access All Alternates in Latin lookup 1 subtable" h.sups h.subs h.sc
EndChar

StartChar: uni0452
Encoding: 1106 1106 674
Width: 1133
GlyphClass: 2
Flags: W
AnchorPoint: "Anchor-3" 189 0 basechar 0
AnchorPoint: "Anchor-1" 190 1490 basechar 0
AnchorPoint: "Anchor-0" 567 0 basechar 0
LayerCount: 2
Fore
SplineSet
783 -417 m 0,0,1
 769 -417 769 -417 748 -417.5 c 128,-1,2
 727 -418 727 -418 710 -418 c 1,3,-1
 710 -372 l 1,4,5
 730 -372 730 -372 749.5 -372 c 128,-1,6
 769 -372 769 -372 783 -372 c 0,7,8
 854 -372 854 -372 887 -337 c 128,-1,9
 920 -302 920 -302 920 -219 c 2,10,-1
 920 0 l 1,11,-1
 967 0 l 1,12,-1
 967 -219 l 2,13,14
 967 -322 967 -322 920.5 -369.5 c 128,-1,15
 874 -417 874 -417 783 -417 c 0,0,1
212 719 m 2,16,-1
 212 0 l 1,17,-1
 166 0 l 1,18,-1
 166 1490 l 1,19,-1
 212 1490 l 1,20,-1
 212 848 l 1,21,-1
 201 848 l 1,22,23
 236 976 236 976 342.5 1039.5 c 128,-1,24
 449 1103 449 1103 576 1103 c 0,25,26
 691 1103 691 1103 779 1054.5 c 128,-1,27
 867 1006 867 1006 917 920.5 c 128,-1,28
 967 835 967 835 967 719 c 2,29,-1
 967 0 l 1,30,-1
 920 0 l 1,31,-1
 920 720 l 2,32,33
 920 872 920 872 824 964.5 c 128,-1,34
 728 1057 728 1057 576 1057 c 0,35,36
 473 1057 473 1057 390.5 1013.5 c 128,-1,37
 308 970 308 970 260 894 c 128,-1,38
 212 818 212 818 212 719 c 2,16,-1
-63 1260 m 1,39,-1
 -63 1306 l 1,40,-1
 491 1306 l 1,41,-1
 491 1260 l 1,42,-1
 -63 1260 l 1,39,-1
EndSplineSet
EndChar

StartChar: uni0266
Encoding: 614 614 675
Width: 1132
GlyphClass: 2
Flags: W
AnchorPoint: "Anchor-1" 569 1087 basechar 0
AnchorPoint: "Anchor-0" 567 0 basechar 0
LayerCount: 2
Fore
SplineSet
166 857 m 1,0,-1
 166 1262 l 2,1,2
 166 1364 166 1364 212.5 1411.5 c 128,-1,3
 259 1459 259 1459 350 1459 c 0,4,5
 365 1459 365 1459 385 1459.5 c 128,-1,6
 405 1460 405 1460 422 1460 c 1,7,-1
 422 1413 l 1,8,9
 404 1413 404 1413 384 1413 c 128,-1,10
 364 1413 364 1413 350 1413 c 0,11,12
 278 1413 278 1413 245 1378 c 128,-1,13
 212 1343 212 1343 212 1262 c 2,14,-1
 212 857 l 1,15,-1
 166 857 l 1,0,-1
212 719 m 2,16,-1
 212 0 l 1,17,-1
 166 0 l 1,18,-1
 166 1087 l 1,19,-1
 213 1087 l 1,20,-1
 212 848 l 1,21,-1
 201 848 l 1,22,23
 236 976 236 976 342.5 1039.5 c 128,-1,24
 449 1103 449 1103 576 1103 c 0,25,26
 691 1103 691 1103 778.5 1054.5 c 128,-1,27
 866 1006 866 1006 916 920.5 c 128,-1,28
 966 835 966 835 966 719 c 2,29,-1
 966 0 l 1,30,-1
 920 0 l 1,31,-1
 920 720 l 2,32,33
 920 872 920 872 824 964.5 c 128,-1,34
 728 1057 728 1057 576 1057 c 0,35,36
 473 1057 473 1057 390.5 1013.5 c 128,-1,37
 308 970 308 970 260 894 c 128,-1,38
 212 818 212 818 212 719 c 2,16,-1
EndSplineSet
EndChar

StartChar: uni0267
Encoding: 615 615 676
Width: 1132
GlyphClass: 2
Flags: W
AnchorPoint: "Anchor-1" 569 1087 basechar 0
AnchorPoint: "Anchor-0" 567 0 basechar 0
LayerCount: 2
Fore
SplineSet
783 -417 m 0,0,1
 769 -417 769 -417 748 -417.5 c 128,-1,2
 727 -418 727 -418 710 -418 c 1,3,-1
 710 -372 l 1,4,5
 730 -372 730 -372 749.5 -372 c 128,-1,6
 769 -372 769 -372 783 -372 c 0,7,8
 854 -372 854 -372 887 -337 c 128,-1,9
 920 -302 920 -302 920 -219 c 2,10,-1
 920 0 l 1,11,-1
 967 0 l 1,12,-1
 967 -219 l 2,13,14
 967 -322 967 -322 920.5 -369.5 c 128,-1,15
 874 -417 874 -417 783 -417 c 0,0,1
212 719 m 2,16,-1
 212 0 l 1,17,-1
 166 0 l 1,18,-1
 166 1087 l 1,19,-1
 213 1087 l 1,20,-1
 212 848 l 1,21,-1
 201 848 l 1,22,23
 236 976 236 976 342.5 1039.5 c 128,-1,24
 449 1103 449 1103 576 1103 c 0,25,26
 691 1103 691 1103 778.5 1054.5 c 128,-1,27
 866 1006 866 1006 916 920.5 c 128,-1,28
 966 835 966 835 966 719 c 2,29,-1
 966 0 l 1,30,-1
 920 0 l 1,31,-1
 920 720 l 2,32,33
 920 872 920 872 824 964.5 c 128,-1,34
 728 1057 728 1057 576 1057 c 0,35,36
 473 1057 473 1057 390.5 1013.5 c 128,-1,37
 308 970 308 970 260 894 c 128,-1,38
 212 818 212 818 212 719 c 2,16,-1
166 857 m 1,39,-1
 166 1262 l 2,40,41
 166 1364 166 1364 212.5 1411.5 c 128,-1,42
 259 1459 259 1459 350 1459 c 0,43,44
 365 1459 365 1459 385 1459.5 c 128,-1,45
 405 1460 405 1460 422 1460 c 1,46,-1
 422 1413 l 1,47,48
 404 1413 404 1413 384 1413 c 128,-1,49
 364 1413 364 1413 350 1413 c 0,50,51
 278 1413 278 1413 245 1378 c 128,-1,52
 212 1343 212 1343 212 1262 c 2,53,-1
 212 857 l 1,54,-1
 166 857 l 1,39,-1
EndSplineSet
EndChar

StartChar: uni0195
Encoding: 405 405 677
Width: 1852
Flags: W
LayerCount: 2
Fore
SplineSet
1224 -18 m 0,0,1
 1122 -18 1122 -18 1050 32 c 128,-1,2
 978 82 978 82 941 183.5 c 128,-1,3
 904 285 904 285 904 441 c 2,4,-1
 904 720 l 2,5,6
 904 870 904 870 809.5 963 c 128,-1,7
 715 1056 715 1056 564 1056 c 0,8,9
 463 1056 463 1056 383.5 1012.5 c 128,-1,10
 304 969 304 969 258 893.5 c 128,-1,11
 212 818 212 818 212 719 c 2,12,-1
 212 0 l 1,13,-1
 166 0 l 1,14,-1
 166 1490 l 1,15,-1
 212 1490 l 1,16,-1
 212 901 l 1,17,-1
 217 901 l 1,18,19
 254 991 254 991 349 1046.5 c 128,-1,20
 444 1102 444 1102 565 1102 c 0,21,22
 678 1102 678 1102 765 1054 c 128,-1,23
 852 1006 852 1006 901 919.5 c 128,-1,24
 950 833 950 833 950 719 c 2,25,-1
 950 441 l 2,26,27
 950 297 950 297 981.5 206 c 128,-1,28
 1013 115 1013 115 1073.5 71.5 c 128,-1,29
 1134 28 1134 28 1224 28 c 0,30,31
 1366 28 1366 28 1457 138.5 c 128,-1,32
 1548 249 1548 249 1593 472 c 128,-1,33
 1638 695 1638 695 1638 1032 c 2,34,-1
 1638 1087 l 1,35,-1
 1686 1087 l 1,36,-1
 1686 1024 l 2,37,38
 1686 676 1686 676 1635 444 c 128,-1,39
 1584 212 1584 212 1482.5 97 c 128,-1,40
 1381 -18 1381 -18 1224 -18 c 0,0,1
EndSplineSet
EndChar

StartChar: hturn
Encoding: 613 613 678
Width: 1133
GlyphClass: 2
Flags: W
AnchorPoint: "Anchor-3" 944 1087 basechar 0
AnchorPoint: "Anchor-1" 566 1087 basechar 0
AnchorPoint: "Anchor-0" 566 1087 basechar 0
LayerCount: 2
Fore
SplineSet
921 368 m 2,0,-1
 921 1087 l 1,1,-1
 967 1087 l 1,2,-1
 967 -403 l 1,3,-1
 921 -403 l 1,4,-1
 921 241 l 1,5,-1
 932 241 l 1,6,7
 897 113 897 113 791 48.5 c 128,-1,8
 685 -16 685 -16 557 -16 c 0,9,10
 442 -16 442 -16 354 32.5 c 128,-1,11
 266 81 266 81 216 168 c 128,-1,12
 166 255 166 255 166 368 c 2,13,-1
 166 1087 l 1,14,-1
 213 1087 l 1,15,-1
 213 369 l 2,16,17
 213 217 213 217 308.5 123.5 c 128,-1,18
 404 30 404 30 557 30 c 0,19,20
 661 30 661 30 743 73.5 c 128,-1,21
 825 117 825 117 873 194 c 128,-1,22
 921 271 921 271 921 368 c 2,0,-1
EndSplineSet
EndChar

StartChar: hturnlthook
Encoding: 686 686 679
Width: 1182
Flags: W
LayerCount: 2
Fore
SplineSet
970 -418 m 1,0,-1
 970 241 l 1,1,-1
 982 241 l 1,2,3
 946 112 946 112 840 48 c 128,-1,4
 734 -16 734 -16 606 -16 c 0,5,6
 490 -16 490 -16 402.5 32.5 c 128,-1,7
 315 81 315 81 265 168 c 128,-1,8
 215 255 215 255 215 368 c 2,9,-1
 215 881 l 2,10,11
 215 973 215 973 184.5 1009.5 c 128,-1,12
 154 1046 154 1046 78 1046 c 0,13,14
 66 1046 66 1046 54.5 1045.5 c 128,-1,15
 43 1045 43 1045 30.5 1044.5 c 128,-1,16
 18 1044 18 1044 6 1044 c 1,17,-1
 6 1089 l 1,18,19
 24 1091 24 1091 42.5 1091 c 128,-1,20
 61 1091 61 1091 78 1091 c 0,21,22
 125 1091 125 1091 159.5 1079.5 c 128,-1,23
 194 1068 194 1068 217 1043 c 128,-1,24
 240 1018 240 1018 250.5 978 c 128,-1,25
 261 938 261 938 261 881 c 2,26,-1
 261 369 l 2,27,28
 261 217 261 217 357 123.5 c 128,-1,29
 453 30 453 30 606 30 c 0,30,31
 709 30 709 30 792 73.5 c 128,-1,32
 875 117 875 117 922 194 c 128,-1,33
 969 271 969 271 969 368 c 2,34,-1
 969 1087 l 1,35,-1
 1016 1087 l 1,36,-1
 1016 -418 l 1,37,-1
 970 -418 l 1,0,-1
EndSplineSet
EndChar

StartChar: hturnhook2
Encoding: 687 687 680
Width: 1182
Flags: W
LayerCount: 2
Fore
SplineSet
1154 -417 m 0,0,1
 1061 -417 1061 -417 1015.5 -369.5 c 128,-1,2
 970 -322 970 -322 970 -219 c 2,3,-1
 970 241 l 1,4,-1
 982 241 l 1,5,6
 946 112 946 112 840 48 c 128,-1,7
 734 -16 734 -16 606 -16 c 0,8,9
 490 -16 490 -16 402.5 32.5 c 128,-1,10
 315 81 315 81 265 168 c 128,-1,11
 215 255 215 255 215 368 c 2,12,-1
 215 881 l 2,13,14
 215 973 215 973 184.5 1009.5 c 128,-1,15
 154 1046 154 1046 78 1046 c 0,16,17
 66 1046 66 1046 54.5 1045.5 c 128,-1,18
 43 1045 43 1045 30.5 1044.5 c 128,-1,19
 18 1044 18 1044 6 1044 c 1,20,-1
 6 1089 l 1,21,22
 24 1091 24 1091 42.5 1091 c 128,-1,23
 61 1091 61 1091 78 1091 c 0,24,25
 125 1091 125 1091 159.5 1079.5 c 128,-1,26
 194 1068 194 1068 217 1043 c 128,-1,27
 240 1018 240 1018 250.5 978 c 128,-1,28
 261 938 261 938 261 881 c 2,29,-1
 261 369 l 2,30,31
 261 217 261 217 357 123.5 c 128,-1,32
 453 30 453 30 606 30 c 0,33,34
 709 30 709 30 792 73.5 c 128,-1,35
 875 117 875 117 922 194 c 128,-1,36
 969 271 969 271 969 368 c 2,37,-1
 969 1087 l 1,38,-1
 1016 1087 l 1,39,-1
 1016 -219 l 2,40,41
 1016 -302 1016 -302 1048.5 -337 c 128,-1,42
 1081 -372 1081 -372 1154 -372 c 0,43,44
 1167 -372 1167 -372 1186.5 -372 c 128,-1,45
 1206 -372 1206 -372 1226 -372 c 1,46,-1
 1226 -418 l 1,47,48
 1215 -418 1215 -418 1201 -417.5 c 128,-1,49
 1187 -417 1187 -417 1174.5 -417 c 128,-1,50
 1162 -417 1162 -417 1154 -417 c 0,0,1
EndSplineSet
EndChar

StartChar: dotlessi
Encoding: 305 305 691
Width: 378
GlyphClass: 2
Flags: W
AnchorPoint: "Anchor-4" 212 0 basechar 0
AnchorPoint: "Anchor-1" 189 1087 basechar 0
AnchorPoint: "Anchor-0" 189 0 basechar 0
LayerCount: 2
Fore
SplineSet
166 0 m 1,0,-1
 166 1087 l 1,1,-1
 212 1087 l 1,2,-1
 212 0 l 1,3,-1
 166 0 l 1,0,-1
EndSplineSet
EndChar

StartChar: uni0237
Encoding: 567 567 713
Width: 384
GlyphClass: 2
Flags: W
AnchorPoint: "Anchor-1" 196 1087 basechar 0
AnchorPoint: "Anchor-0" 167 -441 basechar 0
LayerCount: 2
Fore
SplineSet
173 1087 m 1,0,-1
 218 1087 l 1,1,-1
 218 -162 l 2,2,3
 219 -241 219 -241 183 -298 c 128,-1,4
 147 -355 147 -355 89 -386.5 c 128,-1,5
 31 -418 31 -418 -38 -418 c 2,6,-1
 -56 -418 l 1,7,-1
 -56 -372 l 1,8,-1
 -37 -372 l 2,9,10
 45 -372 45 -372 109 -315.5 c 128,-1,11
 173 -259 173 -259 173 -162 c 2,12,-1
 173 1087 l 1,0,-1
EndSplineSet
EndChar

StartChar: i.sc
Encoding: 60950 60950 720
Width: 493
GlyphClass: 2
Flags: W
AnchorPoint: "Anchor-4" 422 0 basechar 0
AnchorPoint: "Anchor-1" 247 1087 basechar 0
AnchorPoint: "Anchor-0" 247 0 basechar 0
LayerCount: 2
Fore
SplineSet
71 0 m 1,0,-1
 71 45 l 1,1,-1
 223 45 l 1,2,-1
 223 1043 l 1,3,-1
 71 1043 l 1,4,-1
 71 1087 l 1,5,-1
 422 1087 l 1,6,-1
 422 1043 l 1,7,-1
 269 1043 l 1,8,-1
 269 45 l 1,9,-1
 422 45 l 1,10,-1
 422 0 l 1,11,-1
 71 0 l 1,0,-1
EndSplineSet
EndChar

StartChar: jcrosstail.ccmp
Encoding: 57423 57423 722
Width: 390
GlyphClass: 2
Flags: W
AnchorPoint: "Anchor-4" 300 0 basechar 0
AnchorPoint: "Anchor-1" 277 1087 basechar 0
AnchorPoint: "Anchor-0" 96 -460 basechar 0
LayerCount: 2
Fore
SplineSet
70 -418 m 0,0,1
 14 -418 14 -418 -37.5 -388 c 128,-1,2
 -89 -358 -89 -358 -121.5 -306.5 c 128,-1,3
 -154 -255 -154 -255 -154 -192 c 256,4,5
 -154 -129 -154 -129 -120 -77.5 c 128,-1,6
 -86 -26 -86 -26 -28 4 c 128,-1,7
 30 34 30 34 102 34 c 2,8,-1
 434 34 l 1,9,-1
 434 -12 l 1,10,-1
 102 -12 l 2,11,12
 14 -12 14 -12 -47 -64.5 c 128,-1,13
 -108 -117 -108 -117 -108 -192 c 256,14,15
 -108 -267 -108 -267 -52 -319.5 c 128,-1,16
 4 -372 4 -372 70 -372 c 0,17,18
 160 -372 160 -372 207 -314 c 128,-1,19
 254 -256 254 -256 254 -168 c 2,20,-1
 254 50 l 1,21,-1
 300 50 l 1,22,-1
 300 -168 l 2,23,24
 300 -222 300 -222 284.5 -267.5 c 128,-1,25
 269 -313 269 -313 239 -347 c 128,-1,26
 209 -381 209 -381 166.5 -399.5 c 128,-1,27
 124 -418 124 -418 70 -418 c 0,0,1
254 0 m 1,28,-1
 254 1087 l 1,29,-1
 300 1087 l 1,30,-1
 300 0 l 1,31,-1
 254 0 l 1,28,-1
EndSplineSet
EndChar

StartChar: k
Encoding: 107 107 729
Width: 924
GlyphClass: 2
Flags: W
AnchorPoint: "Anchor-1" 190 1490 basechar 0
AnchorPoint: "Anchor-0" 507 0 basechar 0
LayerCount: 2
Fore
SplineSet
200 450 m 1,0,-1
 200 531 l 1,1,-1
 218 531 l 1,2,-1
 781 1087 l 1,3,-1
 847 1087 l 1,4,-1
 371 617 l 1,5,-1
 365 611 l 1,6,-1
 200 450 l 1,0,-1
166 0 m 1,7,-1
 166 1490 l 1,8,-1
 212 1490 l 1,9,-1
 212 0 l 1,10,-1
 166 0 l 1,7,-1
825 0 m 1,11,-1
 334 617 l 1,12,-1
 369 645 l 1,13,-1
 885 0 l 1,14,-1
 825 0 l 1,11,-1
EndSplineSet
Substitution2: "'sups' Superscript in Latin lookup 39 subtable" k.sups
Substitution2: "'subs' Subscript in Latin lookup 38 subtable" k.subs
Substitution2: "'sinf' Scientific Inferiors in Latin lookup 18 subtable" k.subs
AlternateSubs2: "'aalt' Access All Alternates in Latin lookup 1 subtable" k.sups k.subs
EndChar

StartChar: uni0199
Encoding: 409 409 730
Width: 924
GlyphClass: 2
Flags: W
AnchorPoint: "Anchor-1" 190 1087 basechar 0
AnchorPoint: "Anchor-0" 507 0 basechar 0
LayerCount: 2
Fore
SplineSet
166 857 m 1,0,-1
 166 1262 l 2,1,2
 166 1364 166 1364 212.5 1411.5 c 128,-1,3
 259 1459 259 1459 350 1459 c 0,4,5
 365 1459 365 1459 385 1459.5 c 128,-1,6
 405 1460 405 1460 422 1460 c 1,7,-1
 422 1413 l 1,8,9
 404 1413 404 1413 384 1413 c 128,-1,10
 364 1413 364 1413 350 1413 c 0,11,12
 278 1413 278 1413 245 1378 c 128,-1,13
 212 1343 212 1343 212 1262 c 2,14,-1
 212 857 l 1,15,-1
 166 857 l 1,0,-1
200 450 m 1,16,-1
 200 531 l 1,17,-1
 218 531 l 1,18,-1
 781 1087 l 1,19,-1
 847 1087 l 1,20,-1
 371 617 l 1,21,-1
 365 611 l 1,22,-1
 200 450 l 1,16,-1
166 0 m 1,23,-1
 166 1087 l 1,24,-1
 212 1087 l 1,25,-1
 212 0 l 1,26,-1
 166 0 l 1,23,-1
825 0 m 1,27,-1
 334 617 l 1,28,-1
 369 645 l 1,29,-1
 885 0 l 1,30,-1
 825 0 l 1,27,-1
EndSplineSet
EndChar

StartChar: kturn
Encoding: 670 670 736
Width: 924
GlyphClass: 2
Flags: W
AnchorPoint: "Anchor-1" 494 1087 basechar 0
AnchorPoint: "Anchor-0" 776 -372 basechar 0
LayerCount: 2
Fore
SplineSet
724 637 m 1,0,-1
 724 556 l 1,1,-1
 706 556 l 1,2,-1
 143 0 l 1,3,-1
 77 0 l 1,4,-1
 553 472 l 1,5,-1
 559 478 l 1,6,-1
 724 637 l 1,0,-1
758 1087 m 1,7,-1
 758 -403 l 1,8,-1
 712 -403 l 1,9,-1
 712 1087 l 1,10,-1
 758 1087 l 1,7,-1
99 1087 m 1,11,-1
 590 472 l 1,12,-1
 555 442 l 1,13,-1
 39 1087 l 1,14,-1
 99 1087 l 1,11,-1
EndSplineSet
EndChar

StartChar: k.base
Encoding: 60951 60951 737
Width: 924
GlyphClass: 2
Flags: W
AnchorPoint: "Anchor-1" 190 1087 basechar 0
AnchorPoint: "Anchor-0" 507 0 basechar 0
LayerCount: 2
Fore
SplineSet
200 450 m 1,0,-1
 200 531 l 1,1,-1
 218 531 l 1,2,-1
 781 1087 l 1,3,-1
 847 1087 l 1,4,-1
 371 617 l 1,5,-1
 365 611 l 1,6,-1
 200 450 l 1,0,-1
166 0 m 1,7,-1
 166 1087 l 1,8,-1
 212 1087 l 1,9,-1
 212 0 l 1,10,-1
 166 0 l 1,7,-1
825 0 m 1,11,-1
 334 617 l 1,12,-1
 369 645 l 1,13,-1
 885 0 l 1,14,-1
 825 0 l 1,11,-1
EndSplineSet
EndChar

StartChar: l
Encoding: 1114124 -1 738
Width: 378
GlyphClass: 2
Flags: W
AnchorPoint: "Anchor-1" 190 1490 basechar 0
AnchorPoint: "Anchor-0" 191 0 basechar 0
LayerCount: 2
Fore
SplineSet
212 1490 m 1,0,-1
 212 0 l 1,1,-1
 166 0 l 1,2,-1
 166 1490 l 1,3,-1
 212 1490 l 1,0,-1
EndSplineSet
Substitution2: "'smcp' Lowercase to Small Capitals in Latin lookup 69 subtable" l.sc
Substitution2: "'c2sc' Capitals to Small Capitals in Latin lookup 68 subtable" l.sc
Substitution2: "'cv05' Character Variants 05 in Latin lookup 59 subtable" l.ss02
Substitution2: "'ss04' Style Set 4 in Latin lookup 50 subtable" l.ss02
Substitution2: "'ss02' Style Set 2 in Latin lookup 48 subtable" l.ss02
Substitution2: "'salt' Stylistic Alternatives in Latin lookup 46 subtable" l.ss02
Substitution2: "'sups' Superscript in Latin lookup 39 subtable" l.sups
Substitution2: "'subs' Subscript in Latin lookup 38 subtable" l.subs
Substitution2: "'sinf' Scientific Inferiors in Latin lookup 18 subtable" l.subs
AlternateSubs2: "'aalt' Access All Alternates in Latin lookup 1 subtable" l.sc l.sups l.subs
EndChar

StartChar: lrthook
Encoding: 621 621 742
Width: 378
GlyphClass: 2
Flags: W
AnchorPoint: "Anchor-1" 190 1490 basechar 0
AnchorPoint: "Anchor-0" 191 0 basechar 0
LayerCount: 2
Fore
SplineSet
350 -417 m 0,0,1
 259 -417 259 -417 212.5 -369.5 c 128,-1,2
 166 -322 166 -322 166 -219 c 2,3,-1
 166 0 l 1,4,-1
 212 0 l 1,5,-1
 212 -219 l 2,6,7
 212 -302 212 -302 245 -337 c 128,-1,8
 278 -372 278 -372 350 -372 c 0,9,10
 363 -372 363 -372 383.5 -372 c 128,-1,11
 404 -372 404 -372 423 -372 c 1,12,-1
 423 -418 l 1,13,14
 406 -418 406 -418 385.5 -417.5 c 128,-1,15
 365 -417 365 -417 350 -417 c 0,0,1
212 1490 m 1,16,-1
 212 0 l 1,17,-1
 166 0 l 1,18,-1
 166 1490 l 1,19,-1
 212 1490 l 1,16,-1
EndSplineSet
EndChar

StartChar: uni026C
Encoding: 1114128 -1 743
Width: 634
Flags: W
LayerCount: 2
Fore
SplineSet
630 647 m 1,0,-1
 296 647 l 2,1,2
 223 647 223 647 165.5 678 c 128,-1,3
 108 709 108 709 73.5 761 c 128,-1,4
 39 813 39 813 39 876 c 256,5,6
 39 939 39 939 71.5 989.5 c 128,-1,7
 104 1040 104 1040 156 1070.5 c 128,-1,8
 208 1101 208 1101 263 1101 c 0,9,10
 319 1101 319 1101 361 1082 c 128,-1,11
 403 1063 403 1063 433 1029 c 128,-1,12
 463 995 463 995 478.5 949.5 c 128,-1,13
 494 904 494 904 494 852 c 2,14,-1
 494 632 l 1,15,-1
 448 632 l 1,16,-1
 448 851 l 2,17,18
 448 938 448 938 401.5 997 c 128,-1,19
 355 1056 355 1056 263 1056 c 0,20,21
 221 1056 221 1056 180.5 1031 c 128,-1,22
 140 1006 140 1006 113.5 965.5 c 128,-1,23
 87 925 87 925 87 875 c 0,24,25
 87 801 87 801 147 747 c 128,-1,26
 207 693 207 693 296 693 c 2,27,-1
 630 693 l 1,28,-1
 630 647 l 1,0,-1
494 1490 m 1,29,-1
 494 0 l 1,30,-1
 448 0 l 1,31,-1
 448 1490 l 1,32,-1
 494 1490 l 1,29,-1
EndSplineSet
Substitution2: "'cv05' Character Variants 05 in Latin lookup 59 subtable" uni026C.ss02
Substitution2: "'ss04' Style Set 4 in Latin lookup 50 subtable" uni026C.ss02
Substitution2: "'ss02' Style Set 2 in Latin lookup 48 subtable" uni026C.ss02
Substitution2: "'salt' Stylistic Alternatives in Latin lookup 46 subtable" uni026C.ss02
EndChar

StartChar: uni0234
Encoding: 564 564 744
Width: 698
GlyphClass: 2
Flags: W
AnchorPoint: "Anchor-1" 190 1490 basechar 0
AnchorPoint: "Anchor-0" 191 0 basechar 0
LayerCount: 2
Fore
SplineSet
424 -410 m 0,0,1
 350 -410 350 -410 291.5 -378.5 c 128,-1,2
 233 -347 233 -347 199.5 -291 c 128,-1,3
 166 -235 166 -235 166 -160 c 2,4,-1
 166 60 l 1,5,-1
 212 60 l 1,6,-1
 212 -160 l 2,7,8
 212 -253 212 -253 272.5 -308 c 128,-1,9
 333 -363 333 -363 424 -363 c 0,10,11
 513 -363 513 -363 571.5 -314 c 128,-1,12
 630 -265 630 -265 630 -184 c 0,13,14
 630 -102 630 -102 569 -52 c 128,-1,15
 508 -2 508 -2 421 -2 c 0,16,17
 363 -2 363 -2 311 -30 c 128,-1,18
 259 -58 259 -58 204 -122 c 128,-1,19
 149 -186 149 -186 82 -293 c 2,20,-1
 19 -396 l 1,21,-1
 -21 -371 l 1,22,-1
 44 -267 l 2,23,24
 154 -97 154 -97 238.5 -26.5 c 128,-1,25
 323 44 323 44 420 44 c 0,26,27
 527 44 527 44 602 -19 c 128,-1,28
 677 -82 677 -82 677 -184 c 256,29,30
 677 -286 677 -286 604 -348 c 128,-1,31
 531 -410 531 -410 424 -410 c 0,0,1
212 1490 m 1,32,-1
 212 0 l 1,33,-1
 166 0 l 1,34,-1
 166 1490 l 1,35,-1
 212 1490 l 1,32,-1
EndSplineSet
EndChar

StartChar: l.ss02
Encoding: 57424 57424 753
AltUni2: 00006c.ffffffff.0
Width: 416
GlyphClass: 2
Flags: W
AnchorPoint: "Anchor-1" 190 1490 basechar 0
AnchorPoint: "Anchor-0" 263 0 basechar 0
LayerCount: 2
Fore
SplineSet
368 -1 m 0,0,1
 274 -12 274 -12 220 31 c 128,-1,2
 166 74 166 74 166 176 c 2,3,-1
 166 1490 l 1,4,-1
 212 1490 l 1,5,-1
 212 176 l 2,6,7
 212 92 212 92 252 64.5 c 128,-1,8
 292 37 292 37 367 46 c 0,9,10
 372 47 372 47 373.5 47 c 128,-1,11
 375 47 375 47 380 47 c 1,12,-1
 386 2 l 1,13,14
 382 1 382 1 377.5 0.5 c 128,-1,15
 373 0 373 0 368 -1 c 0,0,1
EndSplineSet
EndChar

StartChar: uni026C.ss02
Encoding: 57428 57428 757
AltUni2: 00026c.ffffffff.0
Width: 668
GlyphClass: 2
Flags: W
AnchorPoint: "Anchor-1" 436 1490 basechar 0
AnchorPoint: "Anchor-0" 509 0 basechar 0
LayerCount: 2
Fore
SplineSet
248 676 m 2,0,1
 175 676 175 676 120.5 706 c 128,-1,2
 66 736 66 736 36 787.5 c 128,-1,3
 6 839 6 839 6 904 c 256,4,5
 6 969 6 969 35.5 1020 c 128,-1,6
 65 1071 65 1071 115.5 1100.5 c 128,-1,7
 166 1130 166 1130 231 1130 c 0,8,9
 298 1130 298 1130 346 1099 c 128,-1,10
 394 1068 394 1068 420 1015 c 128,-1,11
 446 962 446 962 446 893 c 2,12,-1
 446 804 l 1,13,-1
 414 804 l 1,14,-1
 414 892 l 2,15,16
 414 975 414 975 363 1029.5 c 128,-1,17
 312 1084 312 1084 232 1084 c 0,18,19
 154 1084 154 1084 104 1033 c 128,-1,20
 54 982 54 982 54 904 c 0,21,22
 54 825 54 825 106 773.5 c 128,-1,23
 158 722 158 722 248 722 c 2,24,-1
 623 722 l 1,25,-1
 623 676 l 1,26,-1
 248 676 l 2,0,1
614 -1 m 0,27,28
 520 -12 520 -12 467 31 c 128,-1,29
 414 74 414 74 414 176 c 2,30,-1
 414 1490 l 1,31,-1
 460 1490 l 1,32,-1
 460 176 l 2,33,34
 460 92 460 92 499.5 64.5 c 128,-1,35
 539 37 539 37 613 46 c 0,36,37
 619 47 619 47 620.5 47 c 128,-1,38
 622 47 622 47 628 47 c 1,39,-1
 634 2 l 1,40,41
 629 1 629 1 624 0.5 c 128,-1,42
 619 0 619 0 614 -1 c 0,27,28
EndSplineSet
EndChar

StartChar: l.sc
Encoding: 60952 60952 767
Width: 910
Flags: W
LayerCount: 2
Fore
SplineSet
166 0 m 1,0,-1
 166 1087 l 1,1,-1
 212 1087 l 1,2,-1
 212 46 l 1,3,-1
 816 46 l 1,4,-1
 816 0 l 1,5,-1
 166 0 l 1,0,-1
EndSplineSet
EndChar

StartChar: m
Encoding: 109 109 768
Width: 1710
GlyphClass: 2
Flags: W
AnchorPoint: "Anchor-1" 855 1087 basechar 0
AnchorPoint: "Anchor-0" 856 0 basechar 0
LayerCount: 2
Fore
SplineSet
166 0 m 1,0,-1
 166 1087 l 1,1,-1
 213 1087 l 1,2,-1
 212 835 l 1,3,-1
 197 835 l 1,4,5
 219 928 219 928 273 987 c 128,-1,6
 327 1046 327 1046 398.5 1074.5 c 128,-1,7
 470 1103 470 1103 544 1103 c 0,8,9
 668 1103 668 1103 755.5 1027.5 c 128,-1,10
 843 952 843 952 866 819 c 1,11,-1
 847 819 l 1,12,13
 867 909 867 909 918 972 c 128,-1,14
 969 1035 969 1035 1043 1069 c 128,-1,15
 1117 1103 1117 1103 1204 1103 c 0,16,17
 1309 1103 1309 1103 1385 1056.5 c 128,-1,18
 1461 1010 1461 1010 1502.5 924 c 128,-1,19
 1544 838 1544 838 1544 719 c 2,20,-1
 1544 0 l 1,21,-1
 1499 0 l 1,22,-1
 1499 720 l 2,23,24
 1499 881 1499 881 1419 969 c 128,-1,25
 1339 1057 1339 1057 1204 1057 c 0,26,27
 1115 1057 1115 1057 1040.5 1017.5 c 128,-1,28
 966 978 966 978 922.5 902.5 c 128,-1,29
 879 827 879 827 879 719 c 2,30,-1
 879 0 l 1,31,-1
 833 0 l 1,32,-1
 833 720 l 2,33,34
 833 882 833 882 754 969.5 c 128,-1,35
 675 1057 675 1057 544 1057 c 0,36,37
 450 1057 450 1057 375 1014 c 128,-1,38
 300 971 300 971 256 894.5 c 128,-1,39
 212 818 212 818 212 719 c 2,40,-1
 212 0 l 1,41,-1
 166 0 l 1,0,-1
EndSplineSet
Substitution2: "'smcp' Lowercase to Small Capitals in Latin lookup 69 subtable" m.sc
Substitution2: "'c2sc' Capitals to Small Capitals in Latin lookup 68 subtable" m.sc
Substitution2: "'sups' Superscript in Latin lookup 39 subtable" m.sups
Substitution2: "'subs' Subscript in Latin lookup 38 subtable" m.subs
Substitution2: "'sinf' Scientific Inferiors in Latin lookup 18 subtable" m.subs
AlternateSubs2: "'aalt' Access All Alternates in Latin lookup 1 subtable" m.sups m.subs m.sc
EndChar

StartChar: uni0271
Encoding: 625 625 769
Width: 1710
GlyphClass: 2
Flags: W
AnchorPoint: "Anchor-1" 855 1087 basechar 0
AnchorPoint: "Anchor-0" 856 0 basechar 0
LayerCount: 2
Fore
SplineSet
1360 -417 m 0,0,1
 1348 -417 1348 -417 1327 -417.5 c 128,-1,2
 1306 -418 1306 -418 1289 -418 c 1,3,-1
 1289 -372 l 1,4,5
 1307 -372 1307 -372 1327.5 -372 c 128,-1,6
 1348 -372 1348 -372 1360 -372 c 0,7,8
 1433 -372 1433 -372 1466 -337 c 128,-1,9
 1499 -302 1499 -302 1499 -219 c 2,10,-1
 1499 0 l 1,11,-1
 1544 0 l 1,12,-1
 1544 -219 l 2,13,14
 1544 -322 1544 -322 1498.5 -369.5 c 128,-1,15
 1453 -417 1453 -417 1360 -417 c 0,0,1
166 0 m 1,16,-1
 166 1087 l 1,17,-1
 213 1087 l 1,18,-1
 212 835 l 1,19,-1
 197 835 l 1,20,21
 219 928 219 928 273 987 c 128,-1,22
 327 1046 327 1046 398.5 1074.5 c 128,-1,23
 470 1103 470 1103 544 1103 c 0,24,25
 668 1103 668 1103 755.5 1027.5 c 128,-1,26
 843 952 843 952 866 819 c 1,27,-1
 847 819 l 1,28,29
 867 909 867 909 918 972 c 128,-1,30
 969 1035 969 1035 1043 1069 c 128,-1,31
 1117 1103 1117 1103 1205 1103 c 0,32,33
 1310 1103 1310 1103 1385.5 1056.5 c 128,-1,34
 1461 1010 1461 1010 1502.5 924 c 128,-1,35
 1544 838 1544 838 1544 719 c 2,36,-1
 1544 0 l 1,37,-1
 1499 0 l 1,38,-1
 1499 720 l 2,39,40
 1499 882 1499 882 1419 969.5 c 128,-1,41
 1339 1057 1339 1057 1205 1057 c 0,42,43
 1115 1057 1115 1057 1040.5 1018 c 128,-1,44
 966 979 966 979 922.5 903.5 c 128,-1,45
 879 828 879 828 879 719 c 2,46,-1
 879 0 l 1,47,-1
 833 0 l 1,48,-1
 833 720 l 2,49,50
 833 882 833 882 754 969.5 c 128,-1,51
 675 1057 675 1057 545 1057 c 0,52,53
 450 1057 450 1057 375 1014 c 128,-1,54
 300 971 300 971 256 894.5 c 128,-1,55
 212 818 212 818 212 719 c 2,56,-1
 212 0 l 1,57,-1
 166 0 l 1,16,-1
EndSplineSet
EndChar

StartChar: mturn
Encoding: 623 623 770
Width: 1710
GlyphClass: 2
Flags: W
AnchorPoint: "Anchor-1" 855 1087 basechar 0
AnchorPoint: "Anchor-0" 855 0 basechar 0
LayerCount: 2
Fore
SplineSet
1544 1087 m 1,0,-1
 1544 0 l 1,1,-1
 1499 0 l 1,2,-1
 1498 252 l 1,3,-1
 1515 252 l 1,4,5
 1493 161 1493 161 1438.5 101.5 c 128,-1,6
 1384 42 1384 42 1312 13 c 128,-1,7
 1240 -16 1240 -16 1166 -16 c 0,8,9
 1043 -16 1043 -16 955.5 60 c 128,-1,10
 868 136 868 136 846 268 c 1,11,-1
 863 268 l 1,12,13
 845 180 845 180 793.5 116 c 128,-1,14
 742 52 742 52 668 18 c 128,-1,15
 594 -16 594 -16 507 -16 c 0,16,17
 402 -16 402 -16 325.5 30.5 c 128,-1,18
 249 77 249 77 207.5 164 c 128,-1,19
 166 251 166 251 166 368 c 2,20,-1
 166 1087 l 1,21,-1
 213 1087 l 1,22,-1
 213 369 l 2,23,24
 213 207 213 207 292 118.5 c 128,-1,25
 371 30 371 30 507 30 c 0,26,27
 598 30 598 30 671 70 c 128,-1,28
 744 110 744 110 788.5 185 c 128,-1,29
 833 260 833 260 833 368 c 2,30,-1
 833 1087 l 1,31,-1
 879 1087 l 1,32,-1
 879 369 l 2,33,34
 879 206 879 206 957.5 118 c 128,-1,35
 1036 30 1036 30 1166 30 c 0,36,37
 1260 30 1260 30 1335 74 c 128,-1,38
 1410 118 1410 118 1454 194 c 128,-1,39
 1498 270 1498 270 1498 368 c 2,40,-1
 1498 1087 l 1,41,-1
 1544 1087 l 1,0,-1
EndSplineSet
EndChar

StartChar: mturndescend
Encoding: 624 624 771
Width: 1710
GlyphClass: 2
Flags: W
AnchorPoint: "Anchor-1" 855 1087 basechar 0
AnchorPoint: "Anchor-0" 855 0 basechar 0
LayerCount: 2
Fore
SplineSet
1498 -418 m 1,0,-1
 1498 0 l 1,1,-1
 1544 0 l 1,2,-1
 1544 -418 l 1,3,-1
 1498 -418 l 1,0,-1
1544 1087 m 1,4,-1
 1544 0 l 1,5,-1
 1499 0 l 1,6,-1
 1498 252 l 1,7,-1
 1515 252 l 1,8,9
 1493 161 1493 161 1438.5 101.5 c 128,-1,10
 1384 42 1384 42 1312 13 c 128,-1,11
 1240 -16 1240 -16 1166 -16 c 0,12,13
 1043 -16 1043 -16 955.5 60 c 128,-1,14
 868 136 868 136 846 268 c 1,15,-1
 863 268 l 1,16,17
 845 180 845 180 793.5 116 c 128,-1,18
 742 52 742 52 668 18 c 128,-1,19
 594 -16 594 -16 507 -16 c 0,20,21
 402 -16 402 -16 325.5 30.5 c 128,-1,22
 249 77 249 77 207.5 164 c 128,-1,23
 166 251 166 251 166 368 c 2,24,-1
 166 1087 l 1,25,-1
 213 1087 l 1,26,-1
 213 369 l 2,27,28
 213 207 213 207 292 118.5 c 128,-1,29
 371 30 371 30 507 30 c 0,30,31
 598 30 598 30 671 70 c 128,-1,32
 744 110 744 110 788.5 185 c 128,-1,33
 833 260 833 260 833 368 c 2,34,-1
 833 1087 l 1,35,-1
 879 1087 l 1,36,-1
 879 369 l 2,37,38
 879 206 879 206 957.5 118 c 128,-1,39
 1036 30 1036 30 1166 30 c 0,40,41
 1260 30 1260 30 1335 74 c 128,-1,42
 1410 118 1410 118 1454 194 c 128,-1,43
 1498 270 1498 270 1498 368 c 2,44,-1
 1498 1087 l 1,45,-1
 1544 1087 l 1,4,-1
EndSplineSet
EndChar

StartChar: n
Encoding: 110 110 775
Width: 1132
GlyphClass: 2
Flags: W
AnchorPoint: "Anchor-1" 569 1087 basechar 0
AnchorPoint: "Anchor-0" 567 0 basechar 0
LayerCount: 2
Fore
SplineSet
212 719 m 2,0,-1
 212 0 l 1,1,-1
 166 0 l 1,2,-1
 166 1087 l 1,3,-1
 213 1087 l 1,4,-1
 212 848 l 1,5,-1
 201 848 l 1,6,7
 236 976 236 976 342.5 1039.5 c 128,-1,8
 449 1103 449 1103 576 1103 c 0,9,10
 691 1103 691 1103 778.5 1054.5 c 128,-1,11
 866 1006 866 1006 916 920.5 c 128,-1,12
 966 835 966 835 966 719 c 2,13,-1
 966 0 l 1,14,-1
 920 0 l 1,15,-1
 920 720 l 2,16,17
 920 872 920 872 824 964.5 c 128,-1,18
 728 1057 728 1057 576 1057 c 0,19,20
 473 1057 473 1057 390.5 1013.5 c 128,-1,21
 308 970 308 970 260 894 c 128,-1,22
 212 818 212 818 212 719 c 2,0,-1
EndSplineSet
Substitution2: "'smcp' Lowercase to Small Capitals in Latin lookup 69 subtable" n.sc
Substitution2: "'c2sc' Capitals to Small Capitals in Latin lookup 68 subtable" n.sc
Substitution2: "'sups' Superscript in Latin lookup 39 subtable" n.sups
Substitution2: "'subs' Subscript in Latin lookup 38 subtable" n.subs
Substitution2: "'numr' Numerators in Latin lookup 19 subtable" n.numr
Substitution2: "'sinf' Scientific Inferiors in Latin lookup 18 subtable" n.subs
AlternateSubs2: "'aalt' Access All Alternates in Latin lookup 1 subtable" n.sc n.numr n.sups n.subs
EndChar

StartChar: nrthook
Encoding: 627 627 777
Width: 1132
GlyphClass: 2
Flags: W
AnchorPoint: "Anchor-1" 569 1087 basechar 0
AnchorPoint: "Anchor-0" 567 0 basechar 0
LayerCount: 2
Fore
SplineSet
1105 -417 m 0,0,1
 1012 -417 1012 -417 966.5 -369.5 c 128,-1,2
 921 -322 921 -322 921 -219 c 2,3,-1
 921 0 l 1,4,-1
 967 0 l 1,5,-1
 967 -219 l 2,6,7
 967 -302 967 -302 999.5 -337 c 128,-1,8
 1032 -372 1032 -372 1105 -372 c 0,9,10
 1118 -372 1118 -372 1137.5 -372 c 128,-1,11
 1157 -372 1157 -372 1176 -372 c 1,12,-1
 1176 -418 l 1,13,14
 1159 -418 1159 -418 1138.5 -417.5 c 128,-1,15
 1118 -417 1118 -417 1105 -417 c 0,0,1
212 719 m 2,16,-1
 212 0 l 1,17,-1
 166 0 l 1,18,-1
 166 1087 l 1,19,-1
 213 1087 l 1,20,-1
 212 848 l 1,21,-1
 201 848 l 1,22,23
 236 976 236 976 342.5 1039.5 c 128,-1,24
 449 1103 449 1103 576 1103 c 0,25,26
 691 1103 691 1103 778.5 1054.5 c 128,-1,27
 866 1006 866 1006 916 920.5 c 128,-1,28
 966 835 966 835 966 719 c 2,29,-1
 966 0 l 1,30,-1
 920 0 l 1,31,-1
 920 720 l 2,32,33
 920 872 920 872 824 964.5 c 128,-1,34
 728 1057 728 1057 576 1057 c 0,35,36
 473 1057 473 1057 390.5 1013.5 c 128,-1,37
 308 970 308 970 260 894 c 128,-1,38
 212 818 212 818 212 719 c 2,16,-1
EndSplineSet
EndChar

StartChar: eng
Encoding: 331 331 778
Width: 1132
GlyphClass: 2
Flags: W
AnchorPoint: "Anchor-1" 569 1087 basechar 0
AnchorPoint: "Anchor-0" 567 0 basechar 0
LayerCount: 2
Fore
SplineSet
710 -418 m 1,0,-1
 710 -371 l 1,1,2
 730 -372 730 -372 750 -372 c 128,-1,3
 770 -372 770 -372 782 -372 c 0,4,5
 854 -372 854 -372 887 -337 c 128,-1,6
 920 -302 920 -302 920 -219 c 2,7,-1
 920 0 l 1,8,-1
 967 0 l 1,9,-1
 967 -219 l 2,10,11
 967 -322 967 -322 920.5 -369.5 c 128,-1,12
 874 -417 874 -417 782 -417 c 0,13,14
 769 -417 769 -417 748 -417.5 c 128,-1,15
 727 -418 727 -418 710 -418 c 1,0,-1
212 719 m 2,16,-1
 212 0 l 1,17,-1
 166 0 l 1,18,-1
 166 1087 l 1,19,-1
 213 1087 l 1,20,-1
 212 848 l 1,21,-1
 201 848 l 1,22,23
 236 976 236 976 342.5 1039.5 c 128,-1,24
 449 1103 449 1103 576 1103 c 0,25,26
 691 1103 691 1103 778.5 1054.5 c 128,-1,27
 866 1006 866 1006 916 920.5 c 128,-1,28
 966 835 966 835 966 719 c 2,29,-1
 966 0 l 1,30,-1
 920 0 l 1,31,-1
 920 720 l 2,32,33
 920 872 920 872 824 964.5 c 128,-1,34
 728 1057 728 1057 576 1057 c 0,35,36
 473 1057 473 1057 390.5 1013.5 c 128,-1,37
 308 970 308 970 260 894 c 128,-1,38
 212 818 212 818 212 719 c 2,16,-1
EndSplineSet
EndChar

StartChar: uni0235
Encoding: 565 565 779
Width: 1452
GlyphClass: 2
Flags: W
AnchorPoint: "Anchor-1" 569 1087 basechar 0
AnchorPoint: "Anchor-0" 567 0 basechar 0
LayerCount: 2
Fore
SplineSet
1179 -410 m 0,0,1
 1105 -410 1105 -410 1046.5 -378.5 c 128,-1,2
 988 -347 988 -347 954.5 -291 c 128,-1,3
 921 -235 921 -235 921 -160 c 2,4,-1
 921 60 l 1,5,-1
 967 60 l 1,6,-1
 967 -160 l 2,7,8
 967 -253 967 -253 1026.5 -308 c 128,-1,9
 1086 -363 1086 -363 1179 -363 c 0,10,11
 1266 -363 1266 -363 1325.5 -314 c 128,-1,12
 1385 -265 1385 -265 1385 -184 c 0,13,14
 1385 -102 1385 -102 1323 -52 c 128,-1,15
 1261 -2 1261 -2 1174 -2 c 0,16,17
 1118 -2 1118 -2 1066 -30 c 128,-1,18
 1014 -58 1014 -58 959 -122 c 128,-1,19
 904 -186 904 -186 837 -293 c 2,20,-1
 772 -396 l 1,21,-1
 732 -371 l 1,22,-1
 799 -267 l 2,23,24
 907 -97 907 -97 992.5 -26.5 c 128,-1,25
 1078 44 1078 44 1175 44 c 0,26,27
 1282 44 1282 44 1356 -19 c 128,-1,28
 1430 -82 1430 -82 1430 -184 c 256,29,30
 1430 -286 1430 -286 1358 -348 c 128,-1,31
 1286 -410 1286 -410 1179 -410 c 0,0,1
212 719 m 2,32,-1
 212 0 l 1,33,-1
 166 0 l 1,34,-1
 166 1087 l 1,35,-1
 213 1087 l 1,36,-1
 212 848 l 1,37,-1
 201 848 l 1,38,39
 236 976 236 976 342.5 1039.5 c 128,-1,40
 449 1103 449 1103 576 1103 c 0,41,42
 691 1103 691 1103 778.5 1054.5 c 128,-1,43
 866 1006 866 1006 916 920.5 c 128,-1,44
 966 835 966 835 966 719 c 2,45,-1
 966 0 l 1,46,-1
 920 0 l 1,47,-1
 920 720 l 2,48,49
 920 872 920 872 824 964.5 c 128,-1,50
 728 1057 728 1057 576 1057 c 0,51,52
 473 1057 473 1057 390.5 1013.5 c 128,-1,53
 308 970 308 970 260 894 c 128,-1,54
 212 818 212 818 212 719 c 2,32,-1
EndSplineSet
EndChar

StartChar: nlfthook
Encoding: 626 626 780
Width: 1132
GlyphClass: 2
Flags: W
AnchorPoint: "Anchor-1" 569 1087 basechar 0
AnchorPoint: "Anchor-0" 567 0 basechar 0
LayerCount: 2
Fore
SplineSet
29 -417 m 0,0,1
 15 -417 15 -417 -6 -417.5 c 128,-1,2
 -27 -418 -27 -418 -44 -418 c 1,3,-1
 -44 -372 l 1,4,5
 -24 -372 -24 -372 -4.5 -372 c 128,-1,6
 15 -372 15 -372 29 -372 c 0,7,8
 100 -372 100 -372 133 -337 c 128,-1,9
 166 -302 166 -302 166 -219 c 2,10,-1
 166 0 l 1,11,-1
 213 0 l 1,12,-1
 213 -219 l 2,13,14
 213 -322 213 -322 166.5 -369.5 c 128,-1,15
 120 -417 120 -417 29 -417 c 0,0,1
212 719 m 2,16,-1
 212 0 l 1,17,-1
 166 0 l 1,18,-1
 166 1087 l 1,19,-1
 213 1087 l 1,20,-1
 212 848 l 1,21,-1
 201 848 l 1,22,23
 236 976 236 976 342.5 1039.5 c 128,-1,24
 449 1103 449 1103 576 1103 c 0,25,26
 691 1103 691 1103 778.5 1054.5 c 128,-1,27
 866 1006 866 1006 916 920.5 c 128,-1,28
 966 835 966 835 966 719 c 2,29,-1
 966 0 l 1,30,-1
 920 0 l 1,31,-1
 920 720 l 2,32,33
 920 872 920 872 824 964.5 c 128,-1,34
 728 1057 728 1057 576 1057 c 0,35,36
 473 1057 473 1057 390.5 1013.5 c 128,-1,37
 308 970 308 970 260 894 c 128,-1,38
 212 818 212 818 212 719 c 2,16,-1
EndSplineSet
EndChar

StartChar: n.sc
Encoding: 60953 60953 791
Width: 1232
GlyphClass: 2
Flags: W
AnchorPoint: "Anchor-1" 617 1087 basechar 0
AnchorPoint: "Anchor-0" 617 0 basechar 0
LayerCount: 2
Fore
SplineSet
166 0 m 1,0,-1
 166 1087 l 1,1,-1
 223 1087 l 1,2,-1
 819 321 l 2,3,4
 876 246 876 246 932 171.5 c 128,-1,5
 988 97 988 97 1044 23 c 1,6,-1
 1021 23 l 1,7,8
 1021 73 1021 73 1021 122.5 c 128,-1,9
 1021 172 1021 172 1021 221.5 c 128,-1,10
 1021 271 1021 271 1021 321 c 2,11,-1
 1021 1087 l 1,12,-1
 1066 1087 l 1,13,-1
 1066 0 l 1,14,-1
 1009 0 l 1,15,-1
 413 769 l 2,16,17
 355 843 355 843 299 917 c 128,-1,18
 243 991 243 991 188 1065 c 1,19,-1
 212 1065 l 1,20,21
 213 991 213 991 212.5 917 c 128,-1,22
 212 843 212 843 212 769 c 2,23,-1
 212 0 l 1,24,-1
 166 0 l 1,0,-1
EndSplineSet
EndChar

StartChar: o
Encoding: 111 111 792
Width: 1122
GlyphClass: 2
Flags: W
AnchorPoint: "Anchor-4" 1024 542 basechar 0
AnchorPoint: "Anchor-1" 563 1087 basechar 0
AnchorPoint: "Anchor-0" 563 0 basechar 0
LayerCount: 2
Fore
SplineSet
563 -20 m 256,0,1
 429 -20 429 -20 324 54 c 128,-1,2
 219 128 219 128 158.5 255 c 128,-1,3
 98 382 98 382 98 542 c 0,4,5
 98 704 98 704 158.5 830.5 c 128,-1,6
 219 957 219 957 324 1030 c 128,-1,7
 429 1103 429 1103 563 1103 c 0,8,9
 696 1103 696 1103 800.5 1030 c 128,-1,10
 905 957 905 957 964.5 830.5 c 128,-1,11
 1024 704 1024 704 1024 542 c 0,12,13
 1024 382 1024 382 964.5 255 c 128,-1,14
 905 128 905 128 801 54 c 128,-1,15
 697 -20 697 -20 563 -20 c 256,0,1
563 27 m 0,16,17
 683 27 683 27 777 93.5 c 128,-1,18
 871 160 871 160 924.5 277 c 128,-1,19
 978 394 978 394 978 542 c 0,20,21
 978 691 978 691 924 807.5 c 128,-1,22
 870 924 870 924 776 991 c 128,-1,23
 682 1058 682 1058 563 1058 c 0,24,25
 442 1058 442 1058 348 991 c 128,-1,26
 254 924 254 924 199.5 807.5 c 128,-1,27
 145 691 145 691 145 542 c 256,28,29
 145 393 145 393 199 276.5 c 128,-1,30
 253 160 253 160 347.5 93.5 c 128,-1,31
 442 27 442 27 563 27 c 0,16,17
EndSplineSet
Substitution2: "Single Substitution lookup 44 subtable" ordmasculine
Substitution2: "'sups' Superscript in Latin lookup 39 subtable" o.sups
Substitution2: "'subs' Subscript in Latin lookup 38 subtable" o.subs
Substitution2: "'sinf' Scientific Inferiors in Latin lookup 18 subtable" o.subs
AlternateSubs2: "'aalt' Access All Alternates in Latin lookup 1 subtable" ordmasculine o.sups o.subs
EndChar

StartChar: ohorn
Encoding: 417 417 796
Width: 1122
GlyphClass: 2
Flags: W
AnchorPoint: "Anchor-4" 1024 542 basechar 0
AnchorPoint: "Anchor-1" 563 1087 basechar 0
AnchorPoint: "Anchor-0" 563 0 basechar 0
LayerCount: 2
Fore
SplineSet
562 1063 m 1,0,-1
 562 1103 l 1,1,2
 604 1102 604 1102 647 1099.5 c 128,-1,3
 690 1097 690 1097 733.5 1094.5 c 128,-1,4
 777 1092 777 1092 820 1089.5 c 128,-1,5
 863 1087 863 1087 906 1087 c 0,6,7
 983 1087 983 1087 983 1164 c 2,8,-1
 983 1311 l 1,9,-1
 1029 1311 l 1,10,-1
 1029 1164 l 2,11,12
 1029 1106 1029 1106 996.5 1074 c 128,-1,13
 964 1042 964 1042 906 1042 c 0,14,15
 820 1043 820 1043 733.5 1050.5 c 128,-1,16
 647 1058 647 1058 562 1063 c 1,0,-1
563 -20 m 256,17,18
 429 -20 429 -20 324 54 c 128,-1,19
 219 128 219 128 158.5 255 c 128,-1,20
 98 382 98 382 98 542 c 0,21,22
 98 704 98 704 158.5 830.5 c 128,-1,23
 219 957 219 957 324 1030 c 128,-1,24
 429 1103 429 1103 563 1103 c 0,25,26
 696 1103 696 1103 800.5 1030 c 128,-1,27
 905 957 905 957 964.5 830.5 c 128,-1,28
 1024 704 1024 704 1024 542 c 0,29,30
 1024 382 1024 382 964.5 255 c 128,-1,31
 905 128 905 128 801 54 c 128,-1,32
 697 -20 697 -20 563 -20 c 256,17,18
563 27 m 0,33,34
 683 27 683 27 777 93.5 c 128,-1,35
 871 160 871 160 924.5 277 c 128,-1,36
 978 394 978 394 978 542 c 0,37,38
 978 691 978 691 924 807.5 c 128,-1,39
 870 924 870 924 776 991 c 128,-1,40
 682 1058 682 1058 563 1058 c 0,41,42
 442 1058 442 1058 348 991 c 128,-1,43
 254 924 254 924 199.5 807.5 c 128,-1,44
 145 691 145 691 145 542 c 256,45,46
 145 393 145 393 199 276.5 c 128,-1,47
 253 160 253 160 347.5 93.5 c 128,-1,48
 442 27 442 27 563 27 c 0,33,34
EndSplineSet
EndChar

StartChar: uni1EE1
Encoding: 7905 7905 826
Width: 1122
GlyphClass: 2
Flags: W
AnchorPoint: "Anchor-4" 1024 542 basechar 0
AnchorPoint: "Anchor-1" 563 1494 basechar 0
AnchorPoint: "Anchor-0" 563 0 basechar 0
LayerCount: 2
Fore
SplineSet
563 -20 m 256,0,1
 429 -20 429 -20 324 54 c 128,-1,2
 219 128 219 128 158.5 255 c 128,-1,3
 98 382 98 382 98 542 c 0,4,5
 98 704 98 704 158.5 830.5 c 128,-1,6
 219 957 219 957 324 1030 c 128,-1,7
 429 1103 429 1103 563 1103 c 0,8,9
 696 1103 696 1103 800.5 1030 c 128,-1,10
 905 957 905 957 964.5 830.5 c 128,-1,11
 1024 704 1024 704 1024 542 c 0,12,13
 1024 382 1024 382 964.5 255 c 128,-1,14
 905 128 905 128 801 54 c 128,-1,15
 697 -20 697 -20 563 -20 c 256,0,1
563 27 m 0,16,17
 683 27 683 27 777 93.5 c 128,-1,18
 871 160 871 160 924.5 277 c 128,-1,19
 978 394 978 394 978 542 c 0,20,21
 978 691 978 691 924 807.5 c 128,-1,22
 870 924 870 924 776 991 c 128,-1,23
 682 1058 682 1058 563 1058 c 0,24,25
 442 1058 442 1058 348 991 c 128,-1,26
 254 924 254 924 199.5 807.5 c 128,-1,27
 145 691 145 691 145 542 c 256,28,29
 145 393 145 393 199 276.5 c 128,-1,30
 253 160 253 160 347.5 93.5 c 128,-1,31
 442 27 442 27 563 27 c 0,16,17
562 1063 m 1,32,-1
 562 1103 l 1,33,34
 604 1102 604 1102 647 1099.5 c 128,-1,35
 690 1097 690 1097 733.5 1094.5 c 128,-1,36
 777 1092 777 1092 820 1089.5 c 128,-1,37
 863 1087 863 1087 906 1087 c 0,38,39
 983 1087 983 1087 983 1164 c 2,40,-1
 983 1311 l 1,41,-1
 1029 1311 l 1,42,-1
 1029 1164 l 2,43,44
 1029 1106 1029 1106 996.5 1074 c 128,-1,45
 964 1042 964 1042 906 1042 c 0,46,47
 820 1043 820 1043 733.5 1050.5 c 128,-1,48
 647 1058 647 1058 562 1063 c 1,32,-1
692 1317 m 0,49,50
 649 1317 649 1317 618.5 1335.5 c 128,-1,51
 588 1354 588 1354 561.5 1377 c 128,-1,52
 535 1400 535 1400 508 1417.5 c 128,-1,53
 481 1435 481 1435 447 1435 c 0,54,55
 398 1435 398 1435 366.5 1405.5 c 128,-1,56
 335 1376 335 1376 330 1325 c 1,57,-1
 285 1325 l 1,58,59
 291 1393 291 1393 332.5 1437.5 c 128,-1,60
 374 1482 374 1482 439 1482 c 0,61,62
 485 1482 485 1482 517.5 1463.5 c 128,-1,63
 550 1445 550 1445 576 1422.5 c 128,-1,64
 602 1400 602 1400 627 1381.5 c 128,-1,65
 652 1363 652 1363 683 1363 c 0,66,67
 726 1363 726 1363 754 1388 c 128,-1,68
 782 1413 782 1413 794 1471 c 1,69,-1
 841 1471 l 1,70,71
 829 1400 829 1400 789 1358.5 c 128,-1,72
 749 1317 749 1317 692 1317 c 0,49,50
EndSplineSet
Ligature2: "'ccmp' Glyph Composition/Decomposition in Latin lookup 6 subtable" ohorn tildecomb
EndChar

StartChar: obar
Encoding: 629 629 839
Width: 1122
GlyphClass: 2
Flags: W
AnchorPoint: "Anchor-4" 1024 542 basechar 0
AnchorPoint: "Anchor-1" 563 1087 basechar 0
AnchorPoint: "Anchor-0" 563 0 basechar 0
LayerCount: 2
Fore
SplineSet
998 567 m 1,0,-1
 998 521 l 1,1,-1
 128 521 l 1,2,-1
 128 567 l 1,3,-1
 998 567 l 1,0,-1
563 -20 m 256,4,5
 429 -20 429 -20 324 54 c 128,-1,6
 219 128 219 128 158.5 255 c 128,-1,7
 98 382 98 382 98 542 c 0,8,9
 98 704 98 704 158.5 830.5 c 128,-1,10
 219 957 219 957 324 1030 c 128,-1,11
 429 1103 429 1103 563 1103 c 0,12,13
 696 1103 696 1103 800.5 1030 c 128,-1,14
 905 957 905 957 964.5 830.5 c 128,-1,15
 1024 704 1024 704 1024 542 c 0,16,17
 1024 382 1024 382 964.5 255 c 128,-1,18
 905 128 905 128 801 54 c 128,-1,19
 697 -20 697 -20 563 -20 c 256,4,5
563 27 m 0,20,21
 683 27 683 27 777 93.5 c 128,-1,22
 871 160 871 160 924.5 277 c 128,-1,23
 978 394 978 394 978 542 c 0,24,25
 978 691 978 691 924 807.5 c 128,-1,26
 870 924 870 924 776 991 c 128,-1,27
 682 1058 682 1058 563 1058 c 0,28,29
 442 1058 442 1058 348 991 c 128,-1,30
 254 924 254 924 199.5 807.5 c 128,-1,31
 145 691 145 691 145 542 c 256,32,33
 145 393 145 393 199 276.5 c 128,-1,34
 253 160 253 160 347.5 93.5 c 128,-1,35
 442 27 442 27 563 27 c 0,20,21
EndSplineSet
EndChar

StartChar: oe.sc
Encoding: 60954 60954 843
Width: 1611
Flags: W
LayerCount: 2
Fore
SplineSet
601 0 m 2,0,1
 446 0 446 0 333 63.5 c 128,-1,2
 220 127 220 127 159 248.5 c 128,-1,3
 98 370 98 370 98 542 c 2,4,-1
 98 546 l 2,5,6
 98 707 98 707 158.5 828.5 c 128,-1,7
 219 950 219 950 331.5 1018.5 c 128,-1,8
 444 1087 444 1087 600 1087 c 2,9,-1
 862 1087 l 1,10,-1
 862 1041 l 1,11,-1
 605 1041 l 2,12,13
 458 1041 458 1041 355 979 c 128,-1,14
 252 917 252 917 198 805.5 c 128,-1,15
 144 694 144 694 144 546 c 2,16,-1
 144 542 l 2,17,18
 144 383 144 383 199 272 c 128,-1,19
 254 161 254 161 356.5 103.5 c 128,-1,20
 459 46 459 46 604 46 c 2,21,-1
 856 46 l 1,22,-1
 856 0 l 1,23,-1
 601 0 l 2,0,1
884 0 m 1,24,-1
 884 46 l 1,25,-1
 1541 46 l 1,26,-1
 1541 0 l 1,27,-1
 884 0 l 1,24,-1
847 0 m 1,28,-1
 847 1087 l 1,29,-1
 893 1087 l 1,30,-1
 893 0 l 1,31,-1
 847 0 l 1,28,-1
884 529 m 1,32,-1
 884 574 l 1,33,-1
 1456 574 l 1,34,-1
 1456 529 l 1,35,-1
 884 529 l 1,32,-1
884 1041 m 1,36,-1
 884 1087 l 1,37,-1
 1541 1087 l 1,38,-1
 1541 1041 l 1,39,-1
 884 1041 l 1,36,-1
EndSplineSet
EndChar

StartChar: p
Encoding: 112 112 845
Width: 1154
GlyphClass: 2
Flags: W
AnchorPoint: "Anchor-1" 608 1087 basechar 0
AnchorPoint: "Anchor-0" 190 -417 basechar 0
LayerCount: 2
Fore
SplineSet
166 -418 m 1,0,-1
 166 1087 l 1,1,-1
 212 1087 l 1,2,-1
 212 802 l 1,3,-1
 216 802 l 1,4,5
 241 890 241 890 297.5 958.5 c 128,-1,6
 354 1027 354 1027 434.5 1065 c 128,-1,7
 515 1103 515 1103 609 1103 c 0,8,9
 740 1103 740 1103 841 1031.5 c 128,-1,10
 942 960 942 960 999 833 c 128,-1,11
 1056 706 1056 706 1056 542 c 0,12,13
 1056 377 1056 377 999.5 250.5 c 128,-1,14
 943 124 943 124 842.5 52 c 128,-1,15
 742 -20 742 -20 610 -20 c 0,16,17
 515 -20 515 -20 435 18 c 128,-1,18
 355 56 355 56 298.5 124.5 c 128,-1,19
 242 193 242 193 216 281 c 1,20,-1
 212 281 l 1,21,-1
 212 -418 l 1,22,-1
 166 -418 l 1,0,-1
609 26 m 0,23,24
 728 26 728 26 818 92 c 128,-1,25
 908 158 908 158 959.5 274 c 128,-1,26
 1011 390 1011 390 1011 542 c 256,27,28
 1011 694 1011 694 960 810.5 c 128,-1,29
 909 927 909 927 818.5 992.5 c 128,-1,30
 728 1058 728 1058 609 1058 c 256,31,32
 490 1058 490 1058 400.5 992.5 c 128,-1,33
 311 927 311 927 261.5 810.5 c 128,-1,34
 212 694 212 694 212 542 c 0,35,36
 212 391 212 391 261 274.5 c 128,-1,37
 310 158 310 158 399.5 92 c 128,-1,38
 489 26 489 26 609 26 c 0,23,24
EndSplineSet
Substitution2: "'sups' Superscript in Latin lookup 39 subtable" p.sups
Substitution2: "'subs' Subscript in Latin lookup 38 subtable" p.subs
Substitution2: "'sinf' Scientific Inferiors in Latin lookup 18 subtable" p.subs
AlternateSubs2: "'aalt' Access All Alternates in Latin lookup 1 subtable" p.sups p.subs
EndChar

StartChar: uni048F
Encoding: 1167 1167 846
Width: 1180
GlyphClass: 2
Flags: W
AnchorPoint: "Anchor-1" 600 1087 basechar 0
AnchorPoint: "Anchor-0" 182 -417 basechar 0
LayerCount: 2
Fore
SplineSet
744 262 m 1,0,-1
 1022 -14 l 1,1,-1
 990 -50 l 1,2,-1
 712 228 l 1,3,-1
 744 262 l 1,0,-1
158 -418 m 1,4,-1
 158 1087 l 1,5,-1
 204 1087 l 1,6,-1
 204 802 l 1,7,-1
 208 802 l 1,8,9
 233 890 233 890 289.5 958.5 c 128,-1,10
 346 1027 346 1027 426.5 1065 c 128,-1,11
 507 1103 507 1103 601 1103 c 0,12,13
 732 1103 732 1103 833 1031.5 c 128,-1,14
 934 960 934 960 991 833 c 128,-1,15
 1048 706 1048 706 1048 542 c 0,16,17
 1048 377 1048 377 991.5 250.5 c 128,-1,18
 935 124 935 124 834.5 52 c 128,-1,19
 734 -20 734 -20 602 -20 c 0,20,21
 507 -20 507 -20 427 18 c 128,-1,22
 347 56 347 56 290.5 124.5 c 128,-1,23
 234 193 234 193 208 281 c 1,24,-1
 204 281 l 1,25,-1
 204 -418 l 1,26,-1
 158 -418 l 1,4,-1
601 26 m 0,27,28
 720 26 720 26 810 92 c 128,-1,29
 900 158 900 158 951.5 274 c 128,-1,30
 1003 390 1003 390 1003 542 c 256,31,32
 1003 694 1003 694 952 810.5 c 128,-1,33
 901 927 901 927 810.5 992.5 c 128,-1,34
 720 1058 720 1058 601 1058 c 256,35,36
 482 1058 482 1058 392.5 992.5 c 128,-1,37
 303 927 303 927 253.5 810.5 c 128,-1,38
 204 694 204 694 204 542 c 0,39,40
 204 391 204 391 253 274.5 c 128,-1,41
 302 158 302 158 391.5 92 c 128,-1,42
 481 26 481 26 601 26 c 0,27,28
EndSplineSet
EndChar

StartChar: uni01A5
Encoding: 421 421 847
Width: 1154
GlyphClass: 2
Flags: W
AnchorPoint: "Anchor-1" 608 1087 basechar 0
AnchorPoint: "Anchor-0" 190 -417 basechar 0
LayerCount: 2
Fore
SplineSet
166 857 m 1,0,-1
 166 1262 l 2,1,2
 166 1364 166 1364 212.5 1411.5 c 128,-1,3
 259 1459 259 1459 350 1459 c 0,4,5
 365 1459 365 1459 385 1459.5 c 128,-1,6
 405 1460 405 1460 422 1460 c 1,7,-1
 422 1413 l 1,8,9
 404 1413 404 1413 384 1413 c 128,-1,10
 364 1413 364 1413 350 1413 c 0,11,12
 278 1413 278 1413 245 1378 c 128,-1,13
 212 1343 212 1343 212 1262 c 2,14,-1
 212 857 l 1,15,-1
 166 857 l 1,0,-1
166 -418 m 1,16,-1
 166 1087 l 1,17,-1
 212 1087 l 1,18,-1
 212 802 l 1,19,-1
 216 802 l 1,20,21
 241 890 241 890 297.5 958.5 c 128,-1,22
 354 1027 354 1027 434.5 1065 c 128,-1,23
 515 1103 515 1103 609 1103 c 0,24,25
 740 1103 740 1103 841 1031.5 c 128,-1,26
 942 960 942 960 999 833 c 128,-1,27
 1056 706 1056 706 1056 542 c 0,28,29
 1056 377 1056 377 999.5 250.5 c 128,-1,30
 943 124 943 124 842.5 52 c 128,-1,31
 742 -20 742 -20 610 -20 c 0,32,33
 515 -20 515 -20 435 18 c 128,-1,34
 355 56 355 56 298.5 124.5 c 128,-1,35
 242 193 242 193 216 281 c 1,36,-1
 212 281 l 1,37,-1
 212 -418 l 1,38,-1
 166 -418 l 1,16,-1
609 26 m 0,39,40
 728 26 728 26 818 92 c 128,-1,41
 908 158 908 158 959.5 274 c 128,-1,42
 1011 390 1011 390 1011 542 c 256,43,44
 1011 694 1011 694 960 810.5 c 128,-1,45
 909 927 909 927 818.5 992.5 c 128,-1,46
 728 1058 728 1058 609 1058 c 256,47,48
 490 1058 490 1058 400.5 992.5 c 128,-1,49
 311 927 311 927 261.5 810.5 c 128,-1,50
 212 694 212 694 212 542 c 0,51,52
 212 391 212 391 261 274.5 c 128,-1,53
 310 158 310 158 399.5 92 c 128,-1,54
 489 26 489 26 609 26 c 0,39,40
EndSplineSet
EndChar

StartChar: q
Encoding: 113 113 851
Width: 1154
GlyphClass: 2
Flags: W
AnchorPoint: "Anchor-1" 578 1087 basechar 0
AnchorPoint: "Anchor-0" 965 -417 basechar 0
LayerCount: 2
Fore
SplineSet
988 -418 m 1,0,-1
 942 -418 l 1,1,-1
 942 281 l 1,2,-1
 939 281 l 1,3,4
 913 193 913 193 856.5 124.5 c 128,-1,5
 800 56 800 56 720.5 18 c 128,-1,6
 641 -20 641 -20 546 -20 c 0,7,8
 414 -20 414 -20 313 52 c 128,-1,9
 212 124 212 124 155 250.5 c 128,-1,10
 98 377 98 377 98 542 c 0,11,12
 98 706 98 706 155.5 833 c 128,-1,13
 213 960 213 960 314 1031.5 c 128,-1,14
 415 1103 415 1103 545 1103 c 0,15,16
 640 1103 640 1103 720.5 1065 c 128,-1,17
 801 1027 801 1027 858 958.5 c 128,-1,18
 915 890 915 890 939 802 c 1,19,-1
 942 802 l 1,20,-1
 942 1087 l 1,21,-1
 988 1087 l 1,22,-1
 988 -418 l 1,0,-1
545 26 m 0,23,24
 666 26 666 26 755 92 c 128,-1,25
 844 158 844 158 893 274.5 c 128,-1,26
 942 391 942 391 942 542 c 0,27,28
 942 694 942 694 893 810.5 c 128,-1,29
 844 927 844 927 755 992.5 c 128,-1,30
 666 1058 666 1058 545 1058 c 0,31,32
 428 1058 428 1058 337.5 992.5 c 128,-1,33
 247 927 247 927 196 810.5 c 128,-1,34
 145 694 145 694 145 542 c 256,35,36
 145 390 145 390 195.5 274 c 128,-1,37
 246 158 246 158 337 92 c 128,-1,38
 428 26 428 26 545 26 c 0,23,24
EndSplineSet
Substitution2: "'sups' Superscript in Latin lookup 39 subtable" q.sups
Substitution2: "'subs' Subscript in Latin lookup 38 subtable" q.subs
Substitution2: "'sinf' Scientific Inferiors in Latin lookup 18 subtable" q.subs
AlternateSubs2: "'aalt' Access All Alternates in Latin lookup 1 subtable" q.sups q.subs
EndChar

StartChar: uni02A0
Encoding: 672 672 852
Width: 1154
GlyphClass: 2
Flags: W
AnchorPoint: "Anchor-1" 578 1087 basechar 0
AnchorPoint: "Anchor-0" 965 -417 basechar 0
LayerCount: 2
Fore
SplineSet
942 857 m 1,0,-1
 942 1262 l 2,1,2
 942 1364 942 1364 988.5 1411.5 c 128,-1,3
 1035 1459 1035 1459 1126 1459 c 0,4,5
 1141 1459 1141 1459 1161 1459.5 c 128,-1,6
 1181 1460 1181 1460 1198 1460 c 1,7,-1
 1198 1413 l 1,8,9
 1180 1413 1180 1413 1160 1413 c 128,-1,10
 1140 1413 1140 1413 1126 1413 c 0,11,12
 1054 1413 1054 1413 1021 1378 c 128,-1,13
 988 1343 988 1343 988 1262 c 2,14,-1
 988 857 l 1,15,-1
 942 857 l 1,0,-1
988 -418 m 1,16,-1
 942 -418 l 1,17,-1
 942 281 l 1,18,-1
 939 281 l 1,19,20
 913 193 913 193 856.5 124.5 c 128,-1,21
 800 56 800 56 720.5 18 c 128,-1,22
 641 -20 641 -20 546 -20 c 0,23,24
 414 -20 414 -20 313 52 c 128,-1,25
 212 124 212 124 155 250.5 c 128,-1,26
 98 377 98 377 98 542 c 0,27,28
 98 706 98 706 155.5 833 c 128,-1,29
 213 960 213 960 314 1031.5 c 128,-1,30
 415 1103 415 1103 545 1103 c 0,31,32
 640 1103 640 1103 720.5 1065 c 128,-1,33
 801 1027 801 1027 858 958.5 c 128,-1,34
 915 890 915 890 939 802 c 1,35,-1
 942 802 l 1,36,-1
 942 1087 l 1,37,-1
 988 1087 l 1,38,-1
 988 -418 l 1,16,-1
545 26 m 0,39,40
 666 26 666 26 755 92 c 128,-1,41
 844 158 844 158 893 274.5 c 128,-1,42
 942 391 942 391 942 542 c 0,43,44
 942 694 942 694 893 810.5 c 128,-1,45
 844 927 844 927 755 992.5 c 128,-1,46
 666 1058 666 1058 545 1058 c 0,47,48
 428 1058 428 1058 337.5 992.5 c 128,-1,49
 247 927 247 927 196 810.5 c 128,-1,50
 145 694 145 694 145 542 c 256,51,52
 145 390 145 390 195.5 274 c 128,-1,53
 246 158 246 158 337 92 c 128,-1,54
 428 26 428 26 545 26 c 0,39,40
EndSplineSet
EndChar

StartChar: qrthook
Encoding: 587 587 853
Width: 1154
GlyphClass: 2
Flags: W
AnchorPoint: "Anchor-4" 988 0 basechar 0
AnchorPoint: "Anchor-1" 557 1087 basechar 0
AnchorPoint: "Anchor-0" 565 0 basechar 0
LayerCount: 2
Fore
SplineSet
1126 -417 m 0,0,1
 1035 -417 1035 -417 988.5 -369.5 c 128,-1,2
 942 -322 942 -322 942 -219 c 2,3,-1
 942 290 l 1,4,-1
 988 290 l 1,5,-1
 988 -219 l 2,6,7
 988 -302 988 -302 1021 -337 c 128,-1,8
 1054 -372 1054 -372 1126 -372 c 0,9,10
 1140 -372 1140 -372 1160 -372 c 128,-1,11
 1180 -372 1180 -372 1198 -372 c 1,12,-1
 1198 -418 l 1,13,14
 1181 -418 1181 -418 1161 -417.5 c 128,-1,15
 1141 -417 1141 -417 1126 -417 c 0,0,1
546 -20 m 0,16,17
 415 -20 415 -20 314 52 c 128,-1,18
 213 124 213 124 155.5 250.5 c 128,-1,19
 98 377 98 377 98 542 c 0,20,21
 98 706 98 706 155.5 833 c 128,-1,22
 213 960 213 960 314 1031.5 c 128,-1,23
 415 1103 415 1103 546 1103 c 0,24,25
 642 1103 642 1103 721.5 1064.5 c 128,-1,26
 801 1026 801 1026 858 958 c 128,-1,27
 915 890 915 890 939 802 c 1,28,-1
 943 802 l 1,29,-1
 943 1087 l 1,30,-1
 988 1087 l 1,31,-1
 988 0 l 1,32,-1
 942 0 l 1,33,-1
 942 281 l 1,34,-1
 939 281 l 1,35,36
 913 193 913 193 856.5 125 c 128,-1,37
 800 57 800 57 720.5 18.5 c 128,-1,38
 641 -20 641 -20 546 -20 c 0,16,17
546 26 m 0,39,40
 667 26 667 26 756 92 c 128,-1,41
 845 158 845 158 893.5 274.5 c 128,-1,42
 942 391 942 391 942 542 c 0,43,44
 942 694 942 694 893.5 810.5 c 128,-1,45
 845 927 845 927 756 992.5 c 128,-1,46
 667 1058 667 1058 546 1058 c 0,47,48
 429 1058 429 1058 338 992.5 c 128,-1,49
 247 927 247 927 196 811 c 128,-1,50
 145 695 145 695 145 542 c 0,51,52
 145 390 145 390 196 274 c 128,-1,53
 247 158 247 158 337.5 92 c 128,-1,54
 428 26 428 26 546 26 c 0,39,40
EndSplineSet
EndChar

StartChar: r
Encoding: 114 114 854
Width: 603
GlyphClass: 2
Flags: W
AnchorPoint: "Anchor-1" 396 1087 basechar 0
AnchorPoint: "Anchor-0" 191 0 basechar 0
LayerCount: 2
Fore
SplineSet
166 0 m 1,0,-1
 166 1087 l 1,1,-1
 212 1087 l 1,2,-1
 212 900 l 1,3,-1
 216 900 l 1,4,5
 255 991 255 991 346.5 1044 c 128,-1,6
 438 1097 438 1097 552 1097 c 0,7,8
 562 1097 562 1097 565 1097 c 128,-1,9
 568 1097 568 1097 577 1098 c 1,10,-1
 577 1051 l 1,11,12
 571 1052 571 1052 566 1051.5 c 128,-1,13
 561 1051 561 1051 553 1051 c 0,14,15
 455 1051 455 1051 377.5 1008 c 128,-1,16
 300 965 300 965 256 889 c 128,-1,17
 212 813 212 813 212 715 c 2,18,-1
 212 0 l 1,19,-1
 166 0 l 1,0,-1
EndSplineSet
Substitution2: "'smcp' Lowercase to Small Capitals in Latin lookup 69 subtable" r.sc
Substitution2: "'c2sc' Capitals to Small Capitals in Latin lookup 68 subtable" r.sc
Substitution2: "'sups' Superscript in Latin lookup 39 subtable" r.sups
Substitution2: "'subs' Subscript in Latin lookup 38 subtable" r.subs
Substitution2: "'sinf' Scientific Inferiors in Latin lookup 18 subtable" r.subs
AlternateSubs2: "'aalt' Access All Alternates in Latin lookup 1 subtable" r.sc r.sups r.subs
EndChar

StartChar: rrthook
Encoding: 57437 57437 855
Width: 603
GlyphClass: 2
Flags: W
AnchorPoint: "Anchor-1" 396 1087 basechar 0
AnchorPoint: "Anchor-0" 191 0 basechar 0
LayerCount: 2
Fore
SplineSet
350 -417 m 0,0,1
 259 -417 259 -417 212.5 -369.5 c 128,-1,2
 166 -322 166 -322 166 -219 c 2,3,-1
 166 0 l 1,4,-1
 212 0 l 1,5,-1
 212 -219 l 2,6,7
 212 -302 212 -302 245 -337 c 128,-1,8
 278 -372 278 -372 350 -372 c 0,9,10
 363 -372 363 -372 383.5 -372 c 128,-1,11
 404 -372 404 -372 423 -372 c 1,12,-1
 423 -418 l 1,13,14
 406 -418 406 -418 385.5 -417.5 c 128,-1,15
 365 -417 365 -417 350 -417 c 0,0,1
166 0 m 1,16,-1
 166 1087 l 1,17,-1
 212 1087 l 1,18,-1
 212 900 l 1,19,-1
 216 900 l 1,20,21
 255 991 255 991 346.5 1044 c 128,-1,22
 438 1097 438 1097 552 1097 c 0,23,24
 562 1097 562 1097 565 1097 c 128,-1,25
 568 1097 568 1097 577 1098 c 1,26,-1
 577 1051 l 1,27,28
 571 1052 571 1052 566 1051.5 c 128,-1,29
 561 1051 561 1051 553 1051 c 0,30,31
 455 1051 455 1051 377.5 1008 c 128,-1,32
 300 965 300 965 256 889 c 128,-1,33
 212 813 212 813 212 715 c 2,34,-1
 212 0 l 1,35,-1
 166 0 l 1,16,-1
EndSplineSet
EndChar

StartChar: rturn
Encoding: 633 633 857
Width: 603
GlyphClass: 2
Flags: W
AnchorPoint: "Anchor-1" 413 1087 basechar 0
AnchorPoint: "Anchor-0" 312 0 basechar 0
LayerCount: 2
Fore
SplineSet
437 1087 m 1,0,-1
 437 0 l 1,1,-1
 391 0 l 1,2,-1
 391 188 l 1,3,-1
 387 188 l 1,4,5
 348 98 348 98 256.5 44 c 128,-1,6
 165 -10 165 -10 51 -10 c 0,7,8
 42 -10 42 -10 39 -9.5 c 128,-1,9
 36 -9 36 -9 26 -9 c 1,10,-1
 26 36 l 1,11,12
 32 36 32 36 37 36 c 128,-1,13
 42 36 42 36 50 36 c 0,14,15
 149 36 149 36 226 80 c 128,-1,16
 303 124 303 124 347 199.5 c 128,-1,17
 391 275 391 275 391 372 c 2,18,-1
 391 1087 l 1,19,-1
 437 1087 l 1,0,-1
EndSplineSet
EndChar

StartChar: rturnrthook
Encoding: 635 635 858
Width: 603
GlyphClass: 2
Flags: W
AnchorPoint: "Anchor-1" 413 1087 basechar 0
AnchorPoint: "Anchor-0" 312 0 basechar 0
LayerCount: 2
Fore
SplineSet
574 -417 m 0,0,1
 483 -417 483 -417 436.5 -369.5 c 128,-1,2
 390 -322 390 -322 390 -219 c 2,3,-1
 390 0 l 1,4,-1
 436 0 l 1,5,-1
 436 -219 l 2,6,7
 436 -302 436 -302 469 -337 c 128,-1,8
 502 -372 502 -372 574 -372 c 0,9,10
 587 -372 587 -372 607.5 -372 c 128,-1,11
 628 -372 628 -372 646 -372 c 1,12,-1
 646 -418 l 1,13,14
 635 -418 635 -418 622 -417.5 c 128,-1,15
 609 -417 609 -417 596.5 -417 c 128,-1,16
 584 -417 584 -417 574 -417 c 0,0,1
437 1087 m 1,17,-1
 437 0 l 1,18,-1
 391 0 l 1,19,-1
 391 188 l 1,20,-1
 387 188 l 1,21,22
 348 98 348 98 256.5 44 c 128,-1,23
 165 -10 165 -10 51 -10 c 0,24,25
 42 -10 42 -10 39 -9.5 c 128,-1,26
 36 -9 36 -9 26 -9 c 1,27,-1
 26 36 l 1,28,29
 32 36 32 36 37 36 c 128,-1,30
 42 36 42 36 50 36 c 0,31,32
 149 36 149 36 226 80 c 128,-1,33
 303 124 303 124 347 199.5 c 128,-1,34
 391 275 391 275 391 372 c 2,35,-1
 391 1087 l 1,36,-1
 437 1087 l 1,17,-1
EndSplineSet
EndChar

StartChar: rfishhookrev
Encoding: 639 639 859
Width: 602
Flags: W
LayerCount: 2
Fore
SplineSet
436 0 m 1,0,-1
 390 0 l 1,1,-1
 390 739 l 2,2,3
 390 850 390 850 348 918.5 c 128,-1,4
 306 987 306 987 229 1019.5 c 128,-1,5
 152 1052 152 1052 50 1052 c 0,6,7
 42 1052 42 1052 38 1052 c 128,-1,8
 34 1052 34 1052 26 1052 c 1,9,-1
 26 1097 l 1,10,11
 31 1097 31 1097 34.5 1097 c 128,-1,12
 38 1097 38 1097 42 1097 c 128,-1,13
 46 1097 46 1097 51 1097 c 0,14,15
 166 1097 166 1097 252 1059 c 128,-1,16
 338 1021 338 1021 387 941.5 c 128,-1,17
 436 862 436 862 436 739 c 2,18,-1
 436 0 l 1,0,-1
EndSplineSet
EndChar

StartChar: uni027E
Encoding: 638 638 860
Width: 602
Flags: W
LayerCount: 2
Fore
SplineSet
166 0 m 1,0,-1
 166 739 l 2,1,2
 166 862 166 862 215 941.5 c 128,-1,3
 264 1021 264 1021 351 1059 c 128,-1,4
 438 1097 438 1097 552 1097 c 0,5,6
 558 1097 558 1097 561.5 1097 c 128,-1,7
 565 1097 565 1097 568 1097 c 128,-1,8
 571 1097 571 1097 576 1097 c 1,9,-1
 576 1052 l 1,10,11
 569 1052 569 1052 564.5 1052 c 128,-1,12
 560 1052 560 1052 552 1052 c 0,13,14
 450 1052 450 1052 374 1019.5 c 128,-1,15
 298 987 298 987 255 918.5 c 128,-1,16
 212 850 212 850 212 739 c 2,17,-1
 212 0 l 1,18,-1
 166 0 l 1,0,-1
EndSplineSet
EndChar

StartChar: rdescend
Encoding: 57438 57438 861
Width: 603
GlyphClass: 2
Flags: W
AnchorPoint: "Anchor-1" 396 1087 basechar 0
AnchorPoint: "Anchor-0" 191 0 basechar 0
LayerCount: 2
Fore
SplineSet
166 -418 m 1,0,-1
 166 0 l 1,1,-1
 212 0 l 1,2,-1
 212 -418 l 1,3,-1
 166 -418 l 1,0,-1
166 0 m 1,4,-1
 166 1087 l 1,5,-1
 212 1087 l 1,6,-1
 212 900 l 1,7,-1
 216 900 l 1,8,9
 255 991 255 991 346.5 1044 c 128,-1,10
 438 1097 438 1097 552 1097 c 0,11,12
 562 1097 562 1097 565 1097 c 128,-1,13
 568 1097 568 1097 577 1098 c 1,14,-1
 577 1051 l 1,15,16
 571 1052 571 1052 566 1051.5 c 128,-1,17
 561 1051 561 1051 553 1051 c 0,18,19
 455 1051 455 1051 377.5 1008 c 128,-1,20
 300 965 300 965 256 889 c 128,-1,21
 212 813 212 813 212 715 c 2,22,-1
 212 0 l 1,23,-1
 166 0 l 1,4,-1
EndSplineSet
EndChar

StartChar: r.sc
Encoding: 60955 60955 871
Width: 1007
Flags: W
LayerCount: 2
Fore
SplineSet
166 0 m 1,0,-1
 166 1087 l 1,1,-1
 534 1087 l 2,2,3
 697 1087 697 1087 798.5 1002 c 128,-1,4
 900 917 900 917 900 773 c 0,5,6
 900 631 900 631 798.5 545.5 c 128,-1,7
 697 460 697 460 535 460 c 2,8,-1
 190 460 l 1,9,-1
 190 507 l 1,10,-1
 534 507 l 2,11,12
 676 507 676 507 765.5 577.5 c 128,-1,13
 855 648 855 648 855 773 c 0,14,15
 855 899 855 899 766 970.5 c 128,-1,16
 677 1042 677 1042 533 1042 c 2,17,-1
 213 1042 l 1,18,-1
 213 0 l 1,19,-1
 166 0 l 1,0,-1
905 0 m 1,20,-1
 596 492 l 1,21,-1
 649 492 l 1,22,-1
 960 0 l 1,23,-1
 905 0 l 1,20,-1
EndSplineSet
EndChar

StartChar: rinv.sc
Encoding: 60956 60956 872
Width: 1007
Flags: W
LayerCount: 2
Fore
SplineSet
166 0 m 1,0,-1
 166 1087 l 1,1,-1
 213 1087 l 1,2,-1
 213 46 l 1,3,-1
 533 46 l 2,4,5
 677 46 677 46 766 118 c 128,-1,6
 855 190 855 190 855 316 c 0,7,8
 855 439 855 439 765.5 510.5 c 128,-1,9
 676 582 676 582 534 582 c 2,10,-1
 190 582 l 1,11,-1
 190 627 l 1,12,-1
 535 627 l 2,13,14
 696 627 696 627 798 543 c 128,-1,15
 900 459 900 459 900 316 c 0,16,17
 900 171 900 171 798.5 85.5 c 128,-1,18
 697 0 697 0 534 0 c 2,19,-1
 166 0 l 1,0,-1
596 595 m 1,20,-1
 905 1087 l 1,21,-1
 960 1087 l 1,22,-1
 649 595 l 1,23,-1
 596 595 l 1,20,-1
EndSplineSet
EndChar

StartChar: s
Encoding: 115 115 873
Width: 963
GlyphClass: 2
Flags: W
AnchorPoint: "Anchor-3" 485 0 basechar 0
AnchorPoint: "Anchor-1" 490 1087 basechar 0
AnchorPoint: "Anchor-0" 490 0 basechar 0
LayerCount: 2
Fore
SplineSet
482 -19 m 0,0,1
 375 -19 375 -19 295.5 18.5 c 128,-1,2
 216 56 216 56 168.5 124 c 128,-1,3
 121 192 121 192 108 287 c 1,4,-1
 155 292 l 1,5,6
 170 167 170 167 254.5 97 c 128,-1,7
 339 27 339 27 482 27 c 0,8,9
 631 27 631 27 720.5 99 c 128,-1,10
 810 171 810 171 810 288 c 0,11,12
 810 375 810 375 753.5 424 c 128,-1,13
 697 473 697 473 587 500 c 2,14,-1
 409 543 l 2,15,16
 277 575 277 575 208.5 640 c 128,-1,17
 140 705 140 705 140 809 c 0,18,19
 140 897 140 897 184.5 963 c 128,-1,20
 229 1029 229 1029 309 1065.5 c 128,-1,21
 389 1102 389 1102 493 1102 c 0,22,23
 589 1102 589 1102 661.5 1068.5 c 128,-1,24
 734 1035 734 1035 780 970.5 c 128,-1,25
 826 906 826 906 843 812 c 1,26,-1
 798 806 l 1,27,28
 774 930 774 930 697.5 993.5 c 128,-1,29
 621 1057 621 1057 493 1057 c 0,30,31
 355 1057 355 1057 270.5 989 c 128,-1,32
 186 921 186 921 186 809 c 0,33,34
 186 722 186 722 244 669 c 128,-1,35
 302 616 302 616 417 588 c 2,36,-1
 598 544 l 2,37,38
 723 514 723 514 789.5 453 c 128,-1,39
 856 392 856 392 856 288 c 0,40,41
 856 197 856 197 809 127.5 c 128,-1,42
 762 58 762 58 678 19.5 c 128,-1,43
 594 -19 594 -19 482 -19 c 0,0,1
EndSplineSet
Substitution2: "'sups' Superscript in Latin lookup 39 subtable" s.sups
Substitution2: "'subs' Subscript in Latin lookup 38 subtable" s.subs
Substitution2: "'sinf' Scientific Inferiors in Latin lookup 18 subtable" s.subs
AlternateSubs2: "'aalt' Access All Alternates in Latin lookup 1 subtable" s.sups s.subs
EndChar

StartChar: srthook
Encoding: 642 642 874
Width: 963
GlyphClass: 2
Flags: W
AnchorPoint: "Anchor-3" 485 0 basechar 0
AnchorPoint: "Anchor-1" 490 1087 basechar 0
AnchorPoint: "Anchor-0" 490 0 basechar 0
LayerCount: 2
Fore
SplineSet
292 -417 m 0,0,1
 201 -417 201 -417 154.5 -369.5 c 128,-1,2
 108 -322 108 -322 108 -219 c 2,3,-1
 108 287 l 1,4,-1
 155 286 l 1,5,-1
 155 -219 l 2,6,7
 155 -302 155 -302 187.5 -337 c 128,-1,8
 220 -372 220 -372 293 -372 c 0,9,10
 301 -372 301 -372 313.5 -371.5 c 128,-1,11
 326 -371 326 -371 339.5 -371 c 128,-1,12
 353 -371 353 -371 365 -372 c 1,13,-1
 365 -418 l 1,14,15
 354 -418 354 -418 340.5 -417.5 c 128,-1,16
 327 -417 327 -417 314.5 -417 c 128,-1,17
 302 -417 302 -417 292 -417 c 0,0,1
482 -19 m 0,18,19
 375 -19 375 -19 295.5 18.5 c 128,-1,20
 216 56 216 56 168.5 124 c 128,-1,21
 121 192 121 192 108 287 c 1,22,-1
 155 292 l 1,23,24
 170 167 170 167 254.5 97 c 128,-1,25
 339 27 339 27 482 27 c 0,26,27
 631 27 631 27 720.5 99 c 128,-1,28
 810 171 810 171 810 288 c 0,29,30
 810 375 810 375 753.5 424 c 128,-1,31
 697 473 697 473 587 500 c 2,32,-1
 409 543 l 2,33,34
 277 575 277 575 208.5 640 c 128,-1,35
 140 705 140 705 140 809 c 0,36,37
 140 897 140 897 184.5 963 c 128,-1,38
 229 1029 229 1029 309 1065.5 c 128,-1,39
 389 1102 389 1102 493 1102 c 0,40,41
 589 1102 589 1102 661.5 1068.5 c 128,-1,42
 734 1035 734 1035 780 970.5 c 128,-1,43
 826 906 826 906 843 812 c 1,44,-1
 798 806 l 1,45,46
 774 930 774 930 697.5 993.5 c 128,-1,47
 621 1057 621 1057 493 1057 c 0,48,49
 355 1057 355 1057 270.5 989 c 128,-1,50
 186 921 186 921 186 809 c 0,51,52
 186 722 186 722 244 669 c 128,-1,53
 302 616 302 616 417 588 c 2,54,-1
 598 544 l 2,55,56
 723 514 723 514 789.5 453 c 128,-1,57
 856 392 856 392 856 288 c 0,58,59
 856 197 856 197 809 127.5 c 128,-1,60
 762 58 762 58 678 19.5 c 128,-1,61
 594 -19 594 -19 482 -19 c 0,18,19
EndSplineSet
EndChar

StartChar: uni023F
Encoding: 575 575 875
Width: 963
GlyphClass: 2
Flags: W
AnchorPoint: "Anchor-3" 485 0 basechar 0
AnchorPoint: "Anchor-1" 490 1087 basechar 0
AnchorPoint: "Anchor-0" 490 0 basechar 0
LayerCount: 2
Fore
SplineSet
189 167 m 1,0,1
 292 -13 292 -13 353 -121 c 128,-1,2
 414 -229 414 -229 450 -282.5 c 128,-1,3
 486 -336 486 -336 512.5 -354 c 128,-1,4
 539 -372 539 -372 575 -372 c 0,5,6
 603 -372 603 -372 633.5 -358.5 c 128,-1,7
 664 -345 664 -345 705 -314 c 1,8,-1
 727 -354 l 1,9,10
 678 -391 678 -391 643.5 -404.5 c 128,-1,11
 609 -418 609 -418 577 -418 c 0,12,13
 541 -418 541 -418 511 -404.5 c 128,-1,14
 481 -391 481 -391 454 -363 c 128,-1,15
 427 -335 427 -335 401 -290 c 2,16,-1
 153 149 l 1,17,-1
 189 167 l 1,0,1
482 -19 m 0,18,19
 375 -19 375 -19 295.5 18.5 c 128,-1,20
 216 56 216 56 168.5 124 c 128,-1,21
 121 192 121 192 108 287 c 1,22,-1
 155 292 l 1,23,24
 170 167 170 167 254.5 97 c 128,-1,25
 339 27 339 27 482 27 c 0,26,27
 631 27 631 27 720.5 99 c 128,-1,28
 810 171 810 171 810 288 c 0,29,30
 810 375 810 375 753.5 424 c 128,-1,31
 697 473 697 473 587 500 c 2,32,-1
 409 543 l 2,33,34
 277 575 277 575 208.5 640 c 128,-1,35
 140 705 140 705 140 809 c 0,36,37
 140 897 140 897 184.5 963 c 128,-1,38
 229 1029 229 1029 309 1065.5 c 128,-1,39
 389 1102 389 1102 493 1102 c 0,40,41
 589 1102 589 1102 661.5 1068.5 c 128,-1,42
 734 1035 734 1035 780 970.5 c 128,-1,43
 826 906 826 906 843 812 c 1,44,-1
 798 806 l 1,45,46
 774 930 774 930 697.5 993.5 c 128,-1,47
 621 1057 621 1057 493 1057 c 0,48,49
 355 1057 355 1057 270.5 989 c 128,-1,50
 186 921 186 921 186 809 c 0,51,52
 186 722 186 722 244 669 c 128,-1,53
 302 616 302 616 417 588 c 2,54,-1
 598 544 l 2,55,56
 723 514 723 514 789.5 453 c 128,-1,57
 856 392 856 392 856 288 c 0,58,59
 856 197 856 197 809 127.5 c 128,-1,60
 762 58 762 58 678 19.5 c 128,-1,61
 594 -19 594 -19 482 -19 c 0,18,19
EndSplineSet
EndChar

